<svg xmlns="http://www.w3.org/2000/svg" width="24" height="24" viewBox="0 0 24 24">
  <g id="グループ_4911" data-name="グループ 4911" transform="translate(5 1.344)">
    <rect id="長方形_1410" data-name="長方形 1410" width="24" height="24" transform="translate(-5 -1.344)" fill="none"/>
    <g id="グループ_4908" data-name="グループ 4908" transform="translate(-3 0.156)">
      <path id="Icon_metro-twitter" data-name="Icon metro-twitter" d="M26.571,7.126a9.845,9.845,0,0,1-2.828.775,4.939,4.939,0,0,0,2.165-2.724,9.857,9.857,0,0,1-3.127,1.195,4.928,4.928,0,0,0-8.39,4.491A13.979,13.979,0,0,1,4.242,5.718a4.929,4.929,0,0,0,1.524,6.574,4.9,4.9,0,0,1-2.23-.616c0,.021,0,.041,0,.062a4.927,4.927,0,0,0,3.95,4.828,4.932,4.932,0,0,1-2.224.084,4.929,4.929,0,0,0,4.6,3.419,9.879,9.879,0,0,1-6.115,2.108,9.986,9.986,0,0,1-1.175-.069,13.936,13.936,0,0,0,7.548,2.212,13.914,13.914,0,0,0,14.009-14.01q0-.32-.014-.637a10,10,0,0,0,2.457-2.549Z" transform="translate(-4.571 -4.317)" fill="#236de3"/>
    </g>
  </g>
</svg>
