<svg xmlns="http://www.w3.org/2000/svg" width="22" height="20.952" viewBox="0 0 22 20.952">
  <path id="Icon_simple-line" data-name="Icon simple-line" d="M17.751,9.375a.578.578,0,0,1,0,1.156H16.142v1.031h1.609a.577.577,0,1,1,0,1.154H15.564a.578.578,0,0,1-.575-.577V7.766a.579.579,0,0,1,.577-.577h2.187a.578.578,0,0,1,0,1.155H16.142V9.375Zm-3.534,2.765a.577.577,0,0,1-.4.546.592.592,0,0,1-.182.028.567.567,0,0,1-.467-.229L10.932,9.444v2.695a.576.576,0,1,1-1.152,0V7.766a.574.574,0,0,1,.394-.545.533.533,0,0,1,.178-.03.593.593,0,0,1,.454.233l2.257,3.052V7.766a.577.577,0,1,1,1.155,0v4.373Zm-5.263,0a.577.577,0,1,1-1.153,0V7.766a.577.577,0,1,1,1.153,0Zm-2.26.577H4.507a.581.581,0,0,1-.578-.577V7.766a.577.577,0,1,1,1.155,0v3.8h1.61a.577.577,0,0,1,0,1.154M22,9.788c0-4.923-4.936-8.93-11-8.93S0,4.865,0,9.788C0,14.2,3.914,17.893,9.2,18.6c.358.075.846.236.97.541a2.239,2.239,0,0,1,.035.99l-.15.935c-.041.276-.22,1.087.962.591a35.46,35.46,0,0,0,8.65-6.394A7.9,7.9,0,0,0,22,9.788" transform="translate(0 -0.858)" fill="#236de3"/>
</svg>
