<svg viewBox="0 0 320 320" xmlns="http://www.w3.org/2000/svg"><circle cx="160" cy="160" fill="#ffec8d" r="160"/><path d="m171.733 180.84h24.089v24.089h-24.089z" fill="#fff" transform="matrix(.90107702 -.43365908 .43365908 .90107702 -65.466 98.777)"/><path d="m178.151 213.961a5 5 0 0 1 -4.509-2.832l-10.442-21.706a5 5 0 0 1 2.337-6.673l21.702-10.45a5 5 0 0 1 6.674 2.337l10.446 21.706a5 5 0 0 1 -2.337 6.674l-21.706 10.446a4.987 4.987 0 0 1 -2.165.498zm-3.776-24.369 6.109 12.695 12.7-6.11-6.11-12.695z" fill="#333"/><rect fill="#9ccc83" height="92.036" rx="8.674" transform="matrix(.90107702 -.43365908 .43365908 .90107702 -84.565 113.996)" width="40.95" x="187.112" y="196.339"/><path d="m213.169 294.8a13.693 13.693 0 0 1 -12.343-7.743l-32.389-67.3a13.674 13.674 0 0 1 6.392-18.251l21.271-10.238a13.69 13.69 0 0 1 18.251 6.391l32.389 67.3a13.673 13.673 0 0 1 -6.391 18.251l-21.267 10.235a13.59 13.59 0 0 1 -5.913 1.355zm-11.149-94.884a3.654 3.654 0 0 0 -1.587.362l-21.268 10.236a3.674 3.674 0 0 0 -1.717 4.9l32.389 67.3a3.678 3.678 0 0 0 4.9 1.718l21.271-10.232a3.673 3.673 0 0 0 1.717-4.9l-32.389-67.3a3.678 3.678 0 0 0 -3.316-2.084z" fill="#333"/><ellipse cx="144.686" cy="114.844" fill="#fff" rx="79.982" ry="79.84"/><path d="m144.821 199.678a85.094 85.094 0 0 1 -76.708-48.039 84.777 84.777 0 0 1 39.723-113.239 85.142 85.142 0 0 1 113.424 39.65 84.877 84.877 0 0 1 -76.439 121.628zm-.252-159.669a74.844 74.844 0 1 0 67.683 42.384 75.093 75.093 0 0 0 -67.683-42.384z" fill="#333"/><ellipse cx="144.686" cy="114.844" fill="#fff" rx="58.663" ry="58.559"/><g fill="#333"><path d="m144.788 178.4a63.755 63.755 0 0 1 -57.466-35.988 63.58 63.58 0 0 1 29.759-84.84 63.783 63.783 0 0 1 84.969 29.706 63.581 63.581 0 0 1 -29.759 84.84 63.376 63.376 0 0 1 -27.503 6.282zm-.188-117.111a53.524 53.524 0 1 0 48.439 30.332 53.432 53.432 0 0 0 -48.439-30.332z"/><path d="m111.36 162.321a5 5 0 0 1 -3.535-8.536l41.608-41.608a5 5 0 1 1 7.071 7.072l-41.604 41.607a4.984 4.984 0 0 1 -3.54 1.465z"/><path d="m128.142 174.1a5 5 0 0 1 -3.536-8.536l59-59a5 5 0 1 1 7.071 7.071l-59 59a4.988 4.988 0 0 1 -3.535 1.465z"/></g></svg>