<svg viewBox="0 0 320 320" xmlns="http://www.w3.org/2000/svg"><circle cx="160" cy="160" fill="#ffec8d" r="160"/><path d="m300.062 152.4-54.32-80.324-34.858 24.213 6.781 10.026a27.559 27.559 0 0 1 -19.731 3.8c-8.755-1.764-31-.792-44.291.944-4.875.637-9.7 3.186-14.17 6.7-16.965-6.789-23.733-6.261-34.365-12.583l6.008-8.883-34.858-24.216-54.32 80.323 34.862 24.213 5.82-8.613c9.827 7.138 14.032 11.145 19.934 20.92-3.7 2.986-6.64 5.929-7.33 7.819-3.092 8.474 4.542 18.83 10.926 15.724a75.754 75.754 0 0 0 12.631-8.527l1.644 1.412c-6.059 5.087-11.737 10.669-12.769 13.141-3.27 7.839 6.118 17.684 12.561 14.731 4.157-1.9 11.211-7.7 16.951-13.492l.91.783c-4.867 4.819-9.63 10.42-11.859 13.986-4.692 7.51 5.124 18.913 11.505 15.8 4.156-2.029 10.734-9.8 15.661-16.637l.343.294c-4.3 5.244-8.444 11.715-9.323 14.1-2.3 6.257 5.474 14.556 10.885 12.2 2.237-.973 4.849-3.812 7.317-7.191 6.083 4.673 14.648 10.82 21.331 12.839 6.325 1.914 16.454-5.846 11.171-10.683a128.1 128.1 0 0 1 -11.109-11.802 5.965 5.965 0 0 0 .392-.471c5.782 4.888 11.548 9.423 16.529 13.119 6.914 5.139 19.111-5.711 13.375-12.968-4.649-5.862-11.095-13.706-17.269-20.206l.09-.2c7.775 7.693 15.971 15.991 19.76 19.1 8.982 7.34 23.745-7.239 13.148-18.258-8.166-8.5-14.537-15.318-21.994-22.642 9.525 6.786 22.024 19.3 27.111 24.893 7.02 7.71 21.255-8.382 14.809-19.619l-3.23-5.156c4.755-6.232 9.941-13.208 12.574-18.964 1.769-3.867 12.942-10.2 19.451-14.979l6.459 9.551z" fill="#fff"/><g fill="#333"><path d="m82.559 193.922a5 5 0 0 1 -4.285-2.416c-5.52-9.143-9.3-12.708-18.592-19.46a5 5 0 1 1 5.877-8.091c10.2 7.413 14.952 11.908 21.275 22.382a5 5 0 0 1 -4.275 7.585z"/><path d="m166.089 271.212a12.371 12.371 0 0 1 -3.6-.519c-7.6-2.3-16.729-8.9-22.931-13.66a5 5 0 1 1 6.091-7.931c3.215 2.47 13 9.984 19.735 12.019 1.763.538 5-1.217 5.971-2.551a136 136 0 0 1 -11.155-11.906 5 5 0 0 1 .085-6.592l.111-.124a4.9 4.9 0 0 1 3.418-2 4.985 4.985 0 0 1 3.809 1.182c5.327 4.5 10.957 8.972 16.279 12.921 1.258.934 3.769-.151 5.327-1.755.4-.415 2.355-2.566 1.147-4.095-6.364-8.025-12.076-14.71-16.972-19.865a5 5 0 0 1 -.96-5.437l.12-.269a5 5 0 0 1 8.072-1.493c1.45 1.435 2.915 2.891 4.363 4.33 5.974 5.938 12.151 12.078 15.051 14.456 2.456 2.008 5.471-.019 6.721-1.374 1.014-1.1 3.99-5.042-.347-9.552-1.974-2.054-3.842-4.008-5.645-5.9-5.713-5.979-10.646-11.143-16.249-16.645a5 5 0 0 1 6.405-7.64c9.572 6.819 22.2 19.322 27.909 25.6.227.249.837.916 2.9-.587 3.367-2.454 6.47-8.655 3.874-13.181-9.052-15.759-29.847-36.845-39.637-45.848-7.951-6.838-14.386-12.961-20.066-18.365l-1.956-1.859a5 5 0 1 1 6.887-7.251l1.962 1.865c5.609 5.337 11.967 11.386 19.755 18.08.042.037.084.073.124.111 10.907 10.022 31.943 31.47 41.6 48.289 5.345 9.319.705 20.876-6.658 26.241a13.568 13.568 0 0 1 -8.942 2.864 17.265 17.265 0 0 1 -4.568 10.552 15.725 15.725 0 0 1 -13.407 5.356 14.873 14.873 0 0 1 -4.311 8.576c-3.893 4.011-10.04 6.417-15.463 4.442a11.318 11.318 0 0 1 -.723 1.518 17.314 17.314 0 0 1 -14.126 7.997z"/><path d="m139.02 122.577a4.989 4.989 0 0 1 -1.843-.354 165.012 165.012 0 0 0 -16.526-5.515c-6.179-1.784-11.515-3.324-18.1-7.238a5 5 0 0 1 5.111-8.6c5.479 3.258 9.792 4.5 15.761 6.226a173.661 173.661 0 0 1 17.441 5.828 5 5 0 0 1 -1.846 9.649z"/><path d="m83.732 218.033a12.3 12.3 0 0 1 -8.208-3.408c-4.543-4.1-7.717-12.145-5-19.6 1.189-3.26 5.3-7.483 12.212-12.553 4.687-3.437 11.225-7.545 15.519-8.768a13.371 13.371 0 0 1 15.019 5.708c3.737 5.488 3.771 12.691.082 17.516-4.176 5.464-17.061 16.159-25.022 20.032a10.465 10.465 0 0 1 -4.602 1.073zm-3.832-19.533a8.643 8.643 0 0 0 2.318 8.7c.119.107 1.186 1.043 1.74.768 6.435-3.131 18.1-12.722 21.454-17.113 1.072-1.4.9-3.9-.4-5.814-1.083-1.592-2.433-2.169-4.012-1.72-5.645 1.608-19.5 11.968-21.1 15.179z"/><path d="m97.7 238.761a14.87 14.87 0 0 1 -10.167-4.522c-5.136-4.963-6.9-11.9-4.49-17.674 2.275-5.453 21.367-22.572 29.8-25.8a12.817 12.817 0 0 1 14.621 3.621c4.247 4.78 5.331 12.052 2.578 17.291-4.066 7.74-19.621 22.369-27.739 26.089a10.983 10.983 0 0 1 -4.603.995zm-5.442-18.313c-.891 2.2.524 4.957 2.223 6.6 1.452 1.4 3 1.928 3.654 1.629 6.038-2.766 20.041-15.917 23.052-21.648.832-1.584.282-4.331-1.2-6a2.9 2.9 0 0 0 -3.57-.924c-5.253 2.01-22.352 16.795-24.16 20.343z"/><path d="m133.3 265.662a13.5 13.5 0 0 1 -9.118-3.966c-4.564-4.306-6.319-10.337-4.471-15.363 1.494-4.063 12.708-21.534 20.219-24.366a11.7 11.7 0 0 1 12.539 3.168 14.279 14.279 0 0 1 3.292 15.043c-1.066 2.644-10.059 21-18.477 24.667a9.945 9.945 0 0 1 -3.984.817zm-4.2-15.879c-.36.981.2 2.629 1.355 4.009a4.512 4.512 0 0 0 2.867 1.875c3.244-1.415 10.8-13.361 13.167-19.229a4.329 4.329 0 0 0 -1.168-4.313c-.252-.257-1.129-1.08-1.861-.8-3.2 1.374-12.988 14.729-14.36 18.46z"/><path d="m115.405 255.82c-3.675 0-7.538-1.864-10.659-5.329-4.237-4.7-6.735-12.291-2.767-18.642 4.508-7.216 17.847-21.468 25.147-24.744 4.428-1.986 9.572-.888 13.426 2.865 4.349 4.235 5.855 10.476 3.747 15.53-2.231 5.349-15.978 25.187-24.382 29.289a10.218 10.218 0 0 1 -4.512 1.031zm-4.945-18.673c-1.149 1.84-.007 4.739 1.716 6.651 1.592 1.768 3.093 2.129 3.355 2 5.011-2.447 17.543-19.368 19.538-24.152.51-1.221-.146-3.205-1.493-4.517-.324-.316-1.454-1.312-2.356-.9-4.851 2.176-16.874 14.7-20.761 20.918z"/><path d="m226.72 206.005q-.075 0-.15 0a5 5 0 0 1 -4-2.208c-10.2-15.175-27.771-32.878-36.594-40.994-8.16-7.017-14.714-13.264-20.5-18.777l-.865-.823c-1.053-1-1.05-1-2.821-.941-2.574.077-7.516 5.276-11.486 9.454-4.509 4.744-9.619 10.12-15.471 13.5-7.109 4.115-14.419 3.966-19.072-.393-5.436-5.09-5.7-14.16-.71-24.259 4.335-8.772 19.6-32.061 37.945-34.458 12.48-1.631 36.015-2.885 45.926-.888a22.562 22.562 0 0 0 16-3.074 5 5 0 0 1 5.5 8.355 32.583 32.583 0 0 1 -23.461 4.523c-7.758-1.562-29.3-.745-42.661 1-11.637 1.52-24.945 18.187-30.275 28.972-3.218 6.51-2.992 11.059-1.42 12.531 1.272 1.19 4.178.8 7.234-.967 4.6-2.656 8.986-7.269 13.226-11.729 6.3-6.631 11.746-12.358 18.423-12.559 3.46-.114 6.22.087 10.019 3.685l.876.835c5.714 5.444 12.189 11.615 20.185 18.488.042.036.083.073.123.11 8.061 7.409 23.291 22.676 34.141 37.154a79.835 79.835 0 0 0 7.924-12.575c1.725-3.77 6.722-7.284 14.748-12.622 2.315-1.54 4.5-2.994 6.292-4.308a5 5 0 0 1 5.916 8.063c-1.976 1.45-4.257 2.966-6.67 4.572-3.818 2.539-10.207 6.789-11.226 8.524-2.8 6.126-8.014 13.167-13.113 19.848a5 5 0 0 1 -3.983 1.961z"/></g><path d="m111.116 96.289-34.858-24.212-54.32 80.324 34.858 24.212z" fill="#9ccc83"/><path d="m56.8 181.613a5 5 0 0 1 -2.853-.894l-34.862-24.211a5 5 0 0 1 -1.285-6.908l54.32-80.324a5 5 0 0 1 6.994-1.306l34.858 24.211a5 5 0 0 1 1.289 6.907l-54.323 80.326a5 5 0 0 1 -4.142 2.2zm-27.95-30.5 26.64 18.505 48.718-72.04-26.645-18.506z" fill="#333"/><path d="m210.884 96.289 34.858-24.212 54.32 80.324-34.858 24.212z" fill="#9ccc83"/><path d="m265.2 181.613a5 5 0 0 1 -4.142-2.2l-54.32-80.325a5 5 0 0 1 1.289-6.907l34.863-24.21a5 5 0 0 1 6.994 1.306l54.316 80.323a5 5 0 0 1 -1.289 6.907l-34.857 24.211a5 5 0 0 1 -2.854.895zm-47.408-84.035 48.718 72.04 26.643-18.506-48.716-72.04z" fill="#333"/></svg>