<svg xmlns="http://www.w3.org/2000/svg" width="23.248" height="23.396" viewBox="0 0 23.248 23.396">
  <path id="icon_linkedin" d="M235.413,1.783H215.6a1.7,1.7,0,0,0-1.718,1.676V23.5a1.7,1.7,0,0,0,1.718,1.676h19.812a1.7,1.7,0,0,0,1.718-1.676V3.459A1.7,1.7,0,0,0,235.413,1.783ZM220.93,21.368h-3.511V10.8h3.511ZM219.175,9.361h-.023a2.006,2.006,0,1,1,.023,0Zm14.417,12.007h-3.511V15.716c0-1.42-.508-2.389-1.779-2.389a1.923,1.923,0,0,0-1.8,1.284,2.409,2.409,0,0,0-.115.857v5.9h-3.511s.046-9.573,0-10.564h3.511v1.5a3.485,3.485,0,0,1,3.165-1.744c2.31,0,4.043,1.51,4.043,4.755Z" transform="translate(-213.883 -1.783)" fill="#cacece"/>
</svg>
