<svg xmlns="http://www.w3.org/2000/svg" width="24.77" height="20.128" viewBox="0 0 24.77 20.128">
  <path id="iconmonstr-twitter-1" d="M418.106,645.614a10.161,10.161,0,0,1-2.919.8,5.093,5.093,0,0,0,2.233-2.811,10.186,10.186,0,0,1-3.225,1.233,5.086,5.086,0,0,0-8.66,4.635,14.425,14.425,0,0,1-10.475-5.307,5.087,5.087,0,0,0,1.572,6.786,5.071,5.071,0,0,1-2.3-.639,5.087,5.087,0,0,0,4.076,5.048,5.086,5.086,0,0,1-2.295.087,5.086,5.086,0,0,0,4.747,3.529,10.216,10.216,0,0,1-7.521,2.1,14.458,14.458,0,0,0,22.253-12c0-.279-.019-.835-.019-.835A19.358,19.358,0,0,0,418.106,645.614Z" transform="translate(-393.336 -643.233)" fill="#cacece"/>
</svg>
