<svg id="グループ_4166" data-name="グループ 4166" xmlns="http://www.w3.org/2000/svg" width="160" height="35.548" viewBox="0 0 160 35.548">
  <g id="グループ_4163" data-name="グループ 4163" transform="translate(46.979 10.847)">
    <path id="パス_2812" data-name="パス 2812" d="M335.955,348.685H325.877a1.214,1.214,0,0,1,0-2.428h10.078a1.214,1.214,0,0,1,0,2.428Z" transform="translate(-324.663 -344.578)" fill="#fff"/>
    <path id="パス_2813" data-name="パス 2813" d="M341.266,359.935a1.214,1.214,0,0,1-1.213-1.214V347.545a1.214,1.214,0,1,1,2.427,0v11.177A1.214,1.214,0,0,1,341.266,359.935Z" transform="translate(-335.014 -344.628)" fill="#fff"/>
    <path id="パス_2814" data-name="パス 2814" d="M497.824,348.685H487.746a1.214,1.214,0,0,1,0-2.428h10.078a1.214,1.214,0,0,1,0,2.428Z" transform="translate(-433.532 -344.578)" fill="#fff"/>
    <path id="パス_2815" data-name="パス 2815" d="M503.136,359.935a1.214,1.214,0,0,1-1.214-1.214V347.545a1.214,1.214,0,1,1,2.427,0v11.177A1.214,1.214,0,0,1,503.136,359.935Z" transform="translate(-443.883 -344.628)" fill="#fff"/>
    <g id="グループ_4161" data-name="グループ 4161" transform="translate(16.107)">
      <path id="パス_2816" data-name="パス 2816" d="M375.592,364.949a1.214,1.214,0,0,1-1.213-1.214v-9.054a1.214,1.214,0,1,1,2.427,0v9.054A1.214,1.214,0,0,1,375.592,364.949Z" transform="translate(-374.208 -349.427)" fill="#fff"/>
      <circle id="楕円形_38" data-name="楕円形 38" cx="1.42" cy="1.42" r="1.42" fill="#fff"/>
    </g>
    <path id="パス_2817" data-name="パス 2817" d="M534.705,363.538a5.686,5.686,0,1,1,5.686-5.686A5.693,5.693,0,0,1,534.705,363.538Zm0-8.945a3.259,3.259,0,1,0,3.259,3.259A3.262,3.262,0,0,0,534.705,354.594Z" transform="translate(-462.108 -348.552)" fill="#fff"/>
    <path id="パス_2818" data-name="パス 2818" d="M454.133,363.9a4.8,4.8,0,0,1-1.042-.112c-2.778-.617-4.307-2.7-4.307-5.86a5.138,5.138,0,1,1,10.277,0,1.214,1.214,0,0,1-1.225,1.213l-6.52-.062a2.737,2.737,0,0,0,2.3,2.339,2.919,2.919,0,0,0,2.742-.963,1.214,1.214,0,1,1,1.942,1.456A5.319,5.319,0,0,1,454.133,363.9Zm-2.6-7.246,4.809.046a2.71,2.71,0,0,0-4.809-.046Z" transform="translate(-408.144 -348.969)" fill="#fff"/>
    <path id="パス_2819" data-name="パス 2819" d="M585.538,365.281a1.214,1.214,0,0,1-1.085-.671l-2.721-5.441-2.721,5.441a1.214,1.214,0,0,1-1.085.671h0a1.214,1.214,0,0,1-1.086-.671l-4.26-8.519a1.214,1.214,0,0,1,2.171-1.085l3.174,6.348L580.6,356a1.186,1.186,0,0,1,.1-.193,1.216,1.216,0,0,1,2.067,0,1.233,1.233,0,0,1,.086.166l2.688,5.375,3.174-6.348a1.214,1.214,0,1,1,2.171,1.085l-4.259,8.519A1.214,1.214,0,0,1,585.538,365.281Z" transform="translate(-491.32 -350.011)" fill="#fff"/>
    <path id="パス_2820" data-name="パス 2820" d="M647.294,364.85a1.214,1.214,0,0,1-1.214-1.214V358.7a2.766,2.766,0,0,0-5.532,0v4.935a1.214,1.214,0,1,1-2.427,0V358.7a5.193,5.193,0,0,1,10.387,0v4.935A1.214,1.214,0,0,1,647.294,364.85Z" transform="translate(-535.486 -349.457)" fill="#fff"/>
    <g id="グループ_4162" data-name="グループ 4162" transform="translate(22.999 4.054)">
      <path id="パス_2821" data-name="パス 2821" d="M396.117,364.683a1.214,1.214,0,0,1-1.213-1.214v-5.863a4.1,4.1,0,0,1,4.1-4.1h.053a4.1,4.1,0,0,1,4.095,4.1v3a1.214,1.214,0,1,1-2.427,0v-3a1.67,1.67,0,0,0-1.668-1.668H399a1.67,1.67,0,0,0-1.668,1.668v5.863A1.214,1.214,0,0,1,396.117,364.683Z" transform="translate(-394.904 -353.511)" fill="#fff"/>
      <path id="パス_2822" data-name="パス 2822" d="M419.594,364.683a1.214,1.214,0,0,1-1.213-1.214v-5.863a1.67,1.67,0,0,0-1.668-1.668h-.053a1.67,1.67,0,0,0-1.668,1.668v3a1.214,1.214,0,1,1-2.427,0v-3a4.1,4.1,0,0,1,4.1-4.1h.053a4.1,4.1,0,0,1,4.1,4.1v5.863A1.214,1.214,0,0,1,419.594,364.683Z" transform="translate(-406.782 -353.511)" fill="#fff"/>
    </g>
  </g>
  <g id="グループ_4165" data-name="グループ 4165">
    <g id="グループ_4164" data-name="グループ 4164" transform="translate(14.991 8.336)">
      <path id="パス_2823" data-name="パス 2823" d="M231.25,335.6a2.142,2.142,0,1,0-4.283,0v7.852a2.13,2.13,0,0,0,.567,1.444l3.716-3.59Z" transform="translate(-226.967 -333.459)" fill="#fff"/>
      <path id="パス_2824" data-name="パス 2824" d="M238.17,357.425h-5.756l-3.716,3.59a2.136,2.136,0,0,0,1.574.7c.025,0,.048,0,.073,0h7.779a2.148,2.148,0,0,0,2.142-2.141A2.109,2.109,0,0,0,238.17,357.425Z" transform="translate(-228.132 -349.578)" fill="#fff"/>
    </g>
    <circle id="楕円形_39" data-name="楕円形 39" cx="2.566" cy="2.566" r="2.566" transform="translate(14.446)" fill="#fff"/>
    <circle id="楕円形_40" data-name="楕円形 40" cx="2.566" cy="2.566" r="2.566" transform="translate(30.306 15.974)" fill="#fff"/>
    <path id="パス_2825" data-name="パス 2825" d="M198.572,349.488a17.39,17.39,0,0,1-8.816-32.379,2,2,0,1,1,2.033,3.449,13.386,13.386,0,1,0,18.346,18.286,2,2,0,0,1,3.456,2.022A17.465,17.465,0,0,1,198.572,349.488Z" transform="translate(-181.183 -313.939)" fill="#fff"/>
    <path id="パス_2826" data-name="パス 2826" d="M258.5,326.445a2,2,0,0,1-1.795-1.113,13.521,13.521,0,0,0-5.846-5.952,2,2,0,0,1,1.843-3.555,17.554,17.554,0,0,1,7.589,7.727,2,2,0,0,1-1.792,2.892Z" transform="translate(-227.319 -313.112)" fill="#fff"/>
  </g>
</svg>
