<svg class="logo" xmlns="http://www.w3.org/2000/svg" xmlns:xlink="http://www.w3.org/1999/xlink" width="110" height="24.439" viewBox="0 0 110 24.439">
  <defs>
    <linearGradient id="linear-gradient" x1="-2.516" y1="2.021" x2="2.055" y2="-0.424" gradientUnits="objectBoundingBox">
      <stop offset="0.001" stop-color="#6489c6"/>
      <stop offset="0.069" stop-color="#6b86c3"/>
      <stop offset="0.171" stop-color="#7f7fbc"/>
      <stop offset="0.295" stop-color="#a174b0"/>
      <stop offset="0.433" stop-color="#cf649f"/>
      <stop offset="0.5" stop-color="#e85c97"/>
      <stop offset="1" stop-color="#efb917"/>
    </linearGradient>
    <linearGradient id="linear-gradient-2" x1="-0.477" y1="4.513" x2="1.216" y2="-2.012" xlink:href="#linear-gradient"/>
    <linearGradient id="linear-gradient-3" x1="-2.964" y1="5.449" x2="0.851" y2="-0.001" xlink:href="#linear-gradient"/>
    <linearGradient id="linear-gradient-4" x1="-2.518" y1="4.812" x2="1.297" y2="-0.638" xlink:href="#linear-gradient"/>
    <linearGradient id="linear-gradient-5" x1="0.209" y1="0.93" x2="0.808" y2="0.074" xlink:href="#linear-gradient"/>
    <linearGradient id="linear-gradient-6" x1="-1.256" y1="2.98" x2="0.571" y2="0.4" xlink:href="#linear-gradient"/>
  </defs>
  <g id="logo-timetown" transform="translate(32.298 7.458)">
    <path d="M332.426,347.926H325.5a.834.834,0,1,1,0-1.669h6.928a.834.834,0,1,1,0,1.669Z" transform="translate(-324.663 -345.103)" fill="#3e3a39"/>
    <path d="M340.887,355.684a.834.834,0,0,1-.834-.834v-7.684a.834.834,0,1,1,1.669,0v7.684A.835.835,0,0,1,340.887,355.684Z" transform="translate(-336.589 -345.16)" fill="#3e3a39"/>
    <path d="M494.3,347.926h-6.929a.834.834,0,1,1,0-1.669H494.3a.834.834,0,0,1,0,1.669Z" transform="translate(-450.094 -345.103)" fill="#3e3a39"/>
    <path d="M502.756,355.684a.835.835,0,0,1-.834-.834v-7.684a.834.834,0,1,1,1.669,0v7.684A.834.834,0,0,1,502.756,355.684Z" transform="translate(-462.02 -345.16)" fill="#3e3a39"/>
    <g transform="translate(11.074)">
      <path d="M375.213,361.361a.834.834,0,0,1-.834-.834V354.3a.834.834,0,1,1,1.669,0v6.225A.835.835,0,0,1,375.213,361.361Z" transform="translate(-374.262 -350.69)" fill="#3e3a39"/>
      <circle cx="0.976" cy="0.976" r="0.976" fill="#3e3a39"/>
    </g>
    <path d="M532.928,359.984a3.909,3.909,0,1,1,3.909-3.909A3.914,3.914,0,0,1,532.928,359.984Zm0-6.149a2.24,2.24,0,1,0,2.24,2.24A2.243,2.243,0,0,0,532.928,353.835Z" transform="translate(-483.017 -349.682)" fill="#3e3a39"/>
    <path d="M452.462,360.423a3.3,3.3,0,0,1-.716-.077c-1.91-.424-2.961-1.855-2.961-4.029a3.533,3.533,0,1,1,7.065,0,.835.835,0,0,1-.842.834l-4.483-.043a1.882,1.882,0,0,0,1.583,1.608,2.007,2.007,0,0,0,1.885-.662.834.834,0,1,1,1.335,1A3.657,3.657,0,0,1,452.462,360.423Zm-1.79-4.982,3.306.031a1.863,1.863,0,0,0-3.306-.031Z" transform="translate(-420.844 -350.161)" fill="#3e3a39"/>
    <path d="M581.448,361.86a.834.834,0,0,1-.746-.461l-1.87-3.741-1.87,3.741a.835.835,0,0,1-.746.461h0a.835.835,0,0,1-.746-.461l-2.928-5.857a.834.834,0,0,1,1.493-.746l2.182,4.364,1.838-3.677a.815.815,0,0,1,.067-.133.836.836,0,0,1,1.421,0,.854.854,0,0,1,.059.114l1.848,3.7,2.182-4.364a.834.834,0,1,1,1.493.746l-2.928,5.857A.835.835,0,0,1,581.448,361.86Z" transform="translate(-516.674 -351.362)" fill="#3e3a39"/>
    <path d="M644.427,361.307a.835.835,0,0,1-.834-.834v-3.393a1.9,1.9,0,0,0-3.8,0v3.393a.834.834,0,1,1-1.669,0v-3.393a3.571,3.571,0,0,1,7.141,0v3.393A.835.835,0,0,1,644.427,361.307Z" transform="translate(-567.559 -350.724)" fill="#3e3a39"/>
    <g transform="translate(15.812 2.787)">
      <path d="M395.738,361.192a.835.835,0,0,1-.834-.834v-4.031a2.819,2.819,0,0,1,2.815-2.816h.037a2.819,2.819,0,0,1,2.815,2.816v2.061a.834.834,0,1,1-1.669,0v-2.061a1.148,1.148,0,0,0-1.146-1.147h-.037a1.148,1.148,0,0,0-1.147,1.147v4.031A.835.835,0,0,1,395.738,361.192Z" transform="translate(-394.904 -353.511)" fill="#3e3a39"/>
      <path d="M417.4,361.192a.834.834,0,0,1-.834-.834v-4.031a1.148,1.148,0,0,0-1.147-1.147h-.037a1.148,1.148,0,0,0-1.147,1.147v2.061a.834.834,0,1,1-1.669,0v-2.061a2.819,2.819,0,0,1,2.815-2.816h.037a2.819,2.819,0,0,1,2.815,2.816v4.031A.835.835,0,0,1,417.4,361.192Z" transform="translate(-408.589 -353.511)" fill="#3e3a39"/>
    </g>
  </g>
  <g id="グループ_4165" data-name="グループ 4165">
    <g id="グループ_4164" data-name="グループ 4164" transform="translate(10.306 5.731)">
      <path id="パス_2823" data-name="パス 2823" d="M229.912,334.931a1.472,1.472,0,1,0-2.945,0v5.4a1.465,1.465,0,0,0,.39.993l2.555-2.468Z" transform="translate(-226.967 -333.459)" fill="url(#linear-gradient)"/>
      <path id="パス_2824" data-name="パス 2824" d="M235.211,357.425h-3.957l-2.555,2.468a1.468,1.468,0,0,0,1.082.479l.05,0h5.348a1.477,1.477,0,0,0,1.472-1.472A1.45,1.45,0,0,0,235.211,357.425Z" transform="translate(-228.309 -352.03)" fill="url(#linear-gradient-2)"/>
    </g>
    <circle id="楕円形_39" data-name="楕円形 39" cx="1.764" cy="1.764" r="1.764" transform="translate(9.932)" fill="url(#linear-gradient-3)"/>
    <circle id="楕円形_40" data-name="楕円形 40" cx="1.764" cy="1.764" r="1.764" transform="translate(20.835 10.982)" fill="url(#linear-gradient-4)"/>
    <path id="パス_2825" data-name="パス 2825" d="M193.138,339.282a11.956,11.956,0,0,1-6.061-22.261,1.376,1.376,0,1,1,1.4,2.371,9.2,9.2,0,1,0,12.613,12.572,1.376,1.376,0,0,1,2.376,1.39A12.007,12.007,0,0,1,193.138,339.282Z" transform="translate(-181.183 -314.843)" fill="url(#linear-gradient-5)"/>
    <path id="パス_2826" data-name="パス 2826" d="M255.775,323.056a1.376,1.376,0,0,1-1.234-.765,9.3,9.3,0,0,0-4.019-4.092,1.376,1.376,0,0,1,1.267-2.444,12.068,12.068,0,0,1,5.218,5.312,1.377,1.377,0,0,1-1.232,1.988Z" transform="translate(-234.338 -313.89)" fill="url(#linear-gradient-6)"/>
  </g>
</svg>
