<svg xmlns="http://www.w3.org/2000/svg" width="31.048" height="7.328" viewBox="0 0 31.048 7.328">
  <path id="icon_mail-text" d="M3.3-2.448A5.121,5.121,0,0,1,4.84-2.712c.856,0,1.416.448,1.416,1.136a.822.822,0,0,1-.808.888.553.553,0,0,1-.5-.272,1.541,1.541,0,0,1-.112-.7,2.774,2.774,0,0,1,.016-.352,3.375,3.375,0,0,1-.888.352A2.673,2.673,0,0,0,4.1-.64,1.291,1.291,0,0,0,5.408.248,1.777,1.777,0,0,0,7.224-1.576,2.06,2.06,0,0,0,4.936-3.528,5.547,5.547,0,0,0,3.3-3.3v-1.04c.3-.032.464-.056.728-.1.552-.1.7-.12.848-.144l-.032-.9a8.922,8.922,0,0,1-1.544.3V-5.7a4.912,4.912,0,0,1,.048-.872h-1a5.481,5.481,0,0,1,.048.92v.528c-.088,0-.128,0-.32.008-.112.008-.2.008-.28.008a4.906,4.906,0,0,1-.968-.072l.008.9a1.5,1.5,0,0,1,.168-.008c.024,0,.1,0,.2.008s.32.008.44.008c.2,0,.312,0,.432-.008.264-.016.264-.016.328-.016l.008,1.232a4.28,4.28,0,0,0-1.168.68A1.707,1.707,0,0,0,.56-1.2,1.175,1.175,0,0,0,1-.3,2.492,2.492,0,0,0,2.512.272a.7.7,0,0,0,.736-.464,2.382,2.382,0,0,0,.064-.68Zm-.9,1.456c0,.264-.04.336-.176.336A.962.962,0,0,1,1.72-.832c-.184-.112-.264-.232-.264-.368,0-.288.352-.64.952-.96ZM7.576-4.368a6.785,6.785,0,0,0-1.584-1.64l-.752.5a6.832,6.832,0,0,1,1.6,1.728Zm1.936.624h1.44c.264,0,.544.008.736.024-.016-.176-.024-.36-.024-.72V-5.76c0-.312.008-.5.024-.752a6.759,6.759,0,0,1-.816.032H9.456a7.473,7.473,0,0,1-.816-.032,8.945,8.945,0,0,1,.032.9v5.24a7.152,7.152,0,0,1-.048.992H9.56A6.862,6.862,0,0,1,9.512-.36Zm0-2.08H10.88v.416H9.512Zm0,1.032H10.88v.424H9.512Zm5.848-.824a7.045,7.045,0,0,1,.04-.9,7.636,7.636,0,0,1-.824.032h-1.52a7.2,7.2,0,0,1-.816-.032c.016.232.024.448.024.752v1.32c0,.344-.008.5-.016.72.176-.016.464-.024.728-.024H14.52V-.472c0,.176-.04.208-.264.208a9.344,9.344,0,0,1-.984-.072A2.793,2.793,0,0,1,13.5.512c.528.032.616.032.744.032a1.631,1.631,0,0,0,.84-.128c.208-.128.28-.336.28-.776Zm-2.3-.208H14.52v.416H13.056Zm0,1.032H14.52v.424H13.056Zm.5,2.152a5.278,5.278,0,0,1,.024-.552c-.168.016-.368.024-.616.024H10.992c-.232,0-.416-.008-.592-.024.016.168.024.344.024.56V-.92a7.13,7.13,0,0,1-.04.776h.848V-.68h1.784c.232,0,.4.008.568.024A5.009,5.009,0,0,1,13.56-1.2Zm-2.328.184h1.52v1.048h-1.52ZM17.944-3.52a6.023,6.023,0,0,1,.688-.032h2.736a5.824,5.824,0,0,1,.72.032v-.56a7.775,7.775,0,0,0,1.3.7,4.307,4.307,0,0,1,.44-.88,7.522,7.522,0,0,1-2.04-1.1A5.227,5.227,0,0,1,20.448-6.7H19.5A5.587,5.587,0,0,1,18.24-5.368,7.993,7.993,0,0,1,16.2-4.216a3.1,3.1,0,0,1,.464.816,8.144,8.144,0,0,0,1.28-.672Zm.7-.864h-.224a5.6,5.6,0,0,0,1.568-1.56,7.308,7.308,0,0,0,1.648,1.56H18.64ZM18.248.608V.2h3.5V.608H22.7a5,5,0,0,1-.048-.84V-2.1a5.453,5.453,0,0,1,.04-.792,5.248,5.248,0,0,1-.7.032h-4A5.038,5.038,0,0,1,17.3-2.9a7.223,7.223,0,0,1,.04.792V-.24A6.4,6.4,0,0,1,17.3.608Zm0-2.7h3.5v1.5h-3.5Zm12.608,1.04a6.506,6.506,0,0,1-2.312.3c-1.3,0-1.648-.168-1.712-.84-.016-.16-.04-1.032-.04-1.448V-3.2c.008-.424.008-.424.008-.464V-3.88c1.112-.064,1.112-.064,2.328-.112a6.894,6.894,0,0,1-.072,1c-.048.312-.136.416-.344.416a2.481,2.481,0,0,1-1.048-.392,4.259,4.259,0,0,1,.056.656c0,.112,0,.16-.008.32a2.622,2.622,0,0,0,1.144.272.975.975,0,0,0,.976-.6,5.115,5.115,0,0,0,.208-1.7c.376,0,.832-.008,1.112-.008A2.8,2.8,0,0,1,31.608-4l-.016-.952a15.427,15.427,0,0,1-1.552.072v-1a3.646,3.646,0,0,1,.04-.552h-1a8.652,8.652,0,0,1,.048,1.584c-1.192.056-1.192.056-2.312.112a9.32,9.32,0,0,1,.072-1.56H25.816a7.894,7.894,0,0,1,.056,1.36c0,.048,0,.12-.008.248-.792.048-1.232.072-1.3.072-.04,0-.12,0-.232-.008l.064.936a10.926,10.926,0,0,1,1.48-.144c-.008.624-.008.656-.008.776a7.92,7.92,0,0,0,.144,2.184C26.248-.1,26.9.184,28.392.184c.528,0,1.584-.056,2.168-.12.272-.032.272-.032.36-.04Z" transform="translate(-0.56 6.704)" fill="#599d3b"/>
</svg>
