<svg height="19.821" viewBox="0 0 24 19.821" width="24" xmlns="http://www.w3.org/2000/svg"><g fill="#fff" transform="translate(0 -44.576)"><path d="m78.311 130.491v-3.738l-2.007.359v1.538h-3.624v-1.538l-2.007-.359v3.738h-2.384l-2.723 5.959v5.35a.884.884 0 0 0 .839.922h16.175a.884.884 0 0 0 .839-.922v-5.351l-2.757-5.959zm-3.819 9.563a3.39 3.39 0 1 1 3.39-3.39 3.39 3.39 0 0 1 -3.389 3.389z" transform="translate(-62.493 -78.325)"/><path d="m20.345 45.79a27.405 27.405 0 0 0 -8.345-1.214 27.8 27.8 0 0 0 -8.345 1.214c-1.826.775-3.655 2.51-3.655 4.551a2.932 2.932 0 0 0 .692 1.939h3.885c.231 0 .738-1 .738-1.414a6.1 6.1 0 0 0 -.382-1.724c.022-.5.219-.859 1.027-1.206 1.465-.63 4.688-.658 6.04-.658s4.574.028 6.04.658c.808.347 1.005.71 1.027 1.206a6.1 6.1 0 0 0 -.382 1.724c0 .41.506 1.414.738 1.414h3.886a2.932 2.932 0 0 0 .691-1.939c0-2.041-1.829-3.776-3.655-4.551z"/></g></svg>