<!--?xml version="1.0" encoding="utf-8"?-->
<!-- Generator: Adobe Illustrator 18.1.1, SVG Export Plug-In . SVG Version: 6.00 Build 0)  -->

<svg version="1.1" id="_x32_" xmlns="http://www.w3.org/2000/svg" xmlns:xlink="http://www.w3.org/1999/xlink" x="0px" y="0px" viewBox="0 0 512 512" style="width: 48px; height: 48px; opacity: 1;" xml:space="preserve">
<style type="text/css">
	.st0{fill:#4B4B4B;}
</style>
<g>
	<path class="st0" d="M326.27,86.016l57.668,15.304c1.504,0.307,2.726,1.536,3.072,3.049l15.203,57.667
		c0.41,1.693,1.898,2.883,3.631,2.883c1.749,0,3.222-1.19,3.615-2.883l15.226-57.667c0.324-1.512,1.552-2.742,3.056-3.049
		l57.675-15.304c1.686-0.316,2.883-1.82,2.883-3.553c0-1.749-1.197-3.222-2.883-3.56l-57.675-15.296
		c-1.504-0.323-2.733-1.536-3.056-3.049L409.458,2.891C409.065,1.213,407.592,0,405.843,0c-1.734,0-3.222,1.213-3.631,2.891
		l-15.203,57.667c-0.346,1.512-1.567,2.726-3.072,3.049L326.27,78.903c-1.701,0.339-2.883,1.812-2.883,3.56
		C323.387,84.196,324.569,85.701,326.27,86.016z" style="fill: rgb(255, 255, 255);"></path>
	<path class="st0" d="M421.006,317.432l-26.176-6.939c-0.685-0.158-1.245-0.694-1.394-1.386l-6.9-26.175
		c-0.181-0.765-0.85-1.308-1.646-1.308c-0.78,0-1.457,0.544-1.646,1.308l-6.9,26.175c-0.158,0.693-0.709,1.228-1.395,1.386
		l-26.167,6.939c-0.772,0.15-1.316,0.827-1.316,1.615c0,0.788,0.544,1.465,1.316,1.623l26.167,6.931
		c0.686,0.142,1.237,0.709,1.395,1.403l6.9,26.158c0.19,0.765,0.866,1.308,1.646,1.308c0.796,0,1.465-0.543,1.646-1.308l6.9-26.158
		c0.149-0.694,0.709-1.261,1.394-1.403l26.176-6.931c0.756-0.158,1.308-0.835,1.308-1.623
		C422.314,318.259,421.762,317.582,421.006,317.432z" style="fill: rgb(255, 255, 255);"></path>
	<path class="st0" d="M37.841,140.075l41.204,10.917c1.087,0.229,1.946,1.104,2.206,2.19l10.854,41.204
		c0.3,1.221,1.362,2.064,2.6,2.064c1.244,0,2.3-0.843,2.592-2.064l10.862-41.204c0.229-1.086,1.119-1.961,2.198-2.19l41.212-10.917
		c1.205-0.252,2.063-1.339,2.063-2.568c0-1.229-0.858-2.284-2.063-2.536l-41.212-10.934c-1.079-0.236-1.969-1.086-2.198-2.174
		L97.297,80.636c-0.292-1.198-1.347-2.048-2.592-2.048c-1.238,0-2.3,0.85-2.6,2.048l-10.854,41.228
		c-0.26,1.087-1.119,1.937-2.206,2.174l-41.204,10.934c-1.229,0.252-2.072,1.307-2.072,2.536
		C35.769,138.736,36.612,139.824,37.841,140.075z" style="fill: rgb(255, 255, 255);"></path>
	<polygon class="st0" points="323.513,316.353 281.151,315.786 280.017,299.882 321.851,300.576 319.378,280.246 289.579,279.575 
		318.125,230.266 285.184,229.1 260.041,269.666 234.914,229.1 201.965,230.266 230.511,279.575 200.712,280.246 198.247,300.576 
		240.089,299.882 238.939,315.786 196.576,316.353 193.938,338.062 237.135,337.739 234.717,367.112 238.474,367.112 
		259.167,367.112 260.923,367.112 281.616,367.112 285.381,367.112 282.963,337.739 326.16,338.062 	" style="fill: rgb(255, 255, 255);"></polygon>
	<path class="st0" d="M485.911,271.966c-3.402-8.208-8.058-15.84-13.674-22.89c-5.616-7.042-12.185-13.517-19.495-19.472
		l-0.448-0.362l0.433,0.362c-21.961-17.849-50.861-31.492-84.338-41.07h-0.008c-33.508-9.523-71.735-14.84-112.38-14.84
		c-30.972,0-60.526,3.088-87.67,8.767c-27.144,5.68-51.877,13.95-73.208,24.489l-0.015,0.008
		c-21.307,10.571-39.424,23.442-52.87,39.141l0.244-0.3l-0.252,0.3c-6.711,7.861-12.256,16.486-16.14,25.867
		c-3.891,9.389-6.058,19.511-6.05,29.932v81.873c-0.008,10.43,2.158,20.559,6.05,29.948c3.403,8.208,8.058,15.832,13.674,22.882
		c5.624,7.05,12.186,13.517,19.496,19.472l0.016,0.008c21.96,17.833,50.854,31.507,84.331,41.07l0.071,0.016l2.182,0.614
		l-2.072-0.591C177.254,506.683,215.419,511.992,256,512h0.008c30.965-0.008,60.518-3.096,87.663-8.775
		c27.144-5.68,51.877-13.958,73.207-24.49l0.016-0.015c21.307-10.572,39.416-23.45,52.87-39.133l0.008-0.015
		c6.711-7.846,12.248-16.462,16.132-25.852l-0.244,0.575l0.252-0.575c3.884-9.39,6.05-19.519,6.05-29.948v-81.873
		C491.961,291.477,489.795,281.355,485.911,271.966z M72.838,426.409c-2.481-2.339-4.797-4.718-6.861-7.121
		c-4.891-5.734-8.562-11.602-11.012-17.51c-2.45-5.923-3.679-11.886-3.679-18.006v-37.116c4.782,5.9,10.429,11.469,16.818,16.684
		c1.536,1.236,3.112,2.458,4.734,3.671V426.409z M118.083,454.932c-3.111-1.355-6.176-2.742-9.114-4.206
		c-6.845-3.387-13.147-7.003-18.897-10.775v-61.676c8.578,4.923,17.952,9.436,28.011,13.501V454.932z M174.112,472.505
		c-14.194-3.002-27.514-6.759-39.794-11.146h1.016v-63.291c3.946,1.307,7.995,2.544,12.122,3.726
		c8.539,2.426,17.456,4.552,26.656,6.404V472.505z M247.375,480.657c-19.519-0.394-38.282-2.174-56.02-5.041v-64.401
		c17.841,2.757,36.604,4.371,56.02,4.75V480.657z M322.805,475.23c-18.369,3.064-37.857,4.986-58.179,5.38v-64.607
		c20.196-0.394,39.707-2.15,58.179-5.081V475.23z M378.833,460.965c-6.081,2.206-12.414,4.254-19.007,6.128
		c-6.365,1.812-12.997,3.426-19.786,4.907v-64.228c13.651-2.82,26.631-6.333,38.793-10.436V460.965z M424.086,438.484
		c-8.16,5.593-17.55,10.792-28.018,15.517v-63.125c5.041-2.088,9.932-4.278,14.604-6.585c4.671-2.324,9.137-4.758,13.414-7.279
		V438.484z M460.713,383.771c0,6.12-1.228,12.084-3.686,18.006c-3.15,7.657-8.436,15.274-15.707,22.576v-58.242h-1.024
		c7.152-5.459,13.493-11.28,18.825-17.51c0.544-0.638,1.064-1.284,1.592-1.93V383.771z M457.027,319.89
		c-4.254,10.334-12.366,20.59-24.024,30.082c-17.448,14.241-42.756,26.593-73.177,35.233
		c-30.413,8.665-65.922,13.667-103.826,13.667c-57.745,0.024-109.977-11.658-147.03-30.035c-18.527-9.16-33.21-19.967-42.993-31.444
		c-4.891-5.726-8.562-11.595-11.012-17.502c-2.45-5.924-3.679-11.879-3.679-17.991s1.229-12.067,3.679-17.99
		c4.27-10.343,12.367-20.599,24.032-30.075c17.456-14.25,42.756-26.608,73.177-35.249c30.413-8.656,65.93-13.651,103.825-13.651
		c57.746-0.032,109.97,11.658,147.023,30.027c18.534,9.153,33.225,19.976,42.992,31.437c4.9,5.726,8.57,11.595,11.012,17.51
		c2.458,5.923,3.686,11.878,3.686,17.99S459.485,313.966,457.027,319.89z" style="fill: rgb(255, 255, 255);"></path>
</g>
</svg>
