<svg height="7.168" viewBox="0 0 22.856 7.168" width="22.856" xmlns="http://www.w3.org/2000/svg"><path d="m-9.416-5.784v.424h-1.232v-.424zm-1.232 1.52v-.456h1.232v.456zm2.12.68v-2.888h-3.064v7.172h.944v-4.28zm2.272 1.544v-.768h-1.044v-.616h-.86v.616h-2.04v.768h1.616a5.4 5.4 0 0 1 -1.888 1.384 4.014 4.014 0 0 1 .592.68 6.5 6.5 0 0 0 1.72-1.424v1.04c0 .088-.032.112-.128.112s-.392 0-.688-.008a3.29 3.29 0 0 1 .276.784 2.43 2.43 0 0 0 1.068-.144c.264-.12.332-.344.332-.728v-1.7zm-.816-2.208v-.472h1.272v.472zm1.272-1.536v.424h-1.272v-.424zm.96-.688h-3.136v2.9h2.176v3.116c0 .144-.056.192-.208.192s-.7.016-1.16-.016a3.673 3.673 0 0 1 .32.98 3.953 3.953 0 0 0 1.568-.188c.328-.152.44-.424.44-.952zm5.752.816-.7.3a8.052 8.052 0 0 1 .736 1.3l.712-.312a12.887 12.887 0 0 0 -.748-1.288zm1.072-.444-.688.32a8.37 8.37 0 0 1 .768 1.28l.7-.336a11.284 11.284 0 0 0 -.78-1.264zm-3.136-.2-1.288-.012a5.59 5.59 0 0 1 .1 1.08c0 .688-.072 2.792-.072 3.864 0 1.36.84 1.936 2.152 1.936a4.165 4.165 0 0 0 3.48-1.832l-.728-.888a3.218 3.218 0 0 1 -2.74 1.64.973.973 0 0 1 -1.112-1.072c0-1 .064-2.784.1-3.648.02-.32.06-.728.108-1.068zm8.512 5.356c0-.2.192-.384.5-.384.432 0 .728.336.776.856a4.177 4.177 0 0 1 -.464.024c-.484 0-.812-.2-.812-.496zm-1.36-5.156.032 1.04c.184-.024.44-.048.656-.064.424-.024 1.528-.072 1.936-.08-.392.348-1.224 1.02-1.672 1.388-.472.392-1.44 1.208-2.008 1.664l.728.752a3.724 3.724 0 0 1 2.88-1.624c.944 0 1.664.488 1.664 1.208a1.159 1.159 0 0 1 -.664 1.088 1.6 1.6 0 0 0 -1.704-1.372 1.34 1.34 0 0 0 -1.432 1.252c0 .8.84 1.312 1.952 1.312 1.936 0 2.9-1 2.9-2.264a2.169 2.169 0 0 0 -2.396-2.016 3.125 3.125 0 0 0 -.76.088c.5-.4 1.344-1.1 1.776-1.408.184-.136.376-.248.56-.368l-.52-.712a3.5 3.5 0 0 1 -.608.088c-.456.04-2.168.072-2.592.072a5.552 5.552 0 0 1 -.728-.044z" fill="#fff" transform="translate(11.592 6.472)"/></svg>