<svg height="17.507" viewBox="0 0 22 17.507" width="22" xmlns="http://www.w3.org/2000/svg"><path d="m3.012 6.06a1.222 1.222 0 0 1 1.222-1.222h19.544a1.222 1.222 0 0 1 1.222 1.222v13.84a2.444 2.444 0 0 1 -2.444 2.444h-17.112a2.444 2.444 0 0 1 -2.444-2.444v-13.444a1.232 1.232 0 0 1 .012-.171zm2.432 2.718v11.122h17.112v-11.122l-5.963 5.963a3.667 3.667 0 0 1 -5.185 0zm1.922-1.535h13.268l-5.77 5.77a1.222 1.222 0 0 1 -1.728 0z" fill="#599d3b" fill-rule="evenodd" transform="translate(-3 -4.838)"/></svg>