<svg xmlns="http://www.w3.org/2000/svg" width="30.824" height="6.704" viewBox="0 0 30.824 6.704">
  <path id="icon_menu-text" d="M5.384-6.408A9.778,9.778,0,0,1,4.256-3.832c-.064-.04-.064-.04-.664-.472-.392-.28-.736-.5-1.32-.848l-.7.7a14.342,14.342,0,0,1,2.12,1.44A8.148,8.148,0,0,1,2.672-1.92,8.141,8.141,0,0,1,.6-.536,2.479,2.479,0,0,1,1.3.3a10.158,10.158,0,0,0,1.9-1.32A9.174,9.174,0,0,0,4.456-2.36,11.9,11.9,0,0,1,6.08-.672L6.848-1.5a19.183,19.183,0,0,0-1.784-1.7A13.322,13.322,0,0,0,6.192-5.456a4.886,4.886,0,0,1,.28-.576Zm4.1,1.936a6.9,6.9,0,0,1,.936-.04h3.16a6.9,6.9,0,0,1,.936.04V-5.528a4.976,4.976,0,0,1-.944.056H10.424a4.976,4.976,0,0,1-.944-.056ZM8.672-.56A7.927,7.927,0,0,1,9.68-.6H14.3a7.927,7.927,0,0,1,1.008.04V-1.632a5.583,5.583,0,0,1-1.024.056H9.7a5.583,5.583,0,0,1-1.024-.056ZM21.232-.7c.136-.72.224-1.288.344-2.168a2.879,2.879,0,0,1,.184-.912l-.44-.384a1.785,1.785,0,0,1-.592.072H18.7a4.573,4.573,0,0,1-.736-.048v.9a5.138,5.138,0,0,1,.712-.032h1.984c-.08.728-.248,1.856-.384,2.568H17.92a3.613,3.613,0,0,1-.736-.048V.16A5.945,5.945,0,0,1,17.92.128h4.152a6.113,6.113,0,0,1,.736.032V-.752a3.567,3.567,0,0,1-.736.048Zm3.336-1.808a8.782,8.782,0,0,1,1.3-.04H30.12a8.782,8.782,0,0,1,1.3.04V-3.624a7.856,7.856,0,0,1-1.3.056H25.864a7.856,7.856,0,0,1-1.3-.056Z" transform="translate(-0.6 6.408)" fill="#fff"/>
</svg>
