<svg height="10.736" viewBox="0 0 13 10.736" width="13" xmlns="http://www.w3.org/2000/svg"><g fill="#333"><path d="m72.47 128.778v-2.025l-1.087.194v.833h-1.963v-.833l-1.087-.194v2.025h-1.292l-1.475 3.228v2.9a.479.479 0 0 0 .454.5h8.761a.479.479 0 0 0 .455-.5v-2.9l-1.493-3.228zm-2.069 5.18a1.836 1.836 0 1 1 1.836-1.836 1.836 1.836 0 0 1 -1.837 1.835z" transform="translate(-63.901 -124.666)"/><path d="m11.02 45.234a14.845 14.845 0 0 0 -4.52-.658 15.057 15.057 0 0 0 -4.52.658 3 3 0 0 0 -1.98 2.466 1.588 1.588 0 0 0 .375 1.05h2.1c.125 0 .4-.544.4-.766a3.305 3.305 0 0 0 -.207-.934c.012-.269.119-.465.557-.653a10.914 10.914 0 0 1 3.275-.358 10.915 10.915 0 0 1 3.271.357c.438.188.545.385.557.653a3.305 3.305 0 0 0 -.207.934c0 .222.274.766.4.766h2.1a1.588 1.588 0 0 0 .379-1.049 3 3 0 0 0 -1.98-2.466z" transform="translate(0 -44.576)"/></g></svg>