<svg xmlns="http://www.w3.org/2000/svg" xmlns:xlink="http://www.w3.org/1999/xlink" width="58" height="58" viewBox="0 0 58 58">
  <defs>
    <filter id="楕円形_39" x="0" y="0" width="58" height="58" filterUnits="userSpaceOnUse">
      <feOffset dy="2" input="SourceAlpha"/>
      <feGaussianBlur stdDeviation="3" result="blur"/>
      <feFlood flood-color="#333" flood-opacity="0.102"/>
      <feComposite operator="in" in2="blur"/>
      <feComposite in="SourceGraphic"/>
    </filter>
  </defs>
  <g id="Icon_Back-to-top" data-name="Icon / Back-to-top" transform="translate(9 7)">
    <g transform="matrix(1, 0, 0, 1, -9, -7)" filter="url(#楕円形_39)">
      <g id="楕円形_39-2" data-name="楕円形 39" transform="translate(9 7)" fill="#599d3b" stroke="#fff" stroke-width="1">
        <circle cx="20" cy="20" r="20" stroke="none"/>
        <circle cx="20" cy="20" r="19.5" fill="none"/>
      </g>
    </g>
    <g id="icon_chevron-up" transform="translate(13 15.752)">
      <path id="Icon_awesome-chevron-up" data-name="Icon awesome-chevron-up" d="M7.942,8.909l6.231,6.231a.769.769,0,0,1,0,1.088l-.727.727a.769.769,0,0,1-1.087,0L7.4,12.017,2.437,16.955a.769.769,0,0,1-1.087,0l-.727-.727a.769.769,0,0,1,0-1.088L6.854,8.909A.769.769,0,0,1,7.942,8.909Z" transform="translate(-0.398 -8.683)" fill="#fff"/>
    </g>
  </g>
</svg>
