<svg height="36.749" viewBox="0 0 134 36.749" width="134" xmlns="http://www.w3.org/2000/svg"><path d="m0 0h134v36.749h-134z" fill="none"/><g fill="#333"><path d="m51.525 78.034c-2.979 0-5.416-.812-6.866-2.263a5.524 5.524 0 0 1 -1.567-4.158c.019-3.095 1.992-5.029 3.81-6.383a39.078 39.078 0 0 1 -3.752-6.5.424.424 0 0 1 .058-.426 7.15 7.15 0 0 1 2.437-1.586.287.287 0 0 1 .135-.019.4.4 0 0 1 .367.251 29.877 29.877 0 0 0 3.5 6.421c.716-.445 1.47-.909 2.2-1.373 1.451-.89 2.824-1.741 3.6-2.3.716-.5 1.451-1.083 1.837-1.412a.407.407 0 0 1 .251-.1h.019a.406.406 0 0 1 .271.135 9.275 9.275 0 0 1 1.431 2.456.359.359 0 0 1 -.116.426c-.542.464-3.075 1.954-5.532 3.4-.542.329-1.064.638-1.547.909-.019.135-.039.251-.058.387-.058.445-.116.89-.155 1.238a.4.4 0 0 1 -.213.309 7.432 7.432 0 0 1 -1.876.58h-.058a.327.327 0 0 1 -.193-.058 3.228 3.228 0 0 1 -.619-.464 4.912 4.912 0 0 0 -2.412 3.796 2.655 2.655 0 0 0 .793 2.05 5.98 5.98 0 0 0 4.255 1.277 16.323 16.323 0 0 0 6.6-1.238.6.6 0 0 1 .155-.039.565.565 0 0 1 .174.039.5.5 0 0 1 .213.271 6.91 6.91 0 0 1 -.193 3.172.365.365 0 0 1 -.232.213 20.89 20.89 0 0 1 -6.717.989z" transform="translate(-34.524 -47.667)"/><path d="m192.463 73.965c-2.727 0-5.648-1.373-5.648-4.391 0-2.282 2.4-3.926 5.725-3.926.484 0 .909.019 1.3.058a55.217 55.217 0 0 1 -.155-5.725.4.4 0 0 1 .29-.348 6.449 6.449 0 0 1 1.547-.155 10.292 10.292 0 0 1 1.161.077.4.4 0 0 1 .329.426 20.669 20.669 0 0 0 -.116 2.979v.426c0 .484.058 1.3.116 2.166l.058.812a16.907 16.907 0 0 1 4.893 2.553.413.413 0 0 1 .155.329 4.084 4.084 0 0 1 -1.315 2.785.372.372 0 0 1 -.232.077.382.382 0 0 1 -.271-.116 12.229 12.229 0 0 0 -3.056-2.244v.058c-.044 1.239-.506 4.159-4.781 4.159zm-.116-5.454c-1.141 0-2.36.29-2.36 1.122 0 .619.754 1.238 2.186 1.238 1.547 0 1.8-.658 1.8-2.108v-.135c-.6-.059-1.123-.117-1.626-.117zm-9.284.812a.174.174 0 0 1 -.1-.019 6.18 6.18 0 0 1 -2.572-1.451.379.379 0 0 1 -.019-.484 40.259 40.259 0 0 0 4.565-9.187c-.754.039-1.528.077-2.34.077h-.909a.4.4 0 0 1 -.329-.193 5.934 5.934 0 0 1 -.6-2.689.378.378 0 0 1 .135-.29.407.407 0 0 1 .251-.1h.077a14.38 14.38 0 0 0 2.3.193c.832 0 1.605-.019 2.34-.077.1-.387.174-.793.251-1.2a22.348 22.348 0 0 0 .271-2.34.338.338 0 0 1 .135-.271.407.407 0 0 1 .251-.1h.039a8.2 8.2 0 0 1 2.8.754.389.389 0 0 1 .213.406c-.1.638-.251 1.373-.464 2.321a17.1 17.1 0 0 0 3.249-1.006.364.364 0 0 1 .155-.039.4.4 0 0 1 .329.193 5.415 5.415 0 0 1 .464 2.476.382.382 0 0 1 -.232.348 20.351 20.351 0 0 1 -4.835 1.2 53.959 53.959 0 0 1 -5.048 11.3.583.583 0 0 1 -.377.178zm18.2-9.149a.394.394 0 0 1 -.29-.116 17.826 17.826 0 0 0 -5.551-3.617.4.4 0 0 1 -.232-.484 6.594 6.594 0 0 1 1.2-2.108.394.394 0 0 1 .29-.116.426.426 0 0 1 .155.019 22.581 22.581 0 0 1 5.938 3.6.368.368 0 0 1 .1.367 5.528 5.528 0 0 1 -1.335 2.34.392.392 0 0 1 -.271.116z" transform="translate(-145.193 -43.231)"/><path d="m362.515 74.217a.565.565 0 0 1 -.174-.039 5.685 5.685 0 0 1 -2.224-2.4.332.332 0 0 1 0-.329.5.5 0 0 1 .271-.213c4.758-1.044 7.272-4.313 7.272-9.4 0-3.675-1.18-5.88-3.153-5.88-2.36 0-3.752 3.23-4.1 6.421v.023a13.916 13.916 0 0 0 -.155 3.423.38.38 0 0 1 -.309.406 5.567 5.567 0 0 1 -1.064.077 7.338 7.338 0 0 1 -1.741-.193.417.417 0 0 1 -.29-.348c-.077-1.277-.1-3.4-.077-4.661.019-1.663.232-4.081.387-5.841.058-.619.1-1.122.116-1.489 0-.251.019-.522.039-.793.019-.522.039-1.006.039-1.393a.388.388 0 0 1 .387-.387 17.931 17.931 0 0 1 2.882.251.371.371 0 0 1 .29.464c-.135.619-.484 2.36-.677 4a5.743 5.743 0 0 1 4.642-2.979c2.882 0 6.247 2.321 6.247 8.839 0 6.228-3 10.638-8.472 12.417a.378.378 0 0 1 -.136.024z" transform="translate(-287.528 -43.231)"/><path d="m495.068 80.912a.382.382 0 0 1 -.271-.116 7.553 7.553 0 0 1 -1.567-2.766.482.482 0 0 1 .058-.329.367.367 0 0 1 .29-.155 12.179 12.179 0 0 0 2.166-.309c1.451-.329 4.855-1.663 4.855-6.731a6.378 6.378 0 0 0 -6.131-6.634 48.343 48.343 0 0 1 -.986 7c-1.373 5.8-3.365 8.491-6.286 8.491-2.863 0-5.4-3.656-5.4-7.814 0-6.189 5.029-10.851 11.682-10.851 6.247 0 10.6 4.042 10.6 9.826 0 5.725-3.269 9.516-8.955 10.387zm-3.984-16.827a7.661 7.661 0 0 0 -5.977 7.234c0 2.843 1.373 4.275 2.147 4.275.619 0 1.837-.716 2.959-5.435a35.626 35.626 0 0 0 .871-6.074z" transform="translate(-388.38 -50.894)"/><path d="m628.992 23.4a6.7 6.7 0 1 1 6.712-6.692 6.7 6.7 0 0 1 -6.712 6.692zm0-12.359a5.648 5.648 0 1 0 5.648 5.648 5.654 5.654 0 0 0 -5.648-5.645z" transform="translate(-501.704 -10)"/><path d="m646.3 30.1h2.592a2.344 2.344 0 0 1 1.044.193 1.363 1.363 0 0 1 .793 1.335 1.512 1.512 0 0 1 -.213.832 1.528 1.528 0 0 1 -.58.522 1.446 1.446 0 0 1 .5.348 1.32 1.32 0 0 1 .193.716l.019.754a1.482 1.482 0 0 0 .058.484.492.492 0 0 0 .251.348v.135h-.948c-.019-.058-.039-.116-.058-.193s-.019-.232-.039-.445l-.039-.948a.833.833 0 0 0 -.406-.754 1.512 1.512 0 0 0 -.677-.1h-1.7v2.437h-.774zm2.514 2.592a1.467 1.467 0 0 0 .832-.213.858.858 0 0 0 .309-.774.847.847 0 0 0 -.426-.832 1.356 1.356 0 0 0 -.619-.116h-1.818v1.934z" transform="translate(-521.062 -26.212)"/></g></svg>