<?xml version="1.0" encoding="utf-8"?>
<!-- Generator: Adobe Illustrator 25.4.1, SVG Export Plug-In . SVG Version: 6.00 Build 0)  -->
<svg version="1.1" id="レイヤー_1" xmlns="http://www.w3.org/2000/svg" xmlns:xlink="http://www.w3.org/1999/xlink" x="0px"
	 y="0px" viewBox="0 0 130 42" style="enable-background:new 0 0 130 42;" xml:space="preserve">
<style type="text/css">
	.st0{fill:#333333;}
	.st1{enable-background:new    ;}
	.st2{clip-path:url(#SVGID_00000014605144846543667320000018353217516019161247_);}
	.st3{fill:#FFEC86;}
	.st4{fill:#FFDA59;}
	.st5{fill:#FFC72D;}
	.st6{fill:#FFB500;}
	.st7{fill:#FFFFFF;}
	.st8{fill:#3C3C3C;}
</style>
<g id="グループ_4178" transform="translate(5 8.469)">
	<g id="グループ_4173" transform="translate(0 0.081)">
		<g id="グループ_4169" transform="translate(0 0.651)">
			<path id="パス_2806" class="st0" d="M47.4,32.2c-1.5,0.1-3.1-0.4-4.2-1.4c-0.7-0.7-1-1.6-1-2.6c0.1-1.6,1-3.1,2.4-3.9
				c-0.9-1.3-1.7-2.6-2.3-4c0-0.1,0-0.2,0-0.3c0.4-0.4,0.9-0.8,1.5-1c0.1,0,0.3,0,0.3,0.1c0.6,1.4,1.3,2.7,2.2,4
				c0.4-0.3,0.9-0.6,1.4-0.8c0.9-0.6,1.7-1.1,2.2-1.4c0.4-0.3,0.9-0.7,1.1-0.9c0,0,0.1-0.1,0.2-0.1h0c0.1,0,0.1,0,0.2,0.1
				c0.4,0.5,0.7,1,0.9,1.5c0,0.1,0,0.2-0.1,0.3c-0.3,0.3-1.9,1.2-3.4,2.1l-1,0.6c0,0.1,0,0.2,0,0.2c0,0.3-0.1,0.5-0.1,0.8
				c0,0.1-0.1,0.2-0.1,0.2c-0.4,0.2-0.8,0.3-1.2,0.4c0,0,0,0,0,0c0,0-0.1,0-0.1,0c-0.1-0.1-0.3-0.2-0.4-0.3
				c-0.8,0.5-1.4,1.4-1.5,2.3c0,0.5,0.2,0.9,0.5,1.3c0.7,0.6,1.7,0.9,2.6,0.8c1.4,0,2.8-0.2,4.1-0.8c0.1-0.1,0.3,0,0.3,0.1
				c0,0,0,0,0,0.1c0.1,0.7,0.1,1.3-0.1,2c0,0.1-0.1,0.1-0.1,0.1C50.2,32,48.8,32.2,47.4,32.2z"/>
		</g>
		<g id="グループ_4170" transform="translate(16.354)">
			<path id="パス_2807" class="st0" d="M49.7,33.1c-1.7,0-3.5-0.8-3.5-2.7c0-1.4,1.5-2.4,3.5-2.4c0.3,0,0.6,0,0.8,0
				c-0.1-1.2-0.1-2.4-0.1-3.5c0-0.1,0.1-0.2,0.2-0.2c0.3-0.1,0.6-0.1,0.9-0.1c0.2,0,0.5,0,0.7,0c0.1,0,0.2,0.1,0.2,0.3
				c-0.1,0.6-0.1,1.2-0.1,1.8v0.3c0,0.3,0,0.8,0.1,1.3c0,0.2,0,0.3,0,0.5c1.1,0.4,2.1,0.9,3,1.6c0.1,0,0.1,0.1,0.1,0.2
				c0,0.7-0.3,1.3-0.8,1.7c-0.1,0.1-0.2,0.1-0.3,0c-0.6-0.6-1.2-1-1.9-1.4v0C52.6,31.3,52.3,33.1,49.7,33.1z M49.6,29.7
				c-0.7,0-1.5,0.2-1.5,0.7c0,0.4,0.5,0.8,1.3,0.8c0.9,0,1.1-0.4,1.1-1.3v-0.1C50.3,29.8,50,29.7,49.6,29.7L49.6,29.7z M43.9,30.2
				C43.9,30.2,43.9,30.2,43.9,30.2c-0.7-0.2-1.2-0.5-1.6-0.9c-0.1-0.1-0.1-0.2,0-0.3c1.2-1.8,2.1-3.7,2.8-5.7c-0.5,0-0.9,0-1.4,0
				c-0.2,0-0.4,0-0.6,0c-0.1,0-0.2,0-0.2-0.1c-0.3-0.5-0.4-1.1-0.4-1.7c0-0.1,0.1-0.2,0.2-0.2c0,0,0,0,0,0c0.5,0.1,0.9,0.1,1.4,0.1
				c0.5,0,1,0,1.4,0c0.1-0.2,0.1-0.5,0.2-0.7c0.1-0.5,0.1-1,0.2-1.4c0-0.1,0.1-0.2,0.2-0.2h0c0.6,0.1,1.2,0.2,1.7,0.5
				c0.1,0,0.1,0.1,0.1,0.2c-0.1,0.4-0.1,0.9-0.3,1.4c0.7-0.1,1.4-0.3,2-0.6c0.1,0,0.2,0,0.3,0.1c0.2,0.5,0.3,1,0.3,1.5
				c0,0.1-0.1,0.2-0.1,0.2c-1,0.4-2,0.6-3,0.7c-0.8,2.4-1.8,4.8-3.1,7C44.1,30.2,44,30.2,43.9,30.2L43.9,30.2z M55.1,24.6
				c-0.1,0-0.1,0-0.2-0.1c-1-0.9-2.2-1.7-3.4-2.2c-0.1,0-0.2-0.2-0.1-0.3c0.2-0.5,0.4-0.9,0.7-1.3c0.1-0.1,0.2-0.1,0.3-0.1
				c1.3,0.5,2.6,1.3,3.7,2.2c0.1,0.1,0.1,0.1,0.1,0.2c-0.2,0.5-0.4,1-0.8,1.4C55.3,24.6,55.2,24.6,55.1,24.6L55.1,24.6z"/>
		</g>
		<g id="グループ_4171" transform="translate(37.391 0.016)">
			<path id="パス_2808" class="st0" d="M45.8,33.2c0,0-0.1,0-0.1,0c-0.6-0.3-1.1-0.9-1.4-1.5c-0.1-0.1,0-0.3,0.1-0.3c0,0,0,0,0,0
				c2.9-0.6,4.5-2.7,4.5-5.8c0-2.3-0.7-3.6-1.9-3.6c-1.5,0-2.3,2-2.5,4c0,0,0,0,0,0c-0.1,0.7-0.1,1.4-0.1,2.1c0,0.1-0.1,0.2-0.2,0.2
				c-0.2,0-0.4,0.1-0.7,0.1c-0.4,0-0.7,0-1.1-0.1c-0.1,0-0.2-0.1-0.2-0.2c0-0.8-0.1-2.1,0-2.9c0-1,0.1-2.5,0.2-3.6
				c0-0.4,0.1-0.7,0.1-0.9c0-0.2,0-0.3,0-0.5c0-0.3,0-0.6,0-0.9c0-0.1,0.1-0.2,0.2-0.2l0,0c0.6,0,1.2,0.1,1.8,0.2
				c0.1,0,0.2,0.2,0.2,0.3c0,0,0,0,0,0c-0.1,0.4-0.3,1.5-0.4,2.5c0.6-1.1,1.7-1.8,2.9-1.8c1.8,0,3.9,1.4,3.9,5.4
				C51,29.4,49.2,32.1,45.8,33.2C45.8,33.2,45.8,33.2,45.8,33.2z"/>
		</g>
		<g id="グループ_4172" transform="translate(52.318 1.136)">
			<path id="パス_2809" class="st0" d="M50.4,31.5c-0.1,0-0.1,0-0.2-0.1c-0.4-0.5-0.8-1.1-1-1.7c0-0.1,0-0.3,0.2-0.3c0,0,0,0,0,0
				c0.5,0,0.9-0.1,1.3-0.2c0.9-0.2,3-1,3-4.2c0.1-2.2-1.6-4-3.8-4.1c0,0,0,0,0,0c-0.1,1.5-0.3,2.9-0.6,4.3c-0.8,3.6-2.1,5.2-3.9,5.2
				c-1.8,0-3.3-2.2-3.3-4.8c0-3.8,3.1-6.7,7.2-6.7c3.8,0,6.5,2.5,6.5,6.1C56.1,28.4,53.7,31.2,50.4,31.5L50.4,31.5z M47.9,21.1
				c-2.1,0.5-3.6,2.3-3.7,4.5c0,1.8,0.9,2.6,1.3,2.6c0.4,0,1.1-0.4,1.8-3.4C47.7,23.6,47.8,22.4,47.9,21.1z"/>
		</g>
	</g>
	<g id="グループ_4177" transform="translate(67.641)">
		<g id="グループ_4174">
			<path id="パス_2810" class="st0" d="M44.1,22.8c-1,0-1.9-0.9-1.9-1.9c0-1,0.9-1.9,1.9-1.9c1,0,1.9,0.9,1.9,1.9
				C46,22,45.1,22.8,44.1,22.8L44.1,22.8z M44.1,19.3c-0.9,0-1.6,0.7-1.6,1.6s0.7,1.6,1.6,1.6c0.9,0,1.6-0.7,1.6-1.6c0,0,0,0,0,0
				C45.7,20.1,45,19.3,44.1,19.3z"/>
		</g>
		<g id="グループ_4176" transform="translate(1.316 1.098)">
			<g id="グループ_4175">
				<path id="パス_2811" class="st0" d="M42.2,19.1h0.7c0.1,0,0.2,0,0.3,0.1c0.1,0.1,0.2,0.2,0.2,0.4c0,0.2-0.1,0.3-0.2,0.4
					c0.1,0,0.1,0.1,0.1,0.1c0,0.1,0.1,0.1,0.1,0.2l0,0.2c0,0,0,0.1,0,0.1c0,0,0,0.1,0.1,0.1v0h-0.3c0,0,0,0,0-0.1c0,0,0-0.1,0-0.1
					l0-0.3c0-0.1,0-0.2-0.1-0.2c-0.1,0-0.1,0-0.2,0h-0.5v0.7h-0.2V19.1z M42.9,19.8c0.1,0,0.2,0,0.2-0.1c0.1-0.1,0.1-0.1,0.1-0.2
					c0-0.1,0-0.2-0.1-0.2c-0.1,0-0.1,0-0.2,0h-0.5v0.5L42.9,19.8L42.9,19.8z"/>
			</g>
		</g>
	</g>
</g>
<g>
	<path class="st0" d="M50.8,2.9l0.9-0.1c0.1,0.4,0.2,0.9,0.3,1.3c0.6-0.1,1.2-0.2,1.7-0.4l0.1,0.8c-0.5,0.1-1,0.2-1.6,0.3
		c0.2,0.6,0.6,1.1,0.8,1.5c0.1,0.2,0.2,0.3,0.4,0.5l-0.4,0.6c-0.4-0.1-1.4-0.2-2-0.2l0.1-0.7c0.4,0,1,0.1,1.3,0.1
		c-0.3-0.4-0.6-1-0.9-1.7c-1,0.1-2.1,0.1-3.4,0l0-0.8c1.2,0.1,2.3,0.2,3.1,0.1c-0.1-0.2-0.2-0.5-0.2-0.6C51,3.4,50.9,3.1,50.8,2.9z
		 M49.1,7.8c0,0.7,0.6,1,1.8,1c0.8,0,1.5-0.1,2.1-0.2l0,0.8c-0.5,0.1-1.2,0.2-2.1,0.2c-1.6,0-2.6-0.6-2.6-1.7c0-0.5,0.2-0.9,0.4-1.4
		l0.8,0.2C49.3,7.1,49.1,7.4,49.1,7.8z"/>
	<path class="st0" d="M56.3,4.4c0,0.5,0,1.2,0.1,1.8c0.1,1.3,0.4,2.1,1,2.1c0.4,0,0.8-0.9,0.9-1.6l0.6,0.7c-0.5,1.4-1,1.8-1.6,1.8
		c-0.8,0-1.6-0.8-1.8-2.9c-0.1-0.7-0.1-1.7-0.1-2.1c0-0.2,0-0.5-0.1-0.8l1,0C56.3,3.8,56.3,4.2,56.3,4.4z M61.9,7.8l-0.8,0.3
		C60.9,6.8,60.5,5,59.7,4l0.8-0.3C61.2,4.7,61.8,6.5,61.9,7.8z"/>
	<path class="st0" d="M65.7,3.6c0,0.1-0.1,0.3-0.1,0.5c0.5-0.1,1-0.2,1.4-0.3v0.8c-0.5,0.1-1.1,0.2-1.6,0.3c-0.1,0.3-0.2,0.7-0.3,1
		c-0.3,1.1-0.8,2.8-1.3,3.7l-0.9-0.3c0.5-0.8,1.1-2.5,1.4-3.6c0.1-0.2,0.1-0.5,0.2-0.8c-0.2,0-0.4,0-0.6,0c-0.4,0-0.7,0-1,0l0-0.8
		c0.4,0,0.7,0.1,1,0.1c0.2,0,0.5,0,0.8,0c0-0.2,0.1-0.4,0.1-0.6c0-0.2,0-0.5,0-0.7l1,0.1C65.8,3.1,65.7,3.4,65.7,3.6z M66.7,8
		c0,0.4,0.2,0.7,1.2,0.7c0.5,0,1.1-0.1,1.6-0.2l0,0.8c-0.4,0.1-1,0.1-1.6,0.1c-1.3,0-2-0.4-2-1.2c0-0.3,0.1-0.7,0.1-1l0.7,0.1
		C66.7,7.5,66.7,7.8,66.7,8z M68,5.2c0.5,0,0.9,0,1.4,0.1l0,0.8C69,6,68.5,6,68,6c-0.5,0-1,0-1.5,0.1V5.3C66.9,5.3,67.5,5.2,68,5.2z
		"/>
	<path class="st0" d="M74.5,3.3c0,0.1,0,0.2,0,0.4c0.7,0,1.4-0.1,2.1-0.2v0.7c-0.6,0.1-1.3,0.1-2.1,0.2c0,0.4,0,0.7,0,1
		c0.8,0,1.5-0.1,2.2-0.2l0,0.7c-0.7,0.1-1.4,0.1-2.2,0.2c0,0.4,0,0.8,0.1,1.1c1,0.3,1.8,0.8,2.3,1.2l-0.5,0.7
		c-0.5-0.4-1.1-0.9-1.8-1.2c0,0.2,0,0.3,0,0.4c0,0.6-0.4,1.2-1.5,1.2c-1.2,0-1.8-0.4-1.8-1.2c0-0.8,0.7-1.3,1.9-1.3
		c0.2,0,0.4,0,0.6,0c0-0.3,0-0.6,0-0.9c-0.1,0-0.3,0-0.4,0c-0.5,0-1.4,0-2-0.1l0-0.8c0.5,0.1,1.5,0.1,2,0.1c0.1,0,0.3,0,0.4,0
		c0-0.3,0-0.7,0-1c-0.1,0-0.2,0-0.3,0c-0.5,0-1.5-0.1-2-0.1l0-0.7c0.5,0.1,1.5,0.2,2,0.2c0.1,0,0.2,0,0.3,0c0-0.2,0-0.4,0-0.5
		s0-0.4,0-0.5h0.9C74.5,2.9,74.5,3.1,74.5,3.3z M73,8.9c0.4,0,0.8-0.1,0.8-0.6c0-0.1,0-0.3,0-0.4c-0.2,0-0.5-0.1-0.7-0.1
		c-0.7,0-1,0.3-1,0.6C72,8.7,72.3,8.9,73,8.9z"/>
	<g class="st1">
		<path class="st0" d="M82.1,4.3v1h2.5V8c0,0.4-0.1,0.6-0.4,0.7c-0.3,0.1-0.8,0.1-1.4,0.1c0-0.2-0.1-0.5-0.3-0.7c0.5,0,1,0,1.1,0
			s0.2,0,0.2-0.2V6h-1.8v3.9h-0.8V6h-1.6v2.9h-0.7V5.2h2.4v-1h-3.2V3.5h3.2V2.5h0.8v1.1h3.2v0.7H82.1z"/>
	</g>
	<g class="st1">
		<path class="st0" d="M90.2,9.5l-0.5-0.8c0.3,0,0.5-0.1,0.7-0.1c1-0.2,1.9-1,1.9-2.3c0-1.2-0.7-2.1-1.9-2.2
			c-0.1,0.7-0.2,1.5-0.5,2.2C89.5,8,88.8,8.9,88,8.9S86.5,8,86.5,6.7c0-1.8,1.6-3.3,3.6-3.3c1.9,0,3.1,1.3,3.1,3
			C93.2,8.1,92.1,9.2,90.2,9.5z M88,8c0.4,0,0.7-0.5,1.1-1.8c0.2-0.6,0.3-1.4,0.4-2.1c-1.4,0.2-2.3,1.5-2.3,2.5
			C87.3,7.5,87.7,8,88,8z"/>
	</g>
	<path class="st0" d="M101.9,8.9v0.7h-7.1V8.9h3.2V7h-2.3V6.3h2.3V4.7h-1.8c-0.2,0.5-0.5,0.9-0.8,1.2c-0.2-0.1-0.5-0.3-0.7-0.4
		c0.6-0.7,1.2-1.8,1.4-2.9l0.8,0.2c-0.1,0.4-0.3,0.8-0.4,1.2h1.4V2.5h0.8V4h2.8v0.7h-2.8v1.6h2.5V7h-2.5v1.8H101.9z"/>
	<path class="st0" d="M104.2,6.2c-0.3-0.2-1-0.6-1.5-0.9l0.4-0.6c0.5,0.2,1.1,0.6,1.5,0.8L104.2,6.2z M102.9,9.2
		c0.4-0.6,1-1.6,1.5-2.5l0.5,0.5C104.5,8,104,9,103.5,9.7L102.9,9.2z M104.6,4c-0.3-0.2-1-0.6-1.5-0.9l0.4-0.5
		c0.5,0.2,1.1,0.6,1.5,0.8L104.6,4z M107.9,5.5v1.2h1.6v3.1h-0.7V9.5h-2.6v0.3h-0.7V6.7h1.7V5.5H105V4.8h2.2V3.7
		c-0.6,0.1-1.1,0.2-1.7,0.2c0-0.2-0.1-0.5-0.2-0.6c1.4-0.1,2.9-0.4,3.8-0.7l0.6,0.6c-0.5,0.2-1.1,0.3-1.8,0.5v1.3h2.1v0.7H107.9z
		 M108.9,7.4h-2.6v1.4h2.6V7.4z"/>
	<path class="st0" d="M117.4,5.7c-0.4,1.1-1.1,1.9-2,2.6c0.8,0.4,1.8,0.7,3,0.8c-0.2,0.2-0.4,0.5-0.5,0.7c-1.3-0.2-2.4-0.6-3.2-1.1
		c-1,0.5-2.1,0.9-3.2,1.1c-0.1-0.2-0.3-0.5-0.4-0.7c1.1-0.2,2.1-0.4,3-0.8c-0.6-0.5-1.1-1.1-1.5-1.9l0.6-0.2h-1.3V5.5h2.6V4.4h-3
		V3.6h3V2.5h0.8v1.1h3v0.7h-3v1.1h1.7l0.1,0L117.4,5.7z M113.2,6.2c0.4,0.7,0.9,1.2,1.5,1.7c0.7-0.4,1.2-1,1.6-1.7H113.2z"/>
	<path class="st0" d="M120.9,7.1v2c0,0.4-0.1,0.6-0.3,0.7c-0.2,0.1-0.5,0.1-1,0.1c0-0.2-0.1-0.5-0.2-0.7c0.3,0,0.6,0,0.7,0
		c0.1,0,0.1,0,0.1-0.1V7.3l-0.9,0.3l-0.1-0.7c0.3-0.1,0.6-0.2,1-0.3V4.7h-0.9V4.1h0.9V2.5h0.7v1.6h0.8v0.7h-0.8v1.6
		c0.2-0.1,0.5-0.1,0.8-0.2l0.1,0.7L120.9,7.1z M126,7c-0.2,0.7-0.6,1.3-1,1.7c0.5,0.3,1.1,0.4,1.7,0.5c-0.2,0.1-0.4,0.4-0.5,0.6
		c-0.7-0.1-1.3-0.4-1.8-0.7c-0.5,0.3-1,0.5-1.6,0.7c-0.1-0.2-0.3-0.4-0.4-0.6c0.6-0.1,1-0.3,1.5-0.5c-0.3-0.3-0.6-0.5-0.8-0.9
		c-0.3,0.7-0.8,1.4-1.5,1.9c-0.1-0.2-0.3-0.4-0.5-0.5c1.1-0.7,1.5-1.8,1.7-2.9h-1V5.8h1.1c0-0.2,0-0.4,0-0.5h-1V4.6h0.6
		c-0.1-0.3-0.2-0.6-0.3-0.9l0.6-0.2c0.1,0.3,0.3,0.7,0.4,0.9l-0.5,0.2h2.1c0.2-0.4,0.5-0.9,0.7-1.3l0.7,0.2
		c-0.2,0.4-0.5,0.8-0.7,1.1h0.9v0.6h-2.6c0,0.2,0,0.3-0.1,0.5h2.9v0.6h-3c0,0.2-0.1,0.3-0.1,0.4h2.1l0.1,0L126,7z M126.2,3.1
		c-1.1,0.2-2.8,0.4-4.2,0.4c0-0.2-0.1-0.4-0.2-0.6c1.4,0,3-0.2,4-0.4L126.2,3.1z M123.5,7.4c0.2,0.4,0.6,0.7,1,1
		c0.3-0.3,0.6-0.6,0.7-1H123.5z M123.8,4.6c0-0.3-0.1-0.7-0.2-1l0.6-0.1c0.1,0.3,0.2,0.8,0.2,1L123.8,4.6z"/>
	<path class="st0" d="M127.5,7.9l0.7-0.6c0.6,0.5,1.3,1.2,1.8,1.8l-0.7,0.6C128.8,9.1,128.1,8.4,127.5,7.9z"/>
	<path class="st0" d="M47.9,17.2c-0.1-0.2-0.3-0.5-0.5-0.6c1.4-0.7,2.7-2,3.2-3.1h0.8c0.8,1.3,2.1,2.4,3.4,3
		c-0.2,0.2-0.4,0.5-0.5,0.7c-1.3-0.7-2.6-1.8-3.3-2.9C50.5,15.3,49.3,16.4,47.9,17.2z M50.2,16.4v1c0,1.1-0.2,2.5-1.7,3.4
		c-0.1-0.2-0.4-0.4-0.6-0.5c1.4-0.8,1.6-2,1.6-2.9v-1H50.2z M52.9,16.3v4.5h-0.8v-4.5H52.9z"/>
	<path class="st0" d="M58.4,15.4h-2.6v-0.6h2.6V15.4z M58.2,20.4h-1.5v0.4h-0.6V18h2.1V20.4z M58.2,15.9v0.6h-2.1v-0.6H58.2z
		 M56.1,17h2.1v0.6h-2.1V17z M58.2,14.3h-2v-0.6h2V14.3z M56.7,18.6v1.2h0.9v-1.2H56.7z M59,16.3c-0.1,0.1-0.2,0.3-0.4,0.4
		c-0.1-0.1-0.3-0.3-0.5-0.4c0.5-0.4,0.9-1,1.1-1.5l0.3,0.1v-0.3h-1.1v-0.5h1.1v-0.5h0.7v0.5h1.1v-0.5H62v0.5H63v0.5H62v0.4h-0.5
		c-0.1,0.2-0.2,0.3-0.2,0.5h1.6v0.5h-1.6v0.3h1.4v0.4h-1.4v0.3h1.4v0.4h-1.4v0.3H63v0.5h-4V16.3z M62.8,18.6c-0.3,0.5-0.7,1-1.3,1.3
		c0.5,0.2,1.1,0.3,1.7,0.4c-0.2,0.1-0.3,0.4-0.4,0.6c-0.7-0.1-1.4-0.3-2-0.6c-0.7,0.3-1.5,0.5-2.3,0.6c-0.1-0.2-0.2-0.4-0.3-0.6
		c0.6-0.1,1.3-0.2,1.9-0.4c-0.4-0.2-0.7-0.5-0.9-0.8l0.4-0.2h-1v-0.6h3.6l0.1,0L62.8,18.6z M60.2,14.5v0.4h-0.4
		c-0.1,0.2-0.1,0.3-0.2,0.5h1c0.1-0.2,0.2-0.4,0.2-0.6l0.5,0.1v-0.4H60.2z M60.6,15.8h-1v0.3h1V15.8z M60.6,16.6h-1v0.3h1V16.6z
		 M60.6,17.3h-1v0.3h1V17.3z M59.9,19c0.2,0.2,0.6,0.5,0.9,0.7c0.4-0.2,0.7-0.4,0.9-0.7H59.9z"/>
	<path class="st0" d="M67.3,20.6L66.6,20c1.5-0.6,2.2-1.2,2.2-3.4v-0.3h-2.1v1.2c0,0.3,0,0.7,0,0.8h-0.9c0-0.1,0-0.4,0-0.8v-1.2
		h-0.8c-0.4,0-0.7,0-0.8,0v-0.9c0.1,0,0.5,0.1,0.8,0.1h0.8v-0.9c0-0.2,0-0.4,0-0.6h0.9c0,0.1,0,0.3,0,0.6v0.9h2.1v-0.9
		c0-0.3,0-0.6,0-0.7h0.9c0,0.1,0,0.4,0,0.7v0.9h0.8c0.4,0,0.6,0,0.8,0v0.8c-0.1,0-0.4,0-0.8,0h-0.8v0.3
		C69.6,18.6,69.1,19.8,67.3,20.6z"/>
	<path class="st0" d="M73.2,16.7h4.3c0.4,0,0.7,0,0.9,0v1c-0.2,0-0.5,0-0.9,0h-4.3c-0.4,0-0.9,0-1.2,0v-1
		C72.3,16.7,72.8,16.7,73.2,16.7z"/>
	<path class="st0" d="M81,14.9v1.7c0.9-0.2,2.1-0.6,2.9-0.9c0.3-0.1,0.5-0.2,0.8-0.4l0.4,0.8c-0.3,0.1-0.6,0.2-0.8,0.3
		c-0.9,0.3-2.2,0.7-3.2,1V19c0,0.4,0.2,0.5,0.5,0.6c0.2,0,0.6,0.1,1,0.1c0.8,0,2.1-0.1,2.8-0.3v0.9c-0.7,0.1-1.9,0.2-2.8,0.2
		c-0.5,0-1,0-1.3-0.1c-0.6-0.1-1-0.4-1-1.1v-4.4c0-0.2,0-0.5-0.1-0.7h0.9C81.1,14.4,81,14.6,81,14.9z M85.3,14.9l-0.5,0.2
		c-0.2-0.3-0.4-0.8-0.6-1.1l0.5-0.2C84.8,14.1,85.1,14.6,85.3,14.9z M86.2,14.6l-0.5,0.2c-0.2-0.3-0.4-0.8-0.6-1.1l0.5-0.2
		C85.7,13.8,86,14.3,86.2,14.6z"/>
	<path class="st0" d="M92.5,15.2c-0.3,0.7-0.8,1.6-1.3,2.3c0.8,0.7,1.8,1.7,2.3,2.3l-0.7,0.6c-0.5-0.7-1.3-1.6-2.1-2.3
		c-0.9,0.9-1.9,1.8-3.1,2.3l-0.6-0.7c1.3-0.5,2.5-1.5,3.3-2.3c0.5-0.6,1.1-1.5,1.3-2.1h-2.9c-0.3,0-0.7,0-0.9,0v-0.9
		c0.2,0,0.6,0.1,0.9,0.1h3c0.3,0,0.6,0,0.7-0.1l0.5,0.4C92.6,14.9,92.5,15.1,92.5,15.2z"/>
</g>
<g>
	<defs>
		<circle id="SVGID_1_" cx="20.1" cy="20.9" r="19.9"/>
	</defs>
	<clipPath id="SVGID_00000158014266736045082050000015425849368864369568_">
		<use xlink:href="#SVGID_1_"  style="overflow:visible;"/>
	</clipPath>
	<g style="clip-path:url(#SVGID_00000158014266736045082050000015425849368864369568_);">
		<circle class="st3" cx="20.1" cy="20.9" r="27.4"/>
		<circle class="st4" cx="20.1" cy="20.9" r="20.7"/>
		<circle class="st5" cx="20.1" cy="20.9" r="14"/>
		<circle class="st6" cx="20.1" cy="20.9" r="7.2"/>
		<path class="st7" d="M-7.7,1.1c0,0,14.7,17,15.3,17.6c0,0,0.4,4,3,7.1c0,0-1.5,1.8,3.6,5.2s5.8,2.2,5.8,2.2s3.9,1.4,6.6-2.2
			c2.4-3,2.4-5.1,2.4-5.1s2.5-1,3.1-4.2c0.2-0.9-0.1-2.3,0.6-3.1C33.4,17.8,47.8,1,47.8,1l-0.7-1.8h-10c0,0-9,12.5-9.5,13
			s-0.4,0.9-2.3,1.4c-1.9,0.5-4,0.9-5.4,2c0,0-1.1-1-3.7-1.4C14.5,13.7,14,14,13,12.7S2.9-0.9,2.9-0.9H-7.7L-7.7,1.1z"/>
		<g>
			<path class="st8" d="M16,24c-0.6,0-1.1-0.2-1.5-0.6c-0.6-0.7-0.6-1.7,0-2.4c0.2-0.3,0.5-0.6,0.8-1.1c1-1.4,2.4-3.4,4.2-4.8
				c1.4-1.1,3.4-1.6,5-2c0.9-0.2,1.9-0.4,2.1-0.7c0.6-0.6,7-9.3,11.1-15c0.2-0.3,0.6-0.4,0.9-0.1c0.3,0.2,0.4,0.6,0.1,0.9
				c0,0,0,0,0,0c-1.1,1.5-10.3,14.3-11.2,15.2c-0.5,0.5-1.5,0.7-2.8,1c-1.5,0.3-3.3,0.8-4.5,1.7c-1.7,1.3-3,3.2-4,4.6
				c-0.3,0.4-0.6,0.8-0.8,1.1c-0.2,0.2-0.2,0.6,0,0.8c0.2,0.2,0.6,0.4,1.2,0c1.5-1,4.9-3.7,5-3.7c0.3-0.2,0.7-0.1,0.9,0.1
				c0.2,0.3,0.1,0.6-0.1,0.9c-0.1,0.1-3.5,2.8-5.1,3.8C17,23.9,16.5,24,16,24L16,24z"/>
			<path class="st8" d="M27.9,26.6c-0.8,0-1.7-0.3-3.1-1.7c-1.5-1.6-4.8-3.6-4.8-3.7c-0.3-0.2-0.4-0.6-0.2-0.9
				c0.2-0.3,0.6-0.4,0.9-0.2c0.1,0.1,3.5,2.1,5.1,3.9c1.4,1.5,2.1,1.4,2.5,1.3c0.4-0.1,1.6-0.3,2.5-1.8c0.6-1,0.7-2.2,0.7-3.1
				c0.1-0.8,0.1-1.5,0.5-1.9c0.6-0.7,15.1-17.6,15.7-18.3C48-0.2,48.4-0.2,48.7,0c0.3,0.2,0.3,0.6,0.1,0.9c0,0,0,0,0,0
				C48.6,1.1,33.6,18.5,33,19.2c-0.1,0.1-0.1,0.8-0.2,1.2c-0.1,1-0.2,2.5-0.9,3.7c-1.2,2-2.8,2.3-3.4,2.4
				C28.4,26.6,28.2,26.6,27.9,26.6L27.9,26.6z"/>
			<path class="st8" d="M19.9,16.2c-0.1,0-0.3,0-0.4-0.1c-1.2-1-2.7-1.2-3.9-1.4c-1.1-0.2-1.9-0.3-2.5-0.9
				C12.2,12.9,2.4-0.4,1.3-1.9C1.1-2.2,1.2-2.6,1.5-2.8C1.8-3,2.2-2.9,2.4-2.6c4.3,5.9,11,14.9,11.6,15.5c0.2,0.2,1,0.4,1.8,0.5
				c1.4,0.2,3.1,0.5,4.5,1.7c0.3,0.2,0.3,0.6,0.1,0.9C20.3,16.1,20.1,16.2,19.9,16.2L19.9,16.2z"/>
			<path class="st8" d="M10.6,26.4c-0.2,0-0.4-0.1-0.5-0.2c-0.7-0.8-1.2-1.6-1.7-2.5c-0.8-1.5-0.9-2.7-1-3.6c-0.1-0.4-0.1-0.8-0.2-1
				C6.5,18.4-8,1.7-8.2,1.5c-0.2-0.3-0.2-0.7,0.1-0.9c0,0,0,0,0,0c0.3-0.2,0.7-0.2,0.9,0.1c0,0,0,0,0,0C-6.6,1.3,7.5,17.6,8.1,18.3
				c0.4,0.4,0.4,1,0.5,1.6c0.1,0.8,0.2,1.8,0.9,3.1c0.4,0.8,1,1.6,1.6,2.3c0.2,0.3,0.2,0.7-0.1,0.9C10.8,26.3,10.7,26.4,10.6,26.4z"
				/>
			<path class="st8" d="M19.3,34c-0.8,0-1.7-0.3-2.8-0.9c-2.4-1.2-5.4-3.6-6.5-5.5c-0.4-0.7-0.4-1.6,0.1-2.2
				c0.7-1.1,2.1-1.7,3.8-1.6c1.9,0.1,3.6,1.8,4.7,2.9c0.6,0.6,3.4,4,2.8,5.8c-0.2,0.6-0.6,1.1-1.2,1.3C19.9,34,19.6,34,19.3,34
				L19.3,34z M11.1,27c0.9,1.6,3.8,3.8,6,5c1.6,0.8,2.3,0.8,2.6,0.6c0.1-0.1,0.3-0.2,0.5-0.5c0.2-0.6-1-2.9-2.5-4.4
				c-1-1-2.4-2.4-3.9-2.5c-1.4-0.1-2.3,0.5-2.6,1C11,26.4,11,26.7,11.1,27L11.1,27z"/>
			<path class="st8" d="M21.7,34c-0.6,0-1.1-0.1-1.6-0.2c-0.3-0.1-0.6-0.4-0.5-0.8c0.1-0.3,0.4-0.6,0.8-0.5l0,0
				c1.2,0.2,2.3,0.2,3.2-0.1c1.8-0.7,3.2-2.4,4.1-3.8c0.4-0.7,0.7-1.7,0.8-2.9c0-0.4,0.4-0.6,0.7-0.6c0.4,0,0.6,0.4,0.6,0.7
				c-0.1,1.4-0.5,2.6-1,3.5c-1,1.5-2.6,3.5-4.7,4.3C23.2,33.9,22.4,34.1,21.7,34L21.7,34z"/>
			<path class="st8" d="M26.6,19.8c-0.4,0-0.6-0.3-0.6-0.6c0-0.1,0-0.3,0.1-0.4c0.5-0.7,0.5-1.8,0.5-2.2c0-0.4,0.2-0.7,0.6-0.7
				c0.4,0,0.7,0.2,0.7,0.6l0,0c0,0.1,0.1,1.8-0.7,3C27,19.7,26.8,19.8,26.6,19.8L26.6,19.8z"/>
		</g>
	</g>
</g>
</svg>
