<svg height="50.718" viewBox="0 0 173.889 50.718" width="173.889" xmlns="http://www.w3.org/2000/svg"><path d="m0 0h173.889v50.718h-173.889z" fill="none"/><g fill="#fff"><path d="m53.732 83.616c-3.758 0-6.833-1.025-8.663-2.855a6.97 6.97 0 0 1 -1.977-5.246c.024-3.9 2.513-6.345 4.807-8.053a49.3 49.3 0 0 1 -4.734-8.2.534.534 0 0 1 .073-.537 9.021 9.021 0 0 1 3.075-2 .362.362 0 0 1 .171-.024.5.5 0 0 1 .464.317 37.693 37.693 0 0 0 4.417 8.1c.9-.561 1.855-1.147 2.782-1.733 1.83-1.123 3.563-2.2 4.539-2.9.9-.634 1.83-1.367 2.318-1.781a.514.514 0 0 1 .317-.122h.024a.513.513 0 0 1 .342.171 11.7 11.7 0 0 1 1.806 3.1.453.453 0 0 1 -.146.537c-.683.586-3.88 2.465-6.979 4.295-.683.415-1.342.805-1.952 1.147-.024.171-.049.317-.073.488-.073.561-.146 1.122-.2 1.562a.509.509 0 0 1 -.268.39 9.377 9.377 0 0 1 -2.364.728h-.073a.412.412 0 0 1 -.244-.073 4.074 4.074 0 0 1 -.781-.586c-1.489 1.1-3.05 2.611-3.05 4.783a3.349 3.349 0 0 0 1 2.587c1.049 1.049 2.9 1.611 5.368 1.611a20.593 20.593 0 0 0 8.321-1.562.754.754 0 0 1 .2-.049.712.712 0 0 1 .22.049.631.631 0 0 1 .268.342 8.718 8.718 0 0 1 -.244 4 .46.46 0 0 1 -.293.268 26.355 26.355 0 0 1 -8.471 1.246z" transform="translate(-32.282 -42.889)"/><path d="m195.647 79.921c-3.441 0-7.125-1.733-7.125-5.539 0-2.879 3.026-4.954 7.223-4.954.61 0 1.147.024 1.635.073a69.662 69.662 0 0 1 -.2-7.223.5.5 0 0 1 .366-.439 8.136 8.136 0 0 1 1.952-.2 12.986 12.986 0 0 1 1.464.1.508.508 0 0 1 .415.537 26.075 26.075 0 0 0 -.146 3.758v.537c0 .61.073 1.635.146 2.733l.073 1.025a21.33 21.33 0 0 1 6.174 3.221.521.521 0 0 1 .2.415 5.152 5.152 0 0 1 -1.659 3.514.469.469 0 0 1 -.293.1.482.482 0 0 1 -.342-.146 15.429 15.429 0 0 0 -3.856-2.831v.073c-.049 1.562-.634 5.246-6.027 5.246zm-.147-6.881c-1.44 0-2.977.366-2.977 1.415 0 .781.952 1.562 2.757 1.562 1.952 0 2.269-.83 2.269-2.66v-.171c-.755-.073-1.414-.146-2.049-.146zm-11.713 1.025a.22.22 0 0 1 -.122-.024 7.8 7.8 0 0 1 -3.245-1.83.478.478 0 0 1 -.024-.61 50.791 50.791 0 0 0 5.759-11.591c-.952.049-1.928.1-2.953.1h-1.147a.5.5 0 0 1 -.415-.244 7.486 7.486 0 0 1 -.757-3.392.477.477 0 0 1 .171-.366.514.514 0 0 1 .317-.122h.1a18.144 18.144 0 0 0 2.9.244c1.049 0 2.025-.024 2.953-.1.122-.488.22-1 .317-1.513a28.2 28.2 0 0 0 .342-2.953.427.427 0 0 1 .171-.342.514.514 0 0 1 .317-.122h.049a10.349 10.349 0 0 1 3.538.952.491.491 0 0 1 .268.512c-.122.805-.317 1.733-.586 2.928a21.573 21.573 0 0 0 4.1-1.269.459.459 0 0 1 .2-.049.5.5 0 0 1 .415.244 6.832 6.832 0 0 1 .586 3.123.482.482 0 0 1 -.293.439 25.676 25.676 0 0 1 -6.1 1.513 68.075 68.075 0 0 1 -6.369 14.251.735.735 0 0 1 -.492.221zm22.963-11.542a.5.5 0 0 1 -.366-.146 22.49 22.49 0 0 0 -7-4.563.5.5 0 0 1 -.293-.61 8.319 8.319 0 0 1 1.513-2.66.5.5 0 0 1 .366-.146.537.537 0 0 1 .2.024 28.489 28.489 0 0 1 7.491 4.539.465.465 0 0 1 .122.464 6.973 6.973 0 0 1 -1.684 2.953.494.494 0 0 1 -.342.146z" transform="translate(-136.007 -38.731)"/><path d="m364.02 80.239a.713.713 0 0 1 -.22-.049 7.172 7.172 0 0 1 -2.806-3.026.419.419 0 0 1 0-.415.631.631 0 0 1 .342-.268c6-1.318 9.175-5.442 9.175-11.859 0-4.636-1.489-7.418-3.978-7.418-2.977 0-4.734 4.075-5.173 8.1v.024a17.555 17.555 0 0 0 -.2 4.319.479.479 0 0 1 -.39.512 7.025 7.025 0 0 1 -1.342.1 9.259 9.259 0 0 1 -2.2-.244.527.527 0 0 1 -.366-.439c-.1-1.611-.122-4.295-.1-5.881.024-2.1.293-5.149.488-7.369.073-.781.122-1.415.146-1.879 0-.317.024-.659.049-1 .024-.659.049-1.269.049-1.757a.489.489 0 0 1 .488-.488 22.623 22.623 0 0 1 3.636.317.468.468 0 0 1 .366.586c-.171.781-.61 2.977-.854 5.051 1.122-1.733 3.05-3.758 5.857-3.758 3.636 0 7.882 2.928 7.882 11.152 0 7.858-3.782 13.421-10.688 15.666a.477.477 0 0 1 -.161.023z" transform="translate(-269.413 -38.731)"/><path d="m498.54 86.2a.482.482 0 0 1 -.342-.146 9.529 9.529 0 0 1 -1.977-3.49.608.608 0 0 1 .073-.415.463.463 0 0 1 .366-.2 15.365 15.365 0 0 0 2.733-.39c1.83-.415 6.125-2.1 6.125-8.492 0-4.661-3.026-7.906-7.736-8.37a61 61 0 0 1 -1.245 8.834c-1.733 7.321-4.246 10.713-7.931 10.713-3.612 0-6.808-4.612-6.808-9.858 0-7.809 6.345-13.69 14.739-13.69 7.882 0 13.372 5.1 13.372 12.4 0 7.223-4.124 12.006-11.3 13.1zm-5.027-21.23c-3.831.976-7.54 4.319-7.54 9.126 0 3.587 1.733 5.393 2.709 5.393.781 0 2.318-.9 3.734-6.857a44.955 44.955 0 0 0 1.097-7.662z" transform="translate(-363.937 -45.913)"/><path d="m630.743 26.911a8.455 8.455 0 1 1 8.468-8.443 8.451 8.451 0 0 1 -8.468 8.443zm0-15.593a7.125 7.125 0 1 0 7.125 7.125 7.134 7.134 0 0 0 -7.125-7.125z" transform="translate(-470.152 -7.585)"/><path d="m646.3 30.1h3.27a2.957 2.957 0 0 1 1.318.244 1.719 1.719 0 0 1 1 1.684 1.785 1.785 0 0 1 -1 1.708 1.825 1.825 0 0 1 .635.439 1.665 1.665 0 0 1 .244.9l.024.952a1.87 1.87 0 0 0 .073.61.621.621 0 0 0 .317.439v.171h-1.2c-.024-.073-.049-.146-.073-.244s-.024-.293-.049-.561l-.049-1.2a1.051 1.051 0 0 0 -.513-.952 1.907 1.907 0 0 0 -.854-.122h-2.143v3.082h-.976zm3.172 3.27a1.85 1.85 0 0 0 1.049-.268 1.083 1.083 0 0 0 .39-.976 1.068 1.068 0 0 0 -.537-1.049 1.71 1.71 0 0 0 -.781-.146h-2.293v2.44z" transform="translate(-488.295 -22.78)"/></g></svg>