<svg xmlns="http://www.w3.org/2000/svg" width="91" height="41.599" viewBox="0 0 91 41.599">
  <g id="logo" transform="translate(-5 18.851)">
    <g id="グループ_4178" data-name="グループ 4178" transform="translate(5 8.469)">
      <g id="グループ_4173" data-name="グループ 4173" transform="translate(0 0.081)">
        <g id="グループ_4169" data-name="グループ 4169" transform="translate(0 0.651)">
          <path id="パス_2806" data-name="パス 2806" d="M49.9,48.384a5.894,5.894,0,0,1-4.228-1.4,3.445,3.445,0,0,1-.972-2.562,4.945,4.945,0,0,1,2.355-3.941,24.957,24.957,0,0,1-2.319-4.006.238.238,0,0,1,.042-.257,4.488,4.488,0,0,1,1.507-.979.239.239,0,0,1,.3.138,18.33,18.33,0,0,0,2.161,3.954c.441-.279.9-.566,1.355-.845.894-.554,1.739-1.077,2.217-1.418.442-.316.9-.665,1.129-.869a.239.239,0,0,1,.157-.059h.017a.238.238,0,0,1,.164.083,5.435,5.435,0,0,1,.88,1.514.239.239,0,0,1-.07.265c-.335.284-1.9,1.205-3.41,2.1l-.957.565c-.01.079-.021.16-.031.241-.035.269-.072.547-.093.768a.239.239,0,0,1-.131.191,4.722,4.722,0,0,1-1.153.363.228.228,0,0,1-.039,0,.239.239,0,0,1-.123-.034,2.5,2.5,0,0,1-.379-.283,3.031,3.031,0,0,0-1.493,2.342,1.706,1.706,0,0,0,.483,1.27,3.672,3.672,0,0,0,2.627.787,10.038,10.038,0,0,0,4.071-.769.238.238,0,0,1,.333.169,4.308,4.308,0,0,1-.121,1.951.238.238,0,0,1-.138.135A13.547,13.547,0,0,1,49.9,48.384Z" transform="translate(-44.696 -35.224)" fill="#333"/>
        </g>
        <g id="グループ_4170" data-name="グループ 4170" transform="translate(16.354)">
          <path id="パス_2807" data-name="パス 2807" d="M189.338,43.807c-1.676,0-3.479-.846-3.479-2.7,0-1.4,1.483-2.425,3.526-2.425.294,0,.558.011.8.032a35.02,35.02,0,0,1-.092-3.533.238.238,0,0,1,.178-.213,4.014,4.014,0,0,1,.949-.1,4.77,4.77,0,0,1,.714.05.238.238,0,0,1,.2.26,15.232,15.232,0,0,0-.077,1.839v.26c0,.293.032.8.067,1.338.01.163.021.331.031.5a10.393,10.393,0,0,1,3.016,1.569.239.239,0,0,1,.1.2,2.549,2.549,0,0,1-.812,1.721.238.238,0,0,1-.31-.027,7.277,7.277,0,0,0-1.886-1.378v.033C192.259,42,191.974,43.807,189.338,43.807Zm-.078-3.365c-.7,0-1.452.182-1.452.692,0,.382.461.769,1.343.769.95,0,1.11-.4,1.11-1.3v-.078A6.164,6.164,0,0,0,189.26,40.443Zm-5.721.5a.239.239,0,0,1-.058-.007,3.921,3.921,0,0,1-1.592-.893.238.238,0,0,1-.017-.3,24.973,24.973,0,0,0,2.811-5.659c-.461.028-.946.043-1.445.043q-.279,0-.557-.006a.239.239,0,0,1-.2-.118,3.724,3.724,0,0,1-.374-1.655.239.239,0,0,1,.239-.239.246.246,0,0,1,.043,0,8.923,8.923,0,0,0,1.415.12c.512,0,.985-.016,1.442-.048a6.974,6.974,0,0,0,.151-.741,13.4,13.4,0,0,0,.168-1.446.239.239,0,0,1,.238-.23h.025a5.2,5.2,0,0,1,1.728.46.239.239,0,0,1,.126.246c-.057.391-.15.851-.288,1.429a11.275,11.275,0,0,0,2.008-.615.239.239,0,0,1,.3.1,3.353,3.353,0,0,1,.282,1.527.239.239,0,0,1-.144.21,12.693,12.693,0,0,1-2.982.74,33.375,33.375,0,0,1-3.114,6.97A.238.238,0,0,1,183.539,40.939ZM194.762,35.3a.239.239,0,0,1-.173-.077,11.3,11.3,0,0,0-3.417-2.235.239.239,0,0,1-.138-.294,4.042,4.042,0,0,1,.736-1.3.239.239,0,0,1,.263-.058,13.855,13.855,0,0,1,3.661,2.223.239.239,0,0,1,.063.225,3.5,3.5,0,0,1-.819,1.442.238.238,0,0,1-.173.074Z" transform="translate(-181.828 -29.764)" fill="#333"/>
        </g>
        <g id="グループ_4171" data-name="グループ 4171" transform="translate(37.391 0.016)">
          <path id="パス_2808" data-name="パス 2808" d="M361.783,44.079a.24.24,0,0,1-.112-.028,3.507,3.507,0,0,1-1.375-1.473.239.239,0,0,1,.164-.334c2.931-.649,4.48-2.654,4.48-5.8,0-2.268-.728-3.622-1.948-3.622-1.454,0-2.315,1.987-2.522,3.957,0,.005,0,.01,0,.016a8.381,8.381,0,0,0-.09,2.114.238.238,0,0,1-.191.249,3.573,3.573,0,0,1-.659.052,4.447,4.447,0,0,1-1.077-.117.239.239,0,0,1-.177-.216c-.048-.788-.062-2.1-.047-2.872.012-1.026.14-2.514.234-3.6.033-.376.06-.7.076-.923,0-.152.012-.319.019-.484.014-.316.027-.615.027-.864a.239.239,0,0,1,.239-.239,10.09,10.09,0,0,1,1.771.161.238.238,0,0,1,.184.282c-.08.386-.294,1.457-.412,2.467a3.549,3.549,0,0,1,2.86-1.84c1.776,0,3.851,1.427,3.851,5.448,0,3.836-1.853,6.554-5.219,7.653A.254.254,0,0,1,361.783,44.079Z" transform="translate(-358.221 -29.897)" fill="#333"/>
        </g>
        <g id="グループ_4172" data-name="グループ 4172" transform="translate(52.318 1.136)">
          <path id="パス_2809" data-name="パス 2809" d="M491.566,51.755a.239.239,0,0,1-.169-.07,4.558,4.558,0,0,1-.962-1.708.238.238,0,0,1,.217-.3,7.861,7.861,0,0,0,1.34-.2c.9-.208,2.994-1.028,2.994-4.155a3.922,3.922,0,0,0-3.786-4.085,27.935,27.935,0,0,1-.613,4.312c-.846,3.572-2.077,5.236-3.875,5.236-1.771,0-3.324-2.249-3.324-4.812,0-3.813,3.1-6.688,7.2-6.688,3.847,0,6.533,2.489,6.533,6.053a6.041,6.041,0,0,1-5.52,6.407Zm-2.452-10.373a4.716,4.716,0,0,0-3.682,4.46c0,1.751.851,2.63,1.327,2.63.383,0,1.131-.435,1.83-3.352A22.706,22.706,0,0,0,489.114,41.382Z" transform="translate(-483.389 -39.293)" fill="#333"/>
        </g>
      </g>
      <g id="グループ_4177" data-name="グループ 4177" transform="translate(67.641)">
        <g id="グループ_4174" data-name="グループ 4174">
          <path id="パス_2810" data-name="パス 2810" d="M613.762,32.877a1.9,1.9,0,1,1,1.9-1.9A1.9,1.9,0,0,1,613.762,32.877Zm0-3.494a1.6,1.6,0,1,0,1.6,1.6A1.6,1.6,0,0,0,613.762,29.383Z" transform="translate(-611.866 -29.085)" fill="#333"/>
        </g>
        <g id="グループ_4176" data-name="グループ 4176" transform="translate(1.316 1.098)">
          <g id="グループ_4175" data-name="グループ 4175">
            <path id="パス_2811" data-name="パス 2811" d="M622.9,38.288h.731a.716.716,0,0,1,.3.054.381.381,0,0,1,.222.38.4.4,0,0,1-.226.384.328.328,0,0,1,.142.1.361.361,0,0,1,.053.2l.008.215a.671.671,0,0,0,.015.137.135.135,0,0,0,.07.1V39.9h-.267a.2.2,0,0,1-.018-.054,1,1,0,0,1-.011-.127l-.013-.268a.227.227,0,0,0-.114-.211.459.459,0,0,0-.19-.03h-.482V39.9H622.9V38.288Zm.707.736a.4.4,0,0,0,.236-.061.253.253,0,0,0,.087-.221.238.238,0,0,0-.121-.234.388.388,0,0,0-.173-.033h-.517v.549h.489Z" transform="translate(-622.9 -38.288)" fill="#333"/>
          </g>
        </g>
      </g>
    </g>
    <text id="さいたま市の生活支援_介護サービス" data-name="さいたま市の生活支援、
介護サービス" transform="translate(5 -9.851)" fill="#333" font-size="8" font-family="NotoSansJP-Medium, Noto Sans JP" font-weight="500" letter-spacing="0.035em"><tspan x="0" y="0">さいたま</tspan><tspan y="0">市</tspan><tspan y="0">の</tspan><tspan y="0">生活支援、</tspan><tspan x="0" y="11">介護</tspan><tspan y="11">サービス</tspan></text>
  </g>
</svg>
