<svg height="44.436" viewBox="0 0 200 44.436" width="200" xmlns="http://www.w3.org/2000/svg" xmlns:xlink="http://www.w3.org/1999/xlink"><linearGradient id="a" gradientUnits="objectBoundingBox" x1="-2.517" x2="2.055" y1="2.021" y2="-.424"><stop offset=".001" stop-color="#6489c6"/><stop offset=".069" stop-color="#6b86c3"/><stop offset=".171" stop-color="#8080bc"/><stop offset=".295" stop-color="#a174b0"/><stop offset=".433" stop-color="#cf64a0"/><stop offset=".5" stop-color="#e85c97"/><stop offset="1" stop-color="#efb917"/></linearGradient><linearGradient id="b" x1="-.477" x2="1.216" xlink:href="#a" y1="4.513" y2="-2.012"/><linearGradient id="c" x1="-2.964" x2=".851" xlink:href="#a" y1="5.449" y2="-.001"/><linearGradient id="d" x1="-2.518" x2="1.297" xlink:href="#a" y1="4.812" y2="-.638"/><linearGradient id="e" x1=".209" x2=".808" xlink:href="#a" y1=".93" y2=".074"/><linearGradient id="f" x1="-1.256" x2=".571" xlink:href="#a" y1="2.98" y2=".4"/><g fill="#3e3a39"><path d="m157.764 38.473h-12.6a1.517 1.517 0 1 0 0 3.034h4.782v12.485a1.517 1.517 0 1 0 3.034 0v-12.485h4.782a1.517 1.517 0 1 0 0-3.034z" transform="translate(-84.926 -22.815)"/><path d="m319.634 38.473h-12.6a1.517 1.517 0 1 0 0 3.034h4.782v12.485a1.517 1.517 0 0 0 3.034 0v-12.485h4.782a1.517 1.517 0 1 0 0-3.034z" transform="translate(-180.546 -22.815)"/><path d="m194.882 45.683a1.517 1.517 0 0 0 -1.517 1.517v11.318a1.517 1.517 0 1 0 3.034 0v-11.318a1.517 1.517 0 0 0 -1.517-1.517z" transform="translate(-114.294 -27.074)"/><circle cx="80.633" cy="15.334" r="1.775"/><path d="m355.114 44.382a7.108 7.108 0 1 0 7.108 7.108 7.116 7.116 0 0 0 -7.108-7.108zm0 11.181a4.073 4.073 0 1 1 4.073-4.073 4.078 4.078 0 0 1 -4.073 4.073z" transform="translate(-205.643 -26.306)"/><path d="m274.194 45a6.43 6.43 0 0 0 -6.423 6.423c0 3.952 1.912 6.554 5.384 7.325a6 6 0 0 0 1.3.14 6.649 6.649 0 0 0 5.209-2.485 1.517 1.517 0 1 0 -2.427-1.82 3.649 3.649 0 0 1 -3.427 1.2 3.421 3.421 0 0 1 -2.877-2.924l8.15.077a1.6 1.6 0 0 0 1.082-.439 1.518 1.518 0 0 0 .45-1.078 6.432 6.432 0 0 0 -6.421-6.419zm-2.994 4.832a3.388 3.388 0 0 1 6.012.057z" transform="translate(-158.247 -26.671)"/><path d="m413.8 46.709a1.517 1.517 0 0 0 -2.035.679l-3.965 7.934-3.36-6.72a1.493 1.493 0 0 0 -.107-.207 1.52 1.52 0 0 0 -2.584 0 1.544 1.544 0 0 0 -.12.239l-3.344 6.687-3.967-7.935a1.517 1.517 0 0 0 -2.714 1.357l5.324 10.648a1.517 1.517 0 0 0 2.714 0l3.4-6.8 3.4 6.8a1.516 1.516 0 0 0 2.714 0l5.324-10.648a1.517 1.517 0 0 0 -.68-2.034z" transform="translate(-231.3 -27.585)"/><path d="m463.594 45.727a6.5 6.5 0 0 0 -6.488 6.488v6.169a1.517 1.517 0 0 0 3.034 0v-6.169a3.458 3.458 0 0 1 6.916 0v6.169a1.517 1.517 0 1 0 3.034 0v-6.169a6.5 6.5 0 0 0 -6.496-6.488z" transform="translate(-270.091 -27.1)"/><path d="m226.3 45.727h-.067a5.1 5.1 0 0 0 -3.581 1.467 5.1 5.1 0 0 0 -3.581-1.467h-.067a5.125 5.125 0 0 0 -5.119 5.119v7.329a1.517 1.517 0 1 0 3.034 0v-7.329a2.087 2.087 0 0 1 2.085-2.085h.067a2.081 2.081 0 0 1 2.057 1.807c0 .092-.014.184-.014.278v3.748a1.517 1.517 0 0 0 1.517 1.517h.021.021a1.517 1.517 0 0 0 1.517-1.517v-3.748c0-.094-.009-.185-.014-.278a2.081 2.081 0 0 1 2.057-1.807h.067a2.087 2.087 0 0 1 2.085 2.085v7.329a1.517 1.517 0 0 0 3.034 0v-7.329a5.127 5.127 0 0 0 -5.119-5.119z" transform="translate(-126.419 -27.1)"/></g><path d="m51.308 28.352a2.677 2.677 0 1 0 -5.353 0v9.815a2.662 2.662 0 0 0 .709 1.805l4.645-4.487z" fill="url(#a)" transform="translate(-27.216 -15.256)"/><path d="m59.525 49.641h-7.194l-4.645 4.487a2.668 2.668 0 0 0 1.968.872h.091 9.723a2.685 2.685 0 0 0 2.677-2.677 2.636 2.636 0 0 0 -2.62-2.682z" fill="url(#b)" transform="translate(-28.239 -29.413)"/><ellipse cx="3.208" cy="3.208" fill="url(#c)" rx="3.208" ry="3.208" transform="translate(18.058 -.001)"/><ellipse cx="3.208" cy="3.208" fill="url(#d)" rx="3.208" ry="3.208" transform="translate(37.882 19.967)"/><path d="m21.907 49.867a21.738 21.738 0 0 1 -11.02-40.475 2.5 2.5 0 0 1 2.54 4.308 16.733 16.733 0 1 0 22.933 22.863 2.5 2.5 0 0 1 4.321 2.527 21.832 21.832 0 0 1 -18.774 10.777z" fill="url(#e)" transform="translate(-.17 -5.432)"/><path d="m79.667 21.371a2.5 2.5 0 0 1 -2.244-1.391 16.9 16.9 0 0 0 -7.307-7.44 2.5 2.5 0 0 1 2.304-4.44 21.943 21.943 0 0 1 9.487 9.659 2.5 2.5 0 0 1 -2.24 3.615z" fill="url(#f)" transform="translate(-40.69 -4.706)"/></svg>