<svg xmlns="http://www.w3.org/2000/svg" width="124.766" height="24.049" viewBox="0 0 124.766 24.049"><g data-name="グループ 4348" fill="#333"><g data-name="グループ 4260"><path data-name="パス 3020" d="M20.13 24.053c2.128 0 3.5-1.866 3.5-5.3 0-3.4-1.372-5.194-3.5-5.194s-3.514 1.782-3.514 5.194 1.384 5.3 3.514 5.3Zm0-1.61c-.9 0-1.568-.868-1.568-3.682s.672-3.588 1.568-3.588 1.554.78 1.554 3.58-.658 3.686-1.554 3.686Zm8.68 1.61a3.446 3.446 0 0 0 3.626-3.514 2.936 2.936 0 0 0-3.192-3.136 2.9 2.9 0 0 0-1.244.276l.2-2.2h3.76v-1.722h-5.544l-.28 5.04.938.6a2.479 2.479 0 0 1 1.554-.544 1.618 1.618 0 0 1 1.75 1.75 1.673 1.673 0 0 1-1.834 1.764 3.22 3.22 0 0 1-2.282-1.05l-.952 1.318a4.722 4.722 0 0 0 3.5 1.418Zm9.212 0c2.128 0 3.5-1.862 3.5-5.292 0-3.4-1.372-5.194-3.5-5.194s-3.514 1.774-3.514 5.186 1.386 5.3 3.514 5.3Zm0-1.61c-.9 0-1.568-.868-1.568-3.682s.672-3.584 1.568-3.584 1.554.776 1.554 3.576-.658 3.686-1.554 3.686Zm5.5-1.862h3.822v-1.47h-3.82Zm9.032 3.472c1.974 0 3.64-1.078 3.64-2.926a2.541 2.541 0 0 0-2.058-2.492v-.07a2.4 2.4 0 0 0 1.722-2.282c0-1.736-1.358-2.716-3.36-2.716a4.61 4.61 0 0 0-3.108 1.286l1.05 1.26a2.834 2.834 0 0 1 1.96-.924c.882 0 1.386.462 1.386 1.246 0 .868-.616 1.5-2.52 1.5v1.484c2.254 0 2.856.6 2.856 1.582 0 .868-.714 1.372-1.764 1.372a3.291 3.291 0 0 1-2.31-1.064l-.966 1.3a4.4 4.4 0 0 0 3.472 1.444Zm6.258-.2h6.23v-1.666H63.1v-8.428h-1.53a6.72 6.72 0 0 1-2.408.868v1.274h1.876v6.286h-2.226Zm11.662.2a3.446 3.446 0 0 0 3.626-3.518 2.936 2.936 0 0 0-3.192-3.136 2.9 2.9 0 0 0-1.246.28l.2-2.2h3.766v-1.722H68.08l-.28 5.04.938.6a2.479 2.479 0 0 1 1.554-.544 1.618 1.618 0 0 1 1.75 1.75 1.673 1.673 0 0 1-1.834 1.764 3.22 3.22 0 0 1-2.282-1.05l-.952 1.316a4.722 4.722 0 0 0 3.5 1.42Zm7.378-4.284 1.61-2.548c.294-.56.574-1.078.826-1.624h.056c-.028.6-.07 1.554-.07 2.156v2.016Zm2.422 4.084h1.918v-2.506h1.218v-1.582h-1.218v-6.006h-2.478l-3.864 6.174v1.414h4.424Zm4.914-3.276h3.822v-1.47h-3.822Zm6.342 3.276h6.23v-1.666h-1.946v-8.428h-1.526a6.72 6.72 0 0 1-2.408.868v1.274h1.876v6.286H91.53Zm8.946 0h6.23v-1.666h-1.946v-8.428h-1.526a6.72 6.72 0 0 1-2.408.868v1.274h1.874v6.286h-2.224Zm11.924.2c2.128 0 3.5-1.862 3.5-5.292 0-3.4-1.372-5.194-3.5-5.194s-3.51 1.774-3.51 5.186 1.386 5.3 3.51 5.3Zm0-1.61c-.9 0-1.568-.868-1.568-3.682s.676-3.588 1.568-3.588 1.558.78 1.558 3.58-.658 3.686-1.558 3.686Zm5.422 1.41h6.944v-1.736H122.5c-.49 0-1.176.056-1.694.112 1.848-1.932 3.472-3.752 3.472-5.516a3.021 3.021 0 0 0-3.262-3.15 4.172 4.172 0 0 0-3.29 1.582l1.12 1.12a2.729 2.729 0 0 1 1.9-1.078 1.46 1.46 0 0 1 1.554 1.638c0 1.5-1.778 3.262-4.48 5.838Z"/><path data-name="パス 2848" d="M8.569 17.097v-2.025l-1.087.194v.833H5.519v-.833l-1.087-.194v2.025H3.14l-1.475 3.228v2.9a.479.479 0 0 0 .454.5h8.761a.479.479 0 0 0 .455-.5v-2.9l-1.493-3.228ZM6.5 22.277a1.836 1.836 0 1 1 1.836-1.836 1.836 1.836 0 0 1-1.837 1.835Z"/><path data-name="パス 2849" d="M11.02 13.643a14.845 14.845 0 0 0-4.52-.658 15.057 15.057 0 0 0-4.52.658A3 3 0 0 0 0 16.109a1.588 1.588 0 0 0 .375 1.05h2.1c.125 0 .4-.544.4-.766a3.305 3.305 0 0 0-.207-.934c.012-.269.119-.465.557-.653a10.914 10.914 0 0 1 3.275-.358 10.915 10.915 0 0 1 3.271.357c.438.188.545.385.557.653a3.305 3.305 0 0 0-.207.934c0 .222.274.766.4.766h2.1A1.588 1.588 0 0 0 13 16.109a3 3 0 0 0-1.98-2.466Z"/></g><path data-name="パス 3019" d="M3.3 4.256a5.121 5.121 0 0 1 1.54-.264c.856 0 1.416.448 1.416 1.136a.822.822 0 0 1-.808.888.553.553 0 0 1-.5-.272 1.541 1.541 0 0 1-.112-.7 2.774 2.774 0 0 1 .016-.352 3.375 3.375 0 0 1-.888.352 2.673 2.673 0 0 0 .136 1.02 1.291 1.291 0 0 0 1.308.888 1.777 1.777 0 0 0 1.816-1.824 2.06 2.06 0 0 0-2.288-1.952 5.547 5.547 0 0 0-1.636.228v-1.04c.3-.032.464-.056.728-.1.552-.1.7-.12.848-.144l-.032-.9a8.922 8.922 0 0 1-1.544.3v-.516a4.912 4.912 0 0 1 .048-.872h-1a5.481 5.481 0 0 1 .048.92v.528c-.088 0-.128 0-.32.008-.112.008-.2.008-.28.008a4.906 4.906 0 0 1-.968-.072l.008.9a1.5 1.5 0 0 1 .168-.008c.024 0 .1 0 .2.008s.32.008.44.008c.2 0 .312 0 .432-.008.264-.016.264-.016.328-.016l.008 1.232a4.28 4.28 0 0 0-1.168.68A1.707 1.707 0 0 0 .56 5.504a1.175 1.175 0 0 0 .44.9 2.492 2.492 0 0 0 1.512.572.7.7 0 0 0 .736-.464 2.382 2.382 0 0 0 .064-.68Zm-.9 1.456c0 .264-.04.336-.176.336a.962.962 0 0 1-.504-.176c-.184-.112-.264-.232-.264-.368 0-.288.352-.64.952-.96Zm5.176-3.376A6.785 6.785 0 0 0 5.992.696l-.752.5a6.832 6.832 0 0 1 1.6 1.728Zm1.936.624h1.44c.264 0 .544.008.736.024a7.54 7.54 0 0 1-.024-.72V.944c0-.312.008-.5.024-.752a6.759 6.759 0 0 1-.816.032H9.456A7.473 7.473 0 0 1 8.64.192a8.945 8.945 0 0 1 .032.9v5.24a7.152 7.152 0 0 1-.048.992h.936a6.862 6.862 0 0 1-.048-.98Zm0-2.08h1.368v.416H9.512Zm0 1.032h1.368v.424H9.512Zm5.848-.824a7.045 7.045 0 0 1 .04-.9 7.636 7.636 0 0 1-.824.032h-1.52a7.2 7.2 0 0 1-.816-.032c.016.232.024.448.024.752v1.32c0 .344-.008.5-.016.72a9.29 9.29 0 0 1 .728-.024h1.544v3.276c0 .176-.04.208-.264.208a9.344 9.344 0 0 1-.984-.072 2.793 2.793 0 0 1 .228.848c.528.032.616.032.744.032a1.631 1.631 0 0 0 .84-.128c.208-.128.28-.336.28-.776ZM13.06.88h1.46v.416h-1.464Zm0 1.032h1.46v.424h-1.464Zm.5 2.152a5.278 5.278 0 0 1 .024-.552 6.573 6.573 0 0 1-.616.024h-1.976c-.232 0-.416-.008-.592-.024.016.168.024.344.024.56v1.712a7.13 7.13 0 0 1-.04.776h.848v-.536h1.784c.232 0 .4.008.568.024a5.009 5.009 0 0 1-.024-.544Zm-2.328.184h1.52v1.048h-1.52Zm6.712-1.064a6.023 6.023 0 0 1 .688-.032h2.736a5.824 5.824 0 0 1 .72.032v-.56a7.775 7.775 0 0 0 1.3.7 4.307 4.307 0 0 1 .44-.88 7.522 7.522 0 0 1-2.04-1.1 5.227 5.227 0 0 1-1.34-1.34H19.5a5.587 5.587 0 0 1-1.26 1.332 7.993 7.993 0 0 1-2.04 1.152 3.1 3.1 0 0 1 .464.816 8.144 8.144 0 0 0 1.28-.672Zm.7-.864h-.224A5.6 5.6 0 0 0 19.988.76a7.308 7.308 0 0 0 1.648 1.56H18.64Zm-.396 4.992v-.408h3.5v.408h.952a5 5 0 0 1-.048-.84V4.604a5.453 5.453 0 0 1 .04-.792 5.248 5.248 0 0 1-.7.032h-4a5.038 5.038 0 0 1-.692-.04 7.223 7.223 0 0 1 .04.792v1.868a6.4 6.4 0 0 1-.04.848Zm0-2.7h3.5v1.5h-3.5Zm12.608 1.04a6.506 6.506 0 0 1-2.312.3c-1.3 0-1.648-.168-1.712-.84-.016-.16-.04-1.032-.04-1.448v-.16l.008-.464v-.216c1.112-.064 1.112-.064 2.328-.112a6.894 6.894 0 0 1-.072 1c-.048.312-.136.416-.344.416a2.481 2.481 0 0 1-1.048-.392 4.259 4.259 0 0 1 .056.656c0 .112 0 .16-.008.32a2.622 2.622 0 0 0 1.144.272.975.975 0 0 0 .976-.6 5.115 5.115 0 0 0 .208-1.7c.376 0 .832-.008 1.112-.008a2.8 2.8 0 0 1 .456.028l-.016-.952a15.427 15.427 0 0 1-1.552.072v-1a3.646 3.646 0 0 1 .04-.552h-1a8.652 8.652 0 0 1 .048 1.584c-1.192.056-1.192.056-2.312.112a9.32 9.32 0 0 1 .072-1.56h-1.072a7.894 7.894 0 0 1 .056 1.36c0 .048 0 .12-.008.248-.792.048-1.232.072-1.3.072-.04 0-.12 0-.232-.008l.064.936a10.926 10.926 0 0 1 1.48-.144c-.008.624-.008.656-.008.776a7.92 7.92 0 0 0 .144 2.184c.236.772.888 1.056 2.38 1.056.528 0 1.584-.056 2.168-.12.272-.032.272-.032.36-.04Z"/></g></svg>
