<svg enable-background="new 0 0 200 200" viewBox="0 0 200 200" xmlns="http://www.w3.org/2000/svg"><circle cx="100" cy="100" fill="#ffec8d" r="100"/><path d="m49.5 49h123.7v102h-123.7z" fill="#a5c396"/><path d="m173.3 153.3h-123.8c-1.2 0-2.3-1-2.3-2.3v-102c0-1.2 1-2.3 2.3-2.3h123.7c1.2 0 2.3 1 2.3 2.3v102c0 1.3-1 2.3-2.2 2.3zm-121.5-4.5h119.2v-97.6h-119.2z" fill="#231815"/><path d="m110.8 49h62.5v102h-62.5z" fill="#fff"/><g fill="#231815"><path d="m173.3 153.3h-62.5c-1.2 0-2.3-1-2.3-2.3v-102c0-1.2 1-2.3 2.3-2.3h62.5c1.2 0 2.3 1 2.3 2.3v102c-.1 1.3-1.1 2.3-2.3 2.3zm-60.3-4.5h58v-97.6h-58z"/><path d="m63.1 91.9c-6 0-11.9-1.8-16.9-5.3-14.4-10-25.6-.6-26.1-.2-.9.8-2.4.7-3.2-.2s-.7-2.4.2-3.2c.1-.1 14.2-12.2 31.6-.2 14.6 10.1 29.6.4 30.2 0 1.1-.7 2.5-.4 3.1.7.7 1 .4 2.4-.6 3.1-5.4 3.3-11.8 5.2-18.3 5.3z"/><path d="m63.1 107.2c-6 0-11.9-1.8-16.9-5.3-14.4-10-25.6-.6-26.1-.2-.9.8-2.4.7-3.2-.2s-.7-2.4.2-3.2c.1-.1 14.2-12.2 31.6-.2 14.6 10.1 29.6.4 30.2 0 1-.7 2.4-.4 3.1.6s.4 2.4-.6 3.1c-5.4 3.5-11.8 5.3-18.3 5.4z"/><path d="m63.1 122.5c-6 0-11.9-1.8-16.9-5.3-14.4-10-25.6-.6-26.1-.2-.9.8-2.4.7-3.2-.2s-.7-2.4.2-3.2c.1-.1 14.2-12.2 31.6-.2 14.6 10.1 29.6.4 30.2 0 1-.7 2.4-.4 3.1.6s.4 2.4-.6 3.1c-5.4 3.5-11.8 5.3-18.3 5.4z"/><path d="m119 112.4c-1.2 0-2.3-1-2.3-2.3v-20.3c0-1.2 1-2.3 2.2-2.3s2.3 1 2.3 2.2v.1 20.3c0 1.3-1 2.3-2.2 2.3z"/></g></svg>