<svg enable-background="new 0 0 200 200" viewBox="0 0 200 200" xmlns="http://www.w3.org/2000/svg"><circle cx="100" cy="100" fill="#ffec8d" r="100"/><path d="m66 172.3 8.4-86.7h44.8l8.4 86.7z" fill="#fff"/><path d="m127.6 174.5h-61.6c-1.3 0-2.3-1-2.3-2.3 0-.1 0-.1 0-.2l8.4-86.6c.1-1.2 1.1-2.1 2.3-2.1h44.9c1.2 0 2.1.9 2.3 2.1l8.4 86.6c.1 1.2-.8 2.4-2 2.5-.2 0-.3 0-.4 0zm-59.1-4.5h56.6l-7.9-82.1h-40.8z" fill="#231815"/><path d="m120.6 100.1h-47.6l-5.1 57.7h57.9z" fill="#a5c396"/><path d="m125.8 160h-57.9c-1.3 0-2.3-1-2.3-2.3 0-.1 0-.1 0-.2l5.1-57.6c.1-1.2 1.1-2.1 2.3-2.1h47.7c1.2 0 2.2.9 2.3 2.1l5.2 57.6c.1 1.2-.8 2.3-2.1 2.5-.1 0-.2 0-.3 0zm-55.4-4.5h52.9l-4.8-53.1h-43.4z" fill="#231815"/><path d="m89.2 57.3h15.3v28.4h-15.3z" fill="#fff"/><g fill="#231815"><path d="m104.4 87.9h-15.2c-1.3 0-2.3-1-2.3-2.3v-28.3c0-1.3 1-2.3 2.3-2.3h15.3c1.3 0 2.3 1 2.3 2.3v28.4c-.1 1.2-1.1 2.2-2.4 2.2zm-12.9-4.5h10.7v-23.9h-10.7z"/><path d="m151.3 40c-.6 0-1.2-.2-1.6-.7-.1-.1-.2-.2-.3-.3s-.2-.3-.2-.4c-.1-.1-.1-.3-.1-.4-.1-.3-.1-.6 0-.9 0-.1.1-.3.1-.4.1-.1.1-.3.2-.4s.2-.2.3-.3.2-.2.3-.3.3-.2.4-.2c.1-.1.3-.1.4-.1.7-.1 1.5.1 2 .6.1.1.2.2.3.3s.2.3.2.4c.1.1.1.3.1.4s0 .3.1.4c0 .2 0 .3-.1.5 0 .1-.1.3-.1.4-.1.1-.1.3-.2.4s-.2.2-.3.3c-.4.5-.9.7-1.5.7z"/><path d="m162.6 40.1c-1.3 0-2.3-1-2.3-2.3 0-1.3 1-2.3 2.3-2.3 1.3 0 2.3 1 2.3 2.3 0 1.3-1 2.3-2.3 2.3z"/><path d="m174 40.1c-.6 0-1.2-.2-1.6-.7-.1-.1-.2-.2-.3-.3s-.2-.3-.2-.4c-.1-.1-.1-.3-.1-.4s0-.3 0-.5c0-.1 0-.3 0-.4s.1-.3.1-.4c.1-.1.1-.3.2-.4s.2-.2.3-.3c.9-.9 2.3-.9 3.2 0 .1.1.2.2.3.3s.2.3.2.4c.1.1.1.3.1.4s0 .3.1.4c0 .2 0 .3-.1.5 0 .1-.1.3-.1.4-.1.1-.1.3-.2.4s-.2.2-.3.3c-.4.5-1 .7-1.6.7z"/><path d="m151.2 50c-.6 0-1.2-.2-1.6-.7-.1-.1-.2-.2-.3-.3s-.2-.3-.2-.4c-.1-.1-.1-.3-.1-.4-.1-.7.1-1.5.6-2.1.9-.8 2.3-.8 3.2 0 .4.4.7 1 .7 1.6v.5c0 .1-.1.3-.1.4s-.1.3-.2.4-.2.2-.3.3-.2.2-.4.3c-.1.1-.2.1-.4.2-.1.1-.3.1-.4.1-.2.1-.3.1-.5.1z"/><path d="m161 54c-1.2-.4-1.7-1.8-1.3-2.9.5-1.2 1.8-1.7 2.9-1.3 1.2.5 1.7 1.8 1.3 2.9-.3.9-1.2 1.4-2.1 1.4-.3 0-.6 0-.8-.1z"/><path d="m172.4 58.2c-.3 0-.6-.1-.9-.2-.1-.1-.3-.1-.4-.2s-.2-.2-.3-.3c-.4-.4-.7-1-.7-1.6 0-.2 0-.3.1-.5 0-.1.1-.3.1-.4.1-.1.1-.3.2-.4s.2-.2.3-.4c.1-.1.2-.2.3-.3s.3-.1.4-.2.3-.1.4-.1c.7-.1 1.5.1 2.1.6.1.1.2.2.3.4.1.1.2.3.2.4.1.1.1.3.1.4v.5c0 1.3-1 2.3-2.2 2.3z"/><path d="m151.3 30.1c-.6 0-1.2-.2-1.6-.7-.5-.5-.8-1.3-.6-2 0-.1.1-.3.1-.4.1-.1.1-.3.2-.4.2-.4.6-.7 1-.8.1-.1.3-.1.4-.1.7-.1 1.5.1 2.1.6.1.1.2.2.3.3s.1.3.2.4.1.3.1.4v.4.5c0 .1-.1.3-.1.4-.1.1-.1.3-.2.4-.2.3-.4.5-.6.6-.1.1-.3.2-.4.2-.1.1-.3.1-.4.1-.2 0-.3.1-.5.1z"/><path d="m159.8 24.6c-.4-1.2.1-2.5 1.3-2.9 1.2-.4 2.5.1 2.9 1.3.4 1.2-.2 2.5-1.3 2.9-.3.1-.5.1-.8.1-.9 0-1.8-.6-2.1-1.4z"/><path d="m172.5 22c-.6 0-1.2-.2-1.6-.7-.5-.5-.8-1.3-.6-2 0-.1.1-.3.1-.4.1-.1.1-.3.2-.4s.2-.2.3-.3.2-.2.3-.3.3-.2.4-.2c.1-.1.3-.1.4-.1 1.2-.2 2.4.6 2.7 1.8.1.7-.1 1.5-.6 2.1-.4.3-1 .5-1.6.5z"/></g><path d="m104.4 57.3 36.4-14.3v-9.3h-72.9v12.3l21.3 11.3z" fill="#fff"/><path d="m105 59.5-15.2.6c-.4 0-.7-.1-1.1-.2l-21.7-10.4c-.8-.4-1.2-1.1-1.3-1.9l-.5-12.3c-.1-1.3.9-2.3 2.2-2.4l72.8-3c1.3-.1 2.3.9 2.4 2.2l.4 9.3c0 .9-.5 1.8-1.4 2.2l-35.7 15.7c-.3.1-.6.2-.9.2zm-14.8-3.9 14.3-.6 33.9-14.9-.2-5.5-68.2 2.8.4 8.7z" fill="#231815"/><path d="m134.2 73.6c-.2 0-.4 0-.5-.1-19.7-4.6-18.4-21.7-18.4-21.9.1-1.2 1.2-2.2 2.5-2 1.2.1 2.1 1.2 2 2.4 0 .6-.9 13.4 14.9 17.1 1.2.3 2 1.5 1.7 2.7-.3 1.1-1.2 1.8-2.2 1.8z" fill="#231815"/><path d="m127.6 48.8c-1.3 0-2.3-1-2.3-2.3v-12.8c0-1.3 1.1-2.2 2.3-2.2s2.2 1 2.2 2.2v12.8c.1 1.3-.9 2.3-2.2 2.3z" fill="#231815"/></svg>