<svg enable-background="new 0 0 200 200" viewBox="0 0 200 200" xmlns="http://www.w3.org/2000/svg"><circle cx="100" cy="100" fill="#ffec8d" r="100"/><path d="m160.8 56-16.8-16.8c-8.2-8.1-21.4-8.1-29.6 0l-32.3 32.4c-17.2 17.2 2.8 34.7-8.9 46.3l-38.2 38.3c-2.4 2.4-2.4 6.4 0 8.9 2.4 2.4 6.4 2.4 8.9 0l38.1-38.3c11.7-11.7 29.1 8.3 46.3-8.9l32.4-32.4c8.2-8.1 8.2-21.4.1-29.5z" fill="#fff"/><path d="m39.4 169.1c-4.7 0-8.5-3.8-8.5-8.4 0-2.2.9-4.4 2.5-6l38.2-38.2c4.4-4.4 3.4-9.9 2.2-16.8-1.6-8.6-3.5-19.2 6.7-29.5l32.4-32.4c9-9 23.6-9 32.7 0l16.7 16.7c9 9 9 23.6 0 32.7l-32.4 32.4c-10.3 10.3-20.9 8.3-29.5 6.7-6.9-1.3-12.4-2.3-16.8 2.2l-38.2 38.2c-1.6 1.5-3.8 2.4-6 2.4zm89.9-133.8c-5 0-9.7 2-13.2 5.5l-32.5 32.4c-8.6 8.6-7.1 17.3-5.5 25.6 1.3 7.2 2.7 14.6-3.4 20.7l-38.2 38.2c-1.6 1.6-1.6 4.2 0 5.8s4.2 1.6 5.8 0l38.2-38.2c6.1-6.1 13.5-4.7 20.7-3.4 8.3 1.5 17 3.1 25.6-5.5l32.4-32.4c7.3-7.3 7.3-19.1 0-26.5l-16.8-16.8c-3.4-3.4-8.2-5.4-13.1-5.4z" fill="#231815"/><path d="m91.4 61h58.6v36.7h-58.6z" fill="#a5c396" transform="matrix(.7071 -.7071 .7071 .7071 -20.7535 108.5607)"/><path d="m112.9 115.2c-.6 0-1.1-.2-1.6-.6l-26-26c-.9-.9-.9-2.2 0-3.1l41.4-41.4c.9-.8 2.2-.8 3.1 0l26 26c.9.9.9 2.2 0 3.1l-41.4 41.4c-.3.4-.9.6-1.5.6zm-22.8-28.1 22.9 22.9 38.3-38.3-22.9-22.9z" fill="#231815"/><path d="m40.7 150.4 8.9 8.9" fill="none"/><g fill="#231815"><path d="m49.6 161.5c-.6 0-1.1-.2-1.5-.6l-8.9-8.9c-.9-.9-.9-2.2 0-3.1s2.2-.9 3.1 0l8.9 8.9c.9.9.9 2.2 0 3.1-.5.3-1 .6-1.6.6z"/><path d="m104.2 83.2c.6-.6 1.2-1.1 2-1.4.6-.3 1.3-.5 2-.5.6 0 1.3.1 1.8.3.6.2 1.1.6 1.5 1s.7.8.9 1.2.4.8.4 1.2c.1.4.1.8 0 1.2s-.2.8-.4 1.2c1.7-1 3.8-.7 5.1.8.6.6 1.1 1.3 1.4 2.2.3.7.3 1.5.3 2.3-.1.8-.3 1.5-.7 2.2s-.9 1.4-1.5 2c-.5.6-1.2 1-1.8 1.4-.6.3-1.2.6-1.9.7s-1.4.1-2.1-.1c-.8-.2-1.6-.5-2.3-.8l.7-1.7c.2-.4.4-.7.8-1 .3-.2.7-.3 1-.2.6.2 1.3.3 1.9.2.5-.1 1-.3 1.4-.7.3-.3.5-.6.6-1 .1-.3.2-.6.2-1 0-.3-.1-.6-.2-.9s-.3-.5-.5-.7c-.2-.3-.5-.5-.8-.7s-.6-.3-.9-.2c-.4 0-.8.2-1.2.4-.6.4-1.1.9-1.6 1.4l-1.9-1.9c.4-.4.8-.9 1.2-1.4.2-.3.4-.7.4-1.1 0-.3 0-.6-.2-.9s-.4-.5-.6-.8c-.4-.5-.9-.7-1.5-.8-.6 0-1.1.3-1.5.7-.8.7-.9 1.8-.5 2.7.2.3.2.7.2 1.1-.2.4-.4.7-.8.9l-1.7 1.2c-.5-.7-.9-1.4-1.1-2.2-.4-1.4-.3-3 .5-4.3.3-.8.8-1.4 1.4-2z"/><path d="m117.9 69.8 1.1 1.2c.3.3.5.6.7.9.1.2.2.5.3.7l5 14c.1.4.2.8.1 1.2-.1.5-.3.9-.6 1.2l-2 2-4.6-13.8c-.1-.4-.2-.7-.3-1.1-.1-.3-.1-.7-.1-1l-5.7 5.7c-.1.1-.2.1-.3.2-.1 0-.2.1-.3.1s-.2 0-.3-.1c-.1 0-.2-.1-.3-.2l-1.8-1.8z"/><path d="m128 82.7c-.2-.2-.4-.4-.5-.7s-.2-.5-.2-.8.1-.6.2-.8c.1-.3.3-.5.5-.7s.5-.4.7-.5c.3-.1.5-.2.8-.2.6 0 1.1.2 1.5.6.2.2.4.4.5.7s.2.5.1.8c0 .3-.1.6-.2.8-.1.3-.3.5-.5.7s-.5.4-.7.5c-.3.1-.5.2-.8.2-.5.1-1-.2-1.4-.6z"/><path d="m129.8 60.1c.2.2.3.4.4.6s.1.4.1.7-.1.5-.2.8c-.2.3-.4.6-.7.8l-3.1 3.1 1.8 2.5c.2-.3.4-.5.6-.8s.4-.5.6-.7c.6-.6 1.3-1.1 2.1-1.5.7-.3 1.4-.5 2.2-.5.7 0 1.4.2 2.1.5s1.3.7 1.8 1.3c.7.6 1.2 1.4 1.5 2.3.3.8.5 1.6.5 2.5s-.2 1.7-.6 2.5c-.4.9-1 1.7-1.6 2.3-.4.4-.8.8-1.3 1.1-.9.6-1.9.9-2.9 1.1-.5.1-.9.1-1.4.1l-.3-2c0-.2 0-.4 0-.6.1-.2.2-.3.3-.5.2-.2.4-.3.6-.4l.8-.2c.3-.1.7-.2 1-.3.4-.2.8-.5 1.1-.8s.6-.7.8-1.1c.1-.4.2-.7.1-1.1s-.2-.8-.4-1.1c-.2-.4-.5-.7-.8-1-.5-.6-1.2-.9-2-.9-.8.1-1.5.4-2 1-.6.6-1 1.3-1.4 2l-2.2 1.2-5.4-7.6 6.6-6.6z"/></g></svg>