<svg enable-background="new 0 0 200 200" viewBox="0 0 200 200" xmlns="http://www.w3.org/2000/svg"><circle cx="100" cy="100" fill="#ffec8d" r="100"/><path d="m147.4 129.1s0 13-47.4 13-47.4-13-47.4-13v-65.1l47.4-6.1 47.4 6.1z" fill="#fff"/><path d="m100 144.7c-47.5 0-49.9-12.9-49.9-15.5v-65.2c0-1.3.9-2.3 2.2-2.5l47.4-6.1h.6l47.4 6.1c1.2.2 2.2 1.2 2.2 2.5v65.2c0 2.5-2.4 15.5-49.9 15.5zm-44.9-15.7c.1.3.7 2.6 5.8 5.1 5.3 2.5 16.4 5.6 39 5.6s33.7-3 39-5.6c5.1-2.4 5.8-4.8 5.8-5.1v-62.8l-44.7-5.8-44.9 5.8z" fill="#231815"/><path d="m147.4 129.1s0 13-47.4 13-47.4-13-47.4-13v-10.3s0 13 47.4 13 47.4-13 47.4-13z" fill="#a5c396"/><g fill="#231815"><path d="m100 144.7c-47.5 0-49.9-12.9-49.9-15.5v-10.3c0-1.4 1-2.5 2.4-2.6s2.5 1 2.6 2.4c0 .2.6 2.6 5.8 5.1 5.3 2.5 16.4 5.6 39 5.6s33.7-3 39-5.6c5.2-2.5 5.8-4.9 5.8-5.1 0-1.4 1.2-2.5 2.6-2.4 1.4 0 2.5 1.2 2.4 2.6v10.3c.2 2.5-2.2 15.5-49.7 15.5zm-44.9-15.7c.1.3.7 2.6 5.8 5.1 5.3 2.5 16.4 5.6 39 5.6s33.7-3 39-5.6c5.1-2.4 5.8-4.8 5.8-5.1v-2.8c-5.8 4-18.2 8.1-44.9 8.1s-39.1-4.1-44.9-8.1zm89.8-10.3v.1zm-89.8.1v-.1z"/><path d="m52.6 128.2h-22.2c-14-.1-25.3-11.5-25.3-25.6.1-13.9 11.3-25.2 25.3-25.3h22.2c1.4 0 2.5 1.1 2.5 2.5s-1.1 2.5-2.5 2.5h-22.2c-11.3.1-20.3 9.3-20.3 20.6.1 11.2 9.1 20.2 20.3 20.3h22.2c1.4 0 2.5 1.1 2.5 2.5s-1.1 2.5-2.5 2.5z"/><path d="m169.6 128.2h-22.2c-1.4 0-2.5-1.1-2.5-2.5s1.1-2.5 2.5-2.5h22.2c11.3-.1 20.3-9.3 20.3-20.6-.1-11.2-9.1-20.2-20.3-20.3h-22.2c-1.4 0-2.5-1.1-2.5-2.5s1.1-2.5 2.5-2.5h22.2c14 .1 25.3 11.5 25.3 25.6-.1 13.9-11.4 25.2-25.3 25.3z"/></g><path d="m147.4 76.2-47.4-6.1-47.4 6.1v-12.2l47.4-6.2 47.4 6.2z" fill="#a5c396"/><path d="m147.4 78.7c-.1 0-.2 0-.3 0l-47.1-6.1-47.1 6.1c-1.4.2-2.6-.8-2.8-2.2 0-.1 0-.2 0-.3v-12.2c0-1.3.9-2.3 2.2-2.5l47.4-6.1h.6l47.4 6.1c1.2.2 2.2 1.2 2.2 2.5v12.3c0 1.3-1.1 2.4-2.5 2.4zm-47.4-11.1h.3l44.6 5.8v-7.2l-44.9-5.8-44.9 5.8v7.2l44.6-5.8z" fill="#231815"/><path d="m100 144.7c-1.4 0-2.5-1.1-2.5-2.5v-84.4c0-1.4 1.1-2.5 2.5-2.5s2.5 1.1 2.5 2.5v84.3c0 1.4-1.1 2.6-2.5 2.6z" fill="#231815"/></svg>