<svg xmlns="http://www.w3.org/2000/svg" width="134" height="36.75" viewBox="0 0 134 36.75"><path fill="none" d="M0 0h134v36.75H0z"/><g fill="#333"><path d="M17 30.37c-2.98 0-5.42-.81-6.87-2.27a5.52 5.52 0 01-1.56-4.15c.02-3.1 1.99-5.03 3.8-6.39a39.08 39.08 0 01-3.74-6.5.42.42 0 01.05-.42 7.15 7.15 0 012.44-1.59.29.29 0 01.14-.02.4.4 0 01.36.25 29.88 29.88 0 003.5 6.42c.72-.44 1.47-.9 2.2-1.37a70.79 70.79 0 003.6-2.3c.72-.5 1.45-1.08 1.84-1.41a.4.4 0 01.25-.1h.02a.4.4 0 01.27.13 9.28 9.28 0 011.43 2.46.36.36 0 01-.11.43c-.55.46-3.08 1.95-5.54 3.4-.54.33-1.06.63-1.54.9l-.06.4-.16 1.23a.4.4 0 01-.2.3 7.43 7.43 0 01-1.89.59h-.05a.33.33 0 01-.2-.06 3.23 3.23 0 01-.62-.46 4.91 4.91 0 00-2.4 3.8 2.65 2.65 0 00.79 2.04A5.98 5.98 0 0017 26.96a16.32 16.32 0 006.6-1.24.6.6 0 01.16-.04.56.56 0 01.17.04.5.5 0 01.21.27 6.91 6.91 0 01-.19 3.18.36.36 0 01-.23.2 20.89 20.89 0 01-6.72 1zM47.27 30.73c-2.73 0-5.65-1.37-5.65-4.39 0-2.28 2.4-3.92 5.73-3.92.48 0 .9.02 1.3.05a55.22 55.22 0 01-.16-5.72.4.4 0 01.3-.35 6.45 6.45 0 011.54-.15 10.3 10.3 0 011.16.07.4.4 0 01.33.43 20.67 20.67 0 00-.12 2.98v.42c0 .49.06 1.3.12 2.17l.06.81a16.9 16.9 0 014.89 2.56.41.41 0 01.15.32 4.08 4.08 0 01-1.31 2.79.37.37 0 01-.23.08.38.38 0 01-.27-.12 12.23 12.23 0 00-3.06-2.24v.06c-.04 1.23-.5 4.15-4.78 4.15zm-.12-5.45c-1.14 0-2.36.29-2.36 1.12 0 .62.76 1.24 2.19 1.24 1.55 0 1.8-.66 1.8-2.1v-.14c-.6-.06-1.12-.12-1.63-.12zm-9.28.81a.17.17 0 01-.1-.02 6.18 6.18 0 01-2.57-1.45.38.38 0 01-.02-.48 40.26 40.26 0 004.56-9.19c-.75.04-1.52.08-2.34.08h-.9a.4.4 0 01-.33-.2 5.93 5.93 0 01-.6-2.68.38.38 0 01.13-.3.4.4 0 01.25-.1h.08a14.38 14.38 0 002.3.2c.83 0 1.6-.02 2.34-.08.1-.38.17-.8.25-1.2a22.35 22.35 0 00.27-2.34.34.34 0 01.14-.27.4.4 0 01.25-.1h.04a8.2 8.2 0 012.8.76.39.39 0 01.2.4c-.1.64-.24 1.37-.46 2.32a17.1 17.1 0 003.25-1 .36.36 0 01.16-.04.4.4 0 01.33.19 5.42 5.42 0 01.46 2.48.38.38 0 01-.23.34 20.35 20.35 0 01-4.84 1.2 53.96 53.96 0 01-5.04 11.3.58.58 0 01-.38.18zm18.2-9.15a.4.4 0 01-.29-.11 17.83 17.83 0 00-5.55-3.62.4.4 0 01-.23-.48 6.6 6.6 0 011.2-2.11.4.4 0 01.29-.12.43.43 0 01.15.02 22.58 22.58 0 015.94 3.6.37.37 0 01.1.37 5.53 5.53 0 01-1.34 2.34.4.4 0 01-.27.11zM74.99 30.99a.56.56 0 01-.18-.04 5.68 5.68 0 01-2.22-2.4.33.33 0 010-.33.5.5 0 01.27-.22c4.76-1.04 7.27-4.3 7.27-9.4 0-3.67-1.18-5.88-3.15-5.88-2.36 0-3.75 3.23-4.1 6.43v.02a13.92 13.92 0 00-.16 3.42.38.38 0 01-.3.4 5.57 5.57 0 01-1.07.08 7.34 7.34 0 01-1.74-.19.42.42 0 01-.29-.35c-.08-1.27-.1-3.4-.08-4.66.02-1.66.23-4.08.39-5.84a32.8 32.8 0 00.15-2.28c.02-.52.04-1 .04-1.4a.39.39 0 01.4-.38 17.93 17.93 0 012.87.25.37.37 0 01.3.46c-.14.62-.5 2.36-.68 4a5.74 5.74 0 014.64-2.97c2.88 0 6.24 2.32 6.24 8.83 0 6.23-3 10.64-8.47 12.42A.38.38 0 0175 31zM106.69 30.02a.38.38 0 01-.27-.12 7.55 7.55 0 01-1.57-2.76.48.48 0 01.06-.33.37.37 0 01.29-.16 12.18 12.18 0 002.16-.3c1.46-.34 4.86-1.67 4.86-6.74a6.38 6.38 0 00-6.13-6.63 48.34 48.34 0 01-.99 7c-1.37 5.8-3.36 8.49-6.28 8.49-2.87 0-5.4-3.66-5.4-7.81 0-6.2 5.02-10.86 11.68-10.86 6.25 0 10.6 4.05 10.6 9.83 0 5.73-3.27 9.52-8.96 10.39zm-3.99-16.83a7.66 7.66 0 00-5.97 7.24c0 2.84 1.37 4.27 2.14 4.27.62 0 1.84-.72 2.96-5.43a35.63 35.63 0 00.87-6.08zM127.29 13.4A6.7 6.7 0 11134 6.7a6.7 6.7 0 01-6.71 6.7zm0-12.36a5.65 5.65 0 105.65 5.65 5.65 5.65 0 00-5.65-5.65z"/><path d="M125.24 3.89h2.59a2.34 2.34 0 011.04.2 1.36 1.36 0 01.8 1.33 1.51 1.51 0 01-.22.83 1.53 1.53 0 01-.58.52 1.45 1.45 0 01.5.35 1.32 1.32 0 01.2.71l.02.76a1.48 1.48 0 00.05.48.5.5 0 00.25.35v.14h-.94l-.06-.2c-.02-.08-.02-.23-.04-.44l-.04-.95a.83.83 0 00-.4-.75 1.51 1.51 0 00-.68-.1h-1.7v2.43h-.78zm2.51 2.59a1.47 1.47 0 00.83-.21.86.86 0 00.31-.78.85.85 0 00-.42-.83 1.36 1.36 0 00-.62-.11h-1.82v1.93z"/></g></svg>
