<svg viewBox="0 0 320 320" xmlns="http://www.w3.org/2000/svg"><rect fill="#fff" height="114.445" rx="8.764" transform="matrix(.95277285 .30368387 -.30368387 .95277285 51.483 -70.958)" width="79.993" x="213.888" y="72.826"/><path d="m268.917 199.468a13.7 13.7 0 0 1 -4.172-.652l-59.514-18.968a13.766 13.766 0 0 1 -8.934-17.294l29.432-92.34a13.763 13.763 0 0 1 17.294-8.934l59.514 18.969a13.765 13.765 0 0 1 8.935 17.294l-29.432 92.34a13.79 13.79 0 0 1 -13.123 9.585zm-30.079-128.84a3.772 3.772 0 0 0 -3.582 2.623l-29.432 92.34a3.764 3.764 0 0 0 2.444 4.729l59.514 18.969a3.768 3.768 0 0 0 4.731-2.444l29.431-92.339a3.766 3.766 0 0 0 -2.443-4.73l-59.515-18.968a3.78 3.78 0 0 0 -1.148-.18z" fill="#333"/><path d="m214.323 106.39h79.122v47.317h-79.122z" fill="#9ccc83" transform="matrix(-.304 .953 -.953 -.304 454.89 -72.353)"/><path d="m264.412 179.927a4.958 4.958 0 0 1 -1.519-.238l-45.082-14.369a5 5 0 0 1 -3.246-6.282l24.029-75.386a5 5 0 0 1 6.282-3.245l45.082 14.369a5 5 0 0 1 3.245 6.283l-24.028 75.385a5 5 0 0 1 -4.763 3.483zm-38.8-22.615 35.555 11.332 20.991-65.859-35.558-11.332z" fill="#333"/><path d="m201.119 293.408-59.519-18.969c-4.611-1.47-6.14-6.076-3.414-10.288l54.584-84.322c2.727-4.211 8.675-6.434 13.287-4.964l59.514 18.969c4.612 1.47 6.141 6.076 3.415 10.287l-54.585 84.323c-2.721 4.211-8.67 6.433-13.282 4.964z" fill="#fff"/><g fill="#333"><path d="m204.1 298.852a14.816 14.816 0 0 1 -4.5-.681l-59.513-18.971a11.631 11.631 0 0 1 -7.6-7.062 12.13 12.13 0 0 1 1.51-10.7l54.584-84.323c3.932-6.075 12.282-9.152 19-7.01l59.519 18.965a11.63 11.63 0 0 1 7.6 7.064 12.127 12.127 0 0 1 -1.509 10.705l-54.591 84.321a17.662 17.662 0 0 1 -14.5 7.692zm-1.076-119.444a7.648 7.648 0 0 0 -6.055 3.138l-54.584 84.322a2.387 2.387 0 0 0 -.491 1.9c.182.506.846.785 1.225.906l59.515 18.969c2.467.788 6.074-.6 7.571-2.917l54.588-84.326a2.381 2.381 0 0 0 .49-1.9c-.181-.508-.845-.786-1.224-.907l-59.515-18.969a5 5 0 0 0 -1.516-.216z"/><path d="m168.492 257.1-6.885-2.194a6.178 6.178 0 0 0 -6.656 2.487l-1.455 2.248a3.241 3.241 0 0 0 1.711 5.153l6.884 2.194a6.177 6.177 0 0 0 6.656-2.486l1.455-2.248a3.241 3.241 0 0 0 -1.71-5.154z"/><path d="m208.92 269.988-6.884-2.194a6.177 6.177 0 0 0 -6.656 2.487l-1.456 2.247a3.242 3.242 0 0 0 1.711 5.154l6.884 2.194a6.179 6.179 0 0 0 6.657-2.487l1.455-2.247a3.242 3.242 0 0 0 -1.711-5.154z"/><path d="m188.706 263.545-6.885-2.194a6.178 6.178 0 0 0 -6.656 2.487l-1.455 2.247a3.242 3.242 0 0 0 1.711 5.154l6.884 2.194a6.177 6.177 0 0 0 6.656-2.487l1.455-2.247a3.241 3.241 0 0 0 -1.71-5.154z"/><path d="m177.838 242.665-6.885-2.194a6.177 6.177 0 0 0 -6.656 2.486l-1.455 2.248a3.24 3.24 0 0 0 1.71 5.153l6.885 2.195a6.177 6.177 0 0 0 6.656-2.487l1.455-2.248a3.24 3.24 0 0 0 -1.71-5.153z"/><path d="m218.266 255.551-6.885-2.195a6.179 6.179 0 0 0 -6.656 2.487l-1.455 2.248a3.241 3.241 0 0 0 1.711 5.153l6.884 2.195a6.179 6.179 0 0 0 6.656-2.487l1.455-2.248a3.24 3.24 0 0 0 -1.71-5.153z"/><path d="m198.052 249.108-6.885-2.194a6.177 6.177 0 0 0 -6.656 2.486l-1.455 2.248a3.241 3.241 0 0 0 1.711 5.153l6.884 2.199a6.179 6.179 0 0 0 6.656-2.487l1.455-2.248a3.24 3.24 0 0 0 -1.71-5.157z"/><path d="m187.183 228.228-6.884-2.2a6.177 6.177 0 0 0 -6.656 2.487l-1.455 2.248a3.24 3.24 0 0 0 1.71 5.153l6.885 2.194a6.177 6.177 0 0 0 6.656-2.486l1.455-2.248a3.241 3.241 0 0 0 -1.711-5.148z"/><path d="m227.612 241.113-6.885-2.194a6.178 6.178 0 0 0 -6.656 2.487l-1.455 2.247a3.242 3.242 0 0 0 1.71 5.154l6.885 2.193a6.177 6.177 0 0 0 6.656-2.487l1.455-2.247a3.241 3.241 0 0 0 -1.71-5.153z"/><path d="m207.4 234.67-6.885-2.194a6.177 6.177 0 0 0 -6.656 2.487l-1.455 2.248a3.24 3.24 0 0 0 1.71 5.153l6.886 2.194a6.179 6.179 0 0 0 6.656-2.486l1.455-2.248a3.241 3.241 0 0 0 -1.711-5.154z"/><path d="m196.529 213.79-6.884-2.194a6.177 6.177 0 0 0 -6.656 2.486l-1.455 2.248a3.241 3.241 0 0 0 1.71 5.154l6.885 2.194a6.178 6.178 0 0 0 6.656-2.487l1.455-2.248a3.241 3.241 0 0 0 -1.711-5.153z"/><path d="m236.958 226.676-6.885-2.195a6.179 6.179 0 0 0 -6.656 2.487l-1.455 2.248a3.24 3.24 0 0 0 1.71 5.153l6.885 2.195a6.179 6.179 0 0 0 6.656-2.487l1.455-2.248a3.241 3.241 0 0 0 -1.71-5.153z"/><path d="m216.743 220.233-6.884-2.194a6.177 6.177 0 0 0 -6.656 2.486l-1.455 2.248a3.24 3.24 0 0 0 1.71 5.153l6.885 2.2a6.178 6.178 0 0 0 6.657-2.492l1.455-2.248a3.241 3.241 0 0 0 -1.712-5.153z"/></g><ellipse cx="223.829" cy="202.872" fill="#fff" rx="9.13" ry="6.959" transform="matrix(.91745631 -.39783655 .39783655 .91745631 -62.235 105.795)"/><path d="m222.043 215.208a13.873 13.873 0 0 1 -4.222-.638 11.028 11.028 0 0 1 -7.2-6.7 11.479 11.479 0 0 1 1.419-10.133c3.682-5.687 11.5-8.572 17.8-6.561a11.029 11.029 0 0 1 7.2 6.7 11.475 11.475 0 0 1 -1.419 10.133 16.537 16.537 0 0 1 -13.578 7.199zm3.532-14.685a6.555 6.555 0 0 0 -5.142 2.645 1.816 1.816 0 0 0 -.4 1.329 1.3 1.3 0 0 0 .825.546 6.316 6.316 0 0 0 6.369-2.468 1.816 1.816 0 0 0 .4-1.328 1.3 1.3 0 0 0 -.826-.547 4.054 4.054 0 0 0 -1.226-.177z" fill="#333"/><rect fill="#fff" height="188.481" rx="11.6" transform="matrix(.985 -.17 .17 .985 -20.394 16.096)" width="114.763" x="26.279" y="32.729"/><path d="m52.58 232.8a16.608 16.608 0 0 1 -16.321-13.779l-28.138-162.866a16.6 16.6 0 0 1 13.531-19.183l90.226-15.588a16.6 16.6 0 0 1 19.184 13.531l28.138 162.868a16.6 16.6 0 0 1 -13.531 19.184l-90.227 15.588a16.807 16.807 0 0 1 -2.862.245zm62.139-201.66a6.743 6.743 0 0 0 -1.138.1l-90.226 15.585a6.6 6.6 0 0 0 -5.38 7.627l28.137 162.868a6.6 6.6 0 0 0 7.627 5.381l90.227-15.588a6.6 6.6 0 0 0 5.381-7.627l-28.138-162.868a6.6 6.6 0 0 0 -6.49-5.478z" fill="#333"/><path d="m20.12 70.391h121.472v80.695h-121.472z" fill="#9ccc83" transform="matrix(.1702439 .98540196 -.98540196 .1702439 176.213 12.21)"/><path d="m51.438 182.457a5 5 0 0 1 -4.927-4.148l-20.68-119.699a5 5 0 0 1 4.075-5.778l79.518-13.738a5 5 0 0 1 5.778 4.075l20.68 119.7a5 5 0 0 1 -4.075 5.779l-79.518 13.736a4.99 4.99 0 0 1 -.851.073zm-14.902-120.622 18.978 109.844 69.663-12.036-18.977-109.843z" fill="#333"/><circle cx="95.515" cy="195.584" fill="#9ccc83" r="10.978"/><path d="m95.485 211.564a16.026 16.026 0 1 1 1.5-.07c-.499.047-1.001.07-1.5.07zm.035-21.958c-.184 0-.37.008-.556.026a5.972 5.972 0 1 0 .556-.026z" fill="#333"/><path d="m0 0h320v320h-320z" fill="none"/></svg>