<svg viewBox="0 0 320 320" xmlns="http://www.w3.org/2000/svg"><path d="m297.3 250.01h-243.557a5 5 0 0 1 -5-5v-171.72a11.073 11.073 0 0 0 -3.195-7.766l-37.689-23.11a5 5 0 1 1 5.227-8.525l38.156 23.4a5.073 5.073 0 0 1 .791.6 21.1 21.1 0 0 1 6.71 15.4v166.721h238.557a5 5 0 0 1 0 10z" fill="#333"/><circle cx="54.587" cy="243.709" fill="#fff" r="38.14" transform="matrix(.92387953 -.38268343 .38268343 .92387953 -89.108 39.441)"/><path d="m54.587 286.849a43.14 43.14 0 1 1 43.14-43.14 43.189 43.189 0 0 1 -43.14 43.14zm0-76.28a33.14 33.14 0 1 0 33.14 33.14 33.178 33.178 0 0 0 -33.14-33.14z" fill="#333"/><path d="m54.586 259.475a15.767 15.767 0 1 1 15.768-15.766 15.783 15.783 0 0 1 -15.768 15.766z" fill="#9ccc83"/><path d="m54.586 264.476a20.768 20.768 0 1 1 20.768-20.767 20.79 20.79 0 0 1 -20.768 20.767zm0-31.535a10.768 10.768 0 1 0 10.768 10.768 10.779 10.779 0 0 0 -10.768-10.768z" fill="#9ccc83"/><circle cx="289.119" cy="261.44" fill="#fff" r="20.408" transform="matrix(.92387953 -.38268343 .38268343 .92387953 -78.041 130.542)"/><path d="m289.119 286.849a25.409 25.409 0 1 1 25.408-25.409 25.438 25.438 0 0 1 -25.408 25.409zm0-40.818a15.409 15.409 0 1 0 15.408 15.409 15.427 15.427 0 0 0 -15.408-15.409z" fill="#333"/><rect fill="#fff" height="130.441" rx="7.011" width="184.828" x="89.403" y="87.008"/><path d="m267.221 222.448h-170.807a12.024 12.024 0 0 1 -12.014-12.01v-116.419a12.025 12.025 0 0 1 12.014-12.011h170.807a12.024 12.024 0 0 1 12.01 12.011v116.419a12.023 12.023 0 0 1 -12.01 12.01zm-170.807-130.44a2.013 2.013 0 0 0 -2.014 2.011v116.419a2.012 2.012 0 0 0 2.011 2.01h170.81a2.011 2.011 0 0 0 2.01-2.01v-116.419a2.012 2.012 0 0 0 -2.01-2.011z" fill="#333"/><path d="m163.825 87.008h35.985v51.283h-35.985z" fill="#9ccc83"/><path d="m199.81 143.291h-35.985a5 5 0 0 1 -5-5v-51.283a5 5 0 0 1 5-5h35.985a5 5 0 0 1 5 5v51.283a5 5 0 0 1 -5 5zm-30.985-10h25.985v-41.283h-25.985z" fill="#333"/><path d="m0 0h320v320h-320z" fill="none"/></svg>