<svg viewBox="0 0 320 320" xmlns="http://www.w3.org/2000/svg"><path d="m-1.944 0h320v320h-320z" fill="none"/><path d="m225.617 112.033v-70.759h-131.234v70.759h-72.915v177.693h277.064v-177.693z" fill="#fff"/><path d="m298.531 294.726h-277.063a5 5 0 0 1 -5-5v-177.693a5 5 0 0 1 5-5h67.915v-65.759a5 5 0 0 1 5-5h131.234a5 5 0 0 1 5 5v65.759h67.914a5 5 0 0 1 5 5v177.693a5 5 0 0 1 -5 5zm-272.063-10h267.063v-167.693h-67.914a5 5 0 0 1 -5-5v-65.759h-121.234v65.759a5 5 0 0 1 -5 5h-67.915z" fill="#333"/><path d="m186.104 78.527h-19.637v-17.843h-16.823v17.843h-19.637v18.608h19.637v17.843h16.823v-17.843h19.637z" fill="#f95035"/><path d="m115.678 230.631h88.645v59.095h-88.645z" fill="#fff"/><g fill="#333"><path d="m204.322 294.726h-88.644a5 5 0 0 1 -5-5v-59.095a5 5 0 0 1 5-5h88.644a5 5 0 0 1 5 5v59.1a5 5 0 0 1 -5 4.995zm-83.644-10h78.644v-49.095h-78.644z"/><path d="m160 293a5 5 0 0 1 -5-5v-57.369a5 5 0 1 1 10 0v57.369a5 5 0 0 1 -5 5z"/><path d="m77.961 167.393h-26.493a5 5 0 0 1 -5-5v-22.393a5 5 0 0 1 5-5h26.493a5 5 0 0 1 5 5v22.391a5 5 0 0 1 -5 5.002zm-21.493-10h16.493v-12.393h-16.493z"/><path d="m77.961 209.784h-26.493a5 5 0 0 1 -5-5v-22.391a5 5 0 0 1 5-5h26.493a5 5 0 0 1 5 5v22.391a5 5 0 0 1 -5 5zm-21.493-10h16.493v-12.391h-16.493z"/><path d="m125.6 167.393h-26.489a5 5 0 0 1 -5-5v-22.393a5 5 0 0 1 5-5h26.489a5 5 0 0 1 5 5v22.391a5 5 0 0 1 -5 5.002zm-21.493-10h16.493v-12.393h-16.489z"/><path d="m125.6 209.784h-26.489a5 5 0 0 1 -5-5v-22.391a5 5 0 0 1 5-5h26.489a5 5 0 0 1 5 5v22.391a5 5 0 0 1 -5 5zm-21.493-10h16.493v-12.391h-16.489z"/><path d="m173.246 167.393h-26.492a5 5 0 0 1 -5-5v-22.393a5 5 0 0 1 5-5h26.492a5 5 0 0 1 5 5v22.391a5 5 0 0 1 -5 5.002zm-21.492-10h16.492v-12.393h-16.492z"/><path d="m173.246 209.784h-26.492a5 5 0 0 1 -5-5v-22.391a5 5 0 0 1 5-5h26.492a5 5 0 0 1 5 5v22.391a5 5 0 0 1 -5 5zm-21.492-10h16.492v-12.391h-16.492z"/><path d="m220.889 167.393h-26.489a5 5 0 0 1 -5-5v-22.393a5 5 0 0 1 5-5h26.493a5 5 0 0 1 5 5v22.391a5 5 0 0 1 -5.004 5.002zm-21.493-10h16.493v-12.393h-16.489z"/><path d="m220.889 209.784h-26.489a5 5 0 0 1 -5-5v-22.391a5 5 0 0 1 5-5h26.493a5 5 0 0 1 5 5v22.391a5 5 0 0 1 -5.004 5zm-21.493-10h16.493v-12.391h-16.489z"/><path d="m268.531 167.393h-26.492a5 5 0 0 1 -5-5v-22.393a5 5 0 0 1 5-5h26.492a5 5 0 0 1 5 5v22.391a5 5 0 0 1 -5 5.002zm-21.492-10h16.492v-12.393h-16.492z"/><path d="m268.531 209.784h-26.492a5 5 0 0 1 -5-5v-22.391a5 5 0 0 1 5-5h26.492a5 5 0 0 1 5 5v22.391a5 5 0 0 1 -5 5zm-21.492-10h16.492v-12.391h-16.492z"/></g></svg>