<svg viewBox="0 0 320 320" xmlns="http://www.w3.org/2000/svg"><path d="m0 0h320v320h-320z" fill="none"/><path d="m272.588 303.3c-26.864 5.129-37.212-16.138-37.212-16.138s3.727-23.954 28.65-28.712c19.888-3.8 37.252 16.131 37.252 16.131s-11.356 25.41-28.69 28.719z" fill="#9ccc83"/><path d="m264.632 309.08c-18.851 0-30.131-12.288-33.752-19.73a4.992 4.992 0 0 1 -.444-2.956c1.476-9.49 10.2-28.569 32.653-32.855s41.173 16.855 41.959 17.757a5 5 0 0 1 .8 5.325c-.507 1.135-12.646 27.836-32.318 31.59a47.337 47.337 0 0 1 -8.898.869zm-23.959-22.732c2.633 4.114 11.89 15.681 30.977 12.041 10.531-2.01 19.524-15.208 23.579-22.835-4.945-4.691-17.246-14.671-30.265-12.193-17.713 3.382-23.007 18.099-24.291 22.987z" fill="#333"/><path d="m238.973 288.975a2.5 2.5 0 0 1 -.466-4.956l36.359-6.941a2.5 2.5 0 1 1 .938 4.911l-36.36 6.941a2.528 2.528 0 0 1 -.471.045z" fill="#333"/><path d="m250.666 245.439s-9.172 39.032-1.151 63.405l-131.727-49.882c22.154-12.947 41.136-48.263 41.136-48.263z" fill="#fff"/><path d="m249.514 313.844a4.991 4.991 0 0 1 -1.77-.324l-131.726-49.882a5 5 0 0 1 -.752-8.993c20.7-12.1 39.071-45.973 39.254-46.313a5 5 0 0 1 6.174-2.309l91.743 34.741a5 5 0 0 1 3.1 5.818c-.089.377-8.751 37.967-1.27 60.7a5 5 0 0 1 -4.75 6.563zm-121.142-56.22 114.1 43.207c-3.212-19.533.554-42.752 2.416-52.233l-83.728-31.706c-4.885 8.336-17.443 28.226-32.788 40.732z" fill="#333"/><path d="m174.214 216.489s-17.347 35.935-34.471 50.787" fill="#fff"/><path d="m139.745 272.275a5 5 0 0 1 -3.278-8.777c16.159-14.014 33.076-48.833 33.245-49.183a5 5 0 0 1 9.006 4.348c-.727 1.5-18 37.04-35.7 52.39a4.988 4.988 0 0 1 -3.273 1.222z" fill="#333"/><path d="m189.505 222.279s-15.712 36.554-27.808 53.31" fill="#fff"/><path d="m161.693 280.59a5 5 0 0 1 -4.049-7.927c11.638-16.123 27.112-52 27.267-52.359a5 5 0 0 1 9.188 3.949c-.651 1.514-16.071 37.256-28.348 54.263a5 5 0 0 1 -4.058 2.074z" fill="#333"/><path d="m204.8 228.069-21.148 55.831" fill="#fff"/><path d="m183.65 288.9a5 5 0 0 1 -4.674-6.772l21.143-55.828a5 5 0 0 1 9.352 3.541l-21.144 55.834a5 5 0 0 1 -4.677 3.225z" fill="#333"/><path d="m220.085 233.859s-12.442 37.793-14.479 58.358" fill="#fff"/><path d="m205.612 297.217a4.947 4.947 0 0 1 -.5-.025 5 5 0 0 1 -4.482-5.468c2.067-20.873 14.189-57.864 14.705-59.428a5 5 0 1 1 9.5 3.127c-.122.372-12.293 37.51-14.252 57.286a5 5 0 0 1 -4.971 4.508z" fill="#333"/><path d="m235.376 239.649s-10.807 38.412-7.815 60.881" fill="#fff"/><path d="m227.555 305.531a5 5 0 0 1 -4.951-4.341c-3.091-23.223 7.506-61.286 7.958-62.9a5 5 0 0 1 9.627 2.71c-.1.374-10.492 37.691-7.672 58.868a5.008 5.008 0 0 1 -4.962 5.66z" fill="#333"/><path d="m254.83 11.086a10.425 10.425 0 0 1 10.425 10.425v160.37a0 0 0 0 1 0 0h-20.855a0 0 0 0 1 0 0v-160.37a10.425 10.425 0 0 1 10.43-10.425z" fill="#fff" transform="matrix(.93519085 .35414414 -.35414414 .93519085 50.683 -83.992)"/><path d="m234.337 185.039a5.008 5.008 0 0 1 -1.771-.324l-19.5-7.384a5 5 0 0 1 -2.905-6.447l56.794-149.977a15.425 15.425 0 0 1 28.851 10.926l-56.793 149.977a5 5 0 0 1 -4.676 3.229zm-13.053-15.289 10.148 3.842 55.022-145.3a5.425 5.425 0 1 0 -10.147-3.843z" fill="#333"/><path d="m249.905 248.537-92.105-34.877 12.975-34.26a23.564 23.564 0 0 1 25.825-14.908 152.591 152.591 0 0 1 56.8 21.51 23.561 23.561 0 0 1 9.472 28.278z" fill="#fff"/><path d="m249.9 253.539a4.956 4.956 0 0 1 -1.769-.326l-92.1-34.877a5 5 0 0 1 -2.905-6.446l12.974-34.258a28.654 28.654 0 0 1 31.307-18.074 156.75 156.75 0 0 1 58.664 22.214 28.655 28.655 0 0 1 11.483 34.279l-12.973 34.257a5 5 0 0 1 -4.681 3.231zm-85.655-42.784 82.755 31.336 11.2-29.581a18.625 18.625 0 0 0 -7.463-22.278 146.785 146.785 0 0 0 -54.937-20.805 18.625 18.625 0 0 0 -20.347 11.746z" fill="#333"/><path d="m157.987 212.653h98.485v19.063h-98.485z" fill="#9ccc83" transform="matrix(.93519085 .35414414 -.35414414 .93519085 92.114 -58.989)"/><path d="m249.905 253.538a4.982 4.982 0 0 1 -1.77-.325l-92.1-34.877a5 5 0 0 1 -2.905-6.446l6.751-17.828a5 5 0 0 1 6.446-2.906l92.1 34.878a5 5 0 0 1 2.9 6.446l-6.751 17.828a5 5 0 0 1 -4.676 3.23zm-85.656-42.783 82.751 31.336 3.21-8.476-82.751-31.336z" fill="#333"/><path d="m220.569 145.202h20.85v28.452h-20.85z" fill="#9ccc83" transform="matrix(.93519085 .35414414 -.35414414 .93519085 71.43 -71.472)"/><path d="m235.706 181.424a5 5 0 0 1 -1.77-.324l-19.5-7.384a5 5 0 0 1 -2.906-6.446l10.076-26.608a5 5 0 0 1 6.447-2.906l19.5 7.385a5 5 0 0 1 2.905 6.446l-10.076 26.613a5 5 0 0 1 -4.676 3.229zm-13.054-15.289 10.149 3.843 6.534-17.256-10.147-3.843z" fill="#333"/><rect fill="#fff" height="96.782" rx="8.389" transform="matrix(.9666001 -.25628937 .25628937 .9666001 -25.699 28.166)" width="146.725" x="21.855" y="64.292"/><g fill="#333"><path d="m42.645 181.4a13.4 13.4 0 0 1 -12.92-9.964l-20.504-77.336a13.389 13.389 0 0 1 9.51-16.373l125.607-33.3a13.388 13.388 0 0 1 16.373 9.511l20.5 77.331a13.4 13.4 0 0 1 -9.511 16.371l-125.6 33.303a13.466 13.466 0 0 1 -3.455.457zm105.129-127.425a3.4 3.4 0 0 0 -.874.115l-125.606 33.303a3.389 3.389 0 0 0 -2.407 4.144l20.5 77.333a3.4 3.4 0 0 0 4.144 2.407l125.607-33.3a3.394 3.394 0 0 0 2.407-4.145l-20.5-77.332a3.392 3.392 0 0 0 -3.271-2.522z"/><path d="m47.8 163.73a2.495 2.495 0 0 1 -2.416-1.858l-.513-1.934a2.5 2.5 0 0 1 4.675-1.714 2.5 2.5 0 0 1 .827 4.91l-1.933.513a2.482 2.482 0 0 1 -.64.083z"/><path d="m44.806 152.45a2.5 2.5 0 0 1 -2.415-1.86l-1.1-4.154a2.5 2.5 0 0 1 4.834-1.282l1.1 4.155a2.5 2.5 0 0 1 -2.419 3.141zm-3.58-13.5a2.5 2.5 0 0 1 -2.414-1.86l-1.1-4.154a2.5 2.5 0 1 1 4.832-1.282l1.1 4.155a2.5 2.5 0 0 1 -2.418 3.141zm-3.58-13.5a2.5 2.5 0 0 1 -2.416-1.86l-1.1-4.155a2.5 2.5 0 0 1 4.834-1.281l1.1 4.155a2.5 2.5 0 0 1 -2.418 3.141zm-3.581-13.5a2.5 2.5 0 0 1 -2.415-1.86l-1.1-4.154a2.5 2.5 0 0 1 4.834-1.282l1.1 4.155a2.5 2.5 0 0 1 -1.776 3.057 2.464 2.464 0 0 1 -.643.077z"/><path d="m30.485 98.441a2.5 2.5 0 0 1 -2.414-1.859l-.512-1.934a2.5 2.5 0 0 1 1.775-3.057l1.934-.513a2.5 2.5 0 0 1 1.712 4.675 2.5 2.5 0 0 1 -2.495 2.688z"/><path d="m40.571 93.7a2.5 2.5 0 0 1 -.638-4.917l3.851-1.021a2.5 2.5 0 1 1 1.281 4.833l-3.851 1.021a2.507 2.507 0 0 1 -.643.084zm12.517-3.319a2.5 2.5 0 0 1 -.639-4.917l3.851-1.023a2.5 2.5 0 0 1 1.281 4.833l-3.851 1.026a2.483 2.483 0 0 1 -.642.079zm12.512-3.32a2.5 2.5 0 0 1 -.639-4.917l3.851-1.021a2.5 2.5 0 1 1 1.288 4.833l-3.852 1.021a2.505 2.505 0 0 1 -.648.084zm12.52-3.319a2.5 2.5 0 0 1 -.639-4.917l3.852-1.025a2.5 2.5 0 1 1 1.281 4.833l-3.851 1.021a2.5 2.5 0 0 1 -.643.088zm12.517-3.319a2.5 2.5 0 0 1 -.637-4.917l3.851-1.021a2.5 2.5 0 0 1 1.281 4.833l-3.851 1.021a2.5 2.5 0 0 1 -.644.084zm12.515-3.318a2.5 2.5 0 0 1 -.638-4.917l3.851-1.021a2.5 2.5 0 1 1 1.281 4.833l-3.846 1.021a2.507 2.507 0 0 1 -.648.084zm12.517-3.319a2.5 2.5 0 0 1 -.639-4.917l3.852-1.021a2.5 2.5 0 0 1 1.281 4.833l-3.851 1.019a2.507 2.507 0 0 1 -.643.086zm12.517-3.318a2.5 2.5 0 0 1 -.639-4.917l3.85-1.021a2.5 2.5 0 0 1 1.282 4.833l-3.851 1.021a2.505 2.505 0 0 1 -.642.084z"/><path d="m143.147 68.57a2.5 2.5 0 0 1 -2.256-1.428 2.5 2.5 0 0 1 -.828-4.91l1.937-.513a2.5 2.5 0 0 1 3.057 1.776l.512 1.934a2.5 2.5 0 0 1 -2.418 3.141z"/><path d="m157.468 122.579a2.5 2.5 0 0 1 -2.415-1.86l-1.1-4.155a2.5 2.5 0 0 1 4.834-1.281l1.1 4.155a2.5 2.5 0 0 1 -2.419 3.141zm-3.58-13.5a2.5 2.5 0 0 1 -2.415-1.86l-1.1-4.155a2.5 2.5 0 0 1 4.834-1.281l1.1 4.155a2.5 2.5 0 0 1 -2.419 3.141zm-3.58-13.5a2.5 2.5 0 0 1 -2.414-1.86l-1.1-4.154a2.5 2.5 0 1 1 4.832-1.281l1.1 4.154a2.5 2.5 0 0 1 -2.418 3.141zm-3.58-13.5a2.5 2.5 0 0 1 -2.416-1.86l-1.1-4.154a2.5 2.5 0 1 1 4.834-1.282l1.1 4.155a2.5 2.5 0 0 1 -2.418 3.141z"/><path d="m158.525 134.373a2.5 2.5 0 0 1 -1.07-4.76 2.5 2.5 0 0 1 4.909-.828l.513 1.933a2.5 2.5 0 0 1 -1.775 3.058l-1.934.513a2.507 2.507 0 0 1 -.643.084z"/><path d="m58.4 160.921a2.5 2.5 0 0 1 -.643-4.921l3.85-1.021a2.5 2.5 0 0 1 1.282 4.833l-3.851 1.021a2.505 2.505 0 0 1 -.638.088zm12.511-3.321a2.5 2.5 0 0 1 -.639-4.917l3.852-1.021a2.5 2.5 0 1 1 1.281 4.833l-3.851 1.021a2.507 2.507 0 0 1 -.643.084zm12.517-3.319a2.5 2.5 0 0 1 -.639-4.917l3.852-1.021a2.5 2.5 0 1 1 1.281 4.833l-3.852 1.024a2.5 2.5 0 0 1 -.642.084zm12.516-3.319a2.5 2.5 0 0 1 -.638-4.917l3.85-1.021a2.5 2.5 0 0 1 1.282 4.833l-3.851 1.021a2.507 2.507 0 0 1 -.643.087zm12.516-3.318a2.5 2.5 0 0 1 -.639-4.917l3.852-1.022a2.5 2.5 0 0 1 1.281 4.834l-3.851 1.021a2.5 2.5 0 0 1 -.643.087zm12.517-3.319a2.5 2.5 0 0 1 -.639-4.917l3.851-1.021a2.5 2.5 0 1 1 1.282 4.833l-3.852 1.021a2.505 2.505 0 0 1 -.642.087zm12.516-3.318a2.5 2.5 0 0 1 -.639-4.917l3.851-1.022a2.5 2.5 0 1 1 1.281 4.833l-3.85 1.022a2.54 2.54 0 0 1 -.643.087zm12.516-3.319a2.5 2.5 0 0 1 -.639-4.917l3.852-1.021a2.5 2.5 0 1 1 1.281 4.833l-3.852 1.021a2.494 2.494 0 0 1 -.642.087z"/><path d="m47.8 163.73a2.5 2.5 0 0 1 -1.788-4.247l2.795-2.861a2.5 2.5 0 1 1 3.576 3.494l-2.795 2.862a2.492 2.492 0 0 1 -1.788.752zm9.084-9.3a2.5 2.5 0 0 1 -1.788-4.247l2.8-2.862a2.5 2.5 0 1 1 3.576 3.494l-2.8 2.862a2.493 2.493 0 0 1 -1.789.754zm9.083-9.3a2.5 2.5 0 0 1 -1.788-4.247l2.8-2.862a2.5 2.5 0 1 1 3.576 3.5l-2.8 2.861a2.493 2.493 0 0 1 -1.789.749zm9.084-9.3a2.5 2.5 0 0 1 -1.788-4.247l2.8-2.861a2.5 2.5 0 1 1 3.576 3.493l-2.8 2.862a2.493 2.493 0 0 1 -1.789.754zm9.084-9.3a2.5 2.5 0 0 1 -1.788-4.246l2.8-2.862a2.5 2.5 0 1 1 3.576 3.493l-2.8 2.862a2.493 2.493 0 0 1 -1.789.754zm9.083-9.3a2.5 2.5 0 0 1 -1.788-4.246l2.8-2.862a2.5 2.5 0 1 1 3.576 3.493l-2.8 2.862a2.493 2.493 0 0 1 -1.789.754zm9.084-9.3a2.5 2.5 0 0 1 -1.788-4.247l2.8-2.862a2.5 2.5 0 1 1 3.576 3.493l-2.8 2.862a2.49 2.49 0 0 1 -1.79.756zm9.084-9.3a2.5 2.5 0 0 1 -1.788-4.247l2.8-2.862a2.5 2.5 0 1 1 3.576 3.494l-2.8 2.861a2.49 2.49 0 0 1 -1.789.756zm9.083-9.3a2.5 2.5 0 0 1 -1.788-4.247l2.795-2.861a2.5 2.5 0 1 1 3.576 3.493l-2.8 2.862a2.493 2.493 0 0 1 -1.784.755zm9.084-9.3a2.5 2.5 0 0 1 -1.788-4.247l2.8-2.862a2.5 2.5 0 1 1 3.576 3.494l-2.795 2.862a2.493 2.493 0 0 1 -1.794.755zm9.084-9.3a2.5 2.5 0 0 1 -1.788-4.247l2.795-2.861a2.5 2.5 0 1 1 3.576 3.494l-2.795 2.861a2.493 2.493 0 0 1 -1.789.755z"/><path d="m158.8 133.385a2.5 2.5 0 0 1 -.69-.1l-3.845-1.1a2.5 2.5 0 1 1 1.377-4.807l3.845 1.1a2.5 2.5 0 0 1 -.687 4.9zm-12.5-3.578a2.5 2.5 0 0 1 -.69-.1l-3.845-1.1a2.5 2.5 0 0 1 1.377-4.807l3.845 1.1a2.5 2.5 0 0 1 -.687 4.9zm-12.5-3.578a2.5 2.5 0 0 1 -.69-.1l-3.845-1.1a2.5 2.5 0 1 1 1.376-4.806l3.846 1.1a2.5 2.5 0 0 1 -.687 4.9zm-12.5-3.577a2.5 2.5 0 0 1 -.69-.1l-3.846-1.1a2.5 2.5 0 0 1 1.377-4.807l3.846 1.1a2.5 2.5 0 0 1 -.687 4.9zm-12.5-3.578a2.5 2.5 0 0 1 -.69-.1l-3.846-1.1a2.5 2.5 0 0 1 1.377-4.807l3.846 1.1a2.5 2.5 0 0 1 -.687 4.9zm-12.5-3.577a2.493 2.493 0 0 1 -.689-.1l-3.846-1.1a2.5 2.5 0 0 1 1.375-4.807l3.846 1.1a2.5 2.5 0 0 1 -.686 4.9zm-12.5-3.578a2.485 2.485 0 0 1 -.688-.1l-3.846-1.1a2.5 2.5 0 1 1 1.375-4.806l3.846 1.1a2.5 2.5 0 0 1 -.687 4.9zm-12.5-3.578a2.485 2.485 0 0 1 -.688-.1l-3.846-1.1a2.5 2.5 0 1 1 1.375-4.807l3.846 1.1a2.5 2.5 0 0 1 -.687 4.9zm-12.5-3.577a2.523 2.523 0 0 1 -.688-.1l-3.846-1.1a2.5 2.5 0 0 1 1.375-4.807l3.846 1.1a2.5 2.5 0 0 1 -.687 4.9zm-12.5-3.578a2.485 2.485 0 0 1 -.688-.1l-3.846-1.1a2.5 2.5 0 1 1 1.375-4.806l3.846 1.1a2.5 2.5 0 0 1 -.687 4.9zm-12.5-3.578a2.485 2.485 0 0 1 -.688-.1l-3.846-1.1a2.5 2.5 0 1 1 1.396-4.808l3.846 1.1a2.5 2.5 0 0 1 -.687 4.9z"/></g><path d="m126.43 236.283c19.565 19.111 8.031 39.759 8.031 39.759s-21.784 10.635-39.936-7.095c-14.484-14.147-8.06-39.786-8.06-39.786s27.341-5.208 39.965 7.122z" fill="#9ccc83"/><path d="m119.472 284.187a39.884 39.884 0 0 1 -28.441-11.663c-16.35-15.97-9.706-43.418-9.415-44.578a5 5 0 0 1 3.914-3.7c1.22-.233 30.068-5.535 44.394 8.457 17.641 17.231 13.537 37.476 8.9 45.773a4.991 4.991 0 0 1 -2.172 2.055 40.705 40.705 0 0 1 -17.18 3.656zm-28.75-50.611c-1.023 6.742-2.173 22.544 7.3 31.795 12.95 12.649 27.956 8.578 32.742 6.8 1.869-4.5 6.082-18.724-7.826-32.309-7.638-7.462-23.629-7.309-32.216-6.286z" fill="#333"/><path d="m131.84 275.981a2.491 2.491 0 0 1 -1.747-.711l-26.481-25.865a2.5 2.5 0 0 1 3.494-3.577l26.481 25.865a2.5 2.5 0 0 1 -1.747 4.288z" fill="#333"/><path d="m63.176 257.522c26.336-7.378 38.442 12.939 38.442 12.939s-1.691 24.183-26.124 31.028c-19.494 5.462-38.481-12.929-38.481-12.929s9.17-26.278 26.163-31.038z" fill="#9ccc83"/><path d="m67.981 307.507c-18.353 0-33.7-14.637-34.447-15.356a5 5 0 0 1 -1.241-5.238c.409-1.174 10.251-28.8 29.534-34.206 23.747-6.654 39.221 7.03 44.086 15.194a5 5 0 0 1 .693 2.909c-.67 9.58-7.753 29.327-29.764 35.493a32.71 32.71 0 0 1 -8.861 1.204zm-25.021-20.427c5.322 4.256 18.436 13.165 31.185 9.594 17.434-4.884 21.415-19.914 22.269-24.948-2.964-3.872-13.165-14.633-31.89-9.39-10.324 2.892-18.168 16.802-21.564 24.744z" fill="#333"/><path d="m62.444 283.936a2.5 2.5 0 0 1 -.673-4.908l35.644-9.986a2.5 2.5 0 0 1 1.35 4.815l-35.645 9.985a2.472 2.472 0 0 1 -.676.094z" fill="#333"/></svg>