<svg viewBox="0 0 320 320" xmlns="http://www.w3.org/2000/svg"><path d="m133.694 157.53a144.858 144.858 0 0 0 1.6-46.787c-5.979-49.183-33.325-86.317-61.076-82.943s-45.398 45.985-39.418 95.167a144.844 144.844 0 0 0 12.774 45.039z" fill="#9ccc83"/><path d="m47.575 173.006a5 5 0 0 1 -4.5-2.83 150.465 150.465 0 0 1 -13.232-46.6c-3-24.628-.368-48.52 7.4-67.277 8.163-19.719 21.08-31.599 36.371-33.461s30.68 6.578 43.333 23.76c12.038 16.347 20.319 38.914 23.314 63.542a150.477 150.477 0 0 1 -1.674 48.418 5 5 0 0 1 -4.289 3.936l-86.118 10.476a5.141 5.141 0 0 1 -.605.036zm30.167-140.417a23.952 23.952 0 0 0 -2.92.177c-11.553 1.405-21.622 11.12-28.342 27.354-7.121 17.192-9.5 39.3-6.713 62.244a142.522 142.522 0 0 0 10.818 40.236l78.893-9.6a142.5 142.5 0 0 0 .856-41.659c-2.791-22.947-10.4-43.835-21.439-58.819-9.545-12.956-20.501-19.933-31.153-19.933z" fill="#333"/><path d="m52.977 191.189c7.091 29.029 26.606 49.319 46.816 46.861s34.292-26.836 34.217-56.718z" fill="#9ccc83"/><path d="m96.513 243.249c-21.066 0-41.011-20.652-48.393-50.874a5 5 0 0 1 4.253-6.15l81.033-9.857a5 5 0 0 1 5.6 4.951c.083 33.017-16.155 58.963-38.613 61.7a32.279 32.279 0 0 1 -3.88.23zm-37.159-47.8c7.462 23.674 23.961 39.569 39.835 37.637s28.082-21.317 29.65-46.088z" fill="#333"/><path d="m260.682 230.422a144.831 144.831 0 0 0 19.728-42.455c13.677-47.62 2.983-92.48-23.886-100.2s-59.738 24.63-73.416 72.251a144.84 144.84 0 0 0 -5.807 46.453z" fill="#9ccc83"/><path d="m260.682 235.422a5.036 5.036 0 0 1 -1.38-.194l-83.381-23.949a5 5 0 0 1 -3.614-4.564 150.475 150.475 0 0 1 6-48.074c6.848-23.846 18.589-44.821 33.059-59.061 15.205-14.967 31.734-20.865 46.534-16.616s25.684 18.024 30.632 38.781c4.708 19.748 3.529 43.757-3.319 67.6a150.457 150.457 0 0 1 -20.43 43.929 5 5 0 0 1 -4.101 2.148zm-78.5-32.749 76.385 21.938a142.5 142.5 0 0 0 17.04-38.024c6.381-22.218 7.519-44.422 3.2-62.524-4.076-17.092-12.48-28.275-23.664-31.488s-24.245 1.809-36.768 14.132c-13.262 13.053-24.075 32.477-30.461 54.693a142.53 142.53 0 0 0 -5.735 41.273z" fill="#333"/><path d="m173.229 229.926c-4.794 29.5 5.26 55.792 24.828 61.412s42.043-11.333 53.631-38.877z" fill="#9ccc83"/><path d="m205.652 297.4a32.421 32.421 0 0 1 -8.975-1.254c-21.744-6.246-33.681-34.431-28.383-67.02a5 5 0 0 1 6.315-4l78.458 22.534a5 5 0 0 1 3.233 6.74c-11.073 26.311-31.317 43-50.648 43zm-28.212-61.06c-2.365 24.708 6.622 45.778 22 50.194s34.171-8.674 45.28-30.871z" fill="#333"/><path d="m0 0h320v320h-320z" fill="none"/></svg>