<svg viewBox="0 0 320 320" xmlns="http://www.w3.org/2000/svg"><path d="m0 0h320v320h-320z" fill="none"/><path d="m267.535 219.631h-188.356l-16-127.918h219.356z" fill="#fff"/><path d="m267.535 224.631h-188.356a5 5 0 0 1 -4.961-4.38l-16-127.917a5 5 0 0 1 4.961-5.621h219.356a5 5 0 0 1 4.965 5.587l-15 127.917a5 5 0 0 1 -4.965 4.414zm-183.942-10h179.494l13.828-117.918h-208.071z" fill="#333"/><path d="m238.688 259.978h-155.07a5 5 0 0 1 -4.961-4.377l-26.849-213.809h-41.394a5 5 0 0 1 0-10h45.805a5 5 0 0 1 4.961 4.376l26.849 213.81h150.659a5 5 0 0 1 0 10z" fill="#333"/><circle cx="96.552" cy="276.901" fill="#9ccc83" r="21.924"/><path d="m96.552 303.825a26.924 26.924 0 1 1 26.924-26.925 26.954 26.954 0 0 1 -26.924 26.925zm0-43.847a16.924 16.924 0 1 0 16.924 16.922 16.942 16.942 0 0 0 -16.924-16.922z" fill="#333"/><circle cx="238.687" cy="276.901" fill="#9ccc83" r="21.924"/><g fill="#333"><path d="m238.688 303.825a26.924 26.924 0 1 1 26.923-26.925 26.954 26.954 0 0 1 -26.923 26.925zm0-43.847a16.924 16.924 0 1 0 16.923 16.922 16.942 16.942 0 0 0 -16.923-16.922z"/><path d="m204.42 224.631c-.066 0-.132 0-.2 0a5 5 0 0 1 -4.8-5.191l5-127.918a5 5 0 1 1 9.993.391l-5 127.917a5 5 0 0 1 -4.993 4.801z"/><path d="m141.294 224.631a5 5 0 0 1 -4.992-4.805l-5-127.917a5 5 0 1 1 9.992-.391l5 127.918a5 5 0 0 1 -4.8 5.191c-.067.002-.134.004-.2.004z"/><path d="m277.109 139.353h-207.177a5 5 0 0 1 0-10h207.177a5 5 0 0 1 0 10z"/><path d="m271.109 181.992h-196.177a5 5 0 1 1 0-10h196.177a5 5 0 0 1 0 10z"/></g></svg>