<svg viewBox="0 0 200 200" xmlns="http://www.w3.org/2000/svg"><circle cx="100" cy="100" fill="#ffec8d" r="100"/><rect fill="#fff" height="96.839" rx="6.456" width="159.388" x="20.306" y="51.58"/><g fill="#231815"><path d="m173.238 150.92h-146.476a8.967 8.967 0 0 1 -8.956-8.956v-83.928a8.967 8.967 0 0 1 8.956-8.956h146.476a8.967 8.967 0 0 1 8.956 8.956v83.928a8.967 8.967 0 0 1 -8.956 8.956zm-146.476-96.84a3.961 3.961 0 0 0 -3.956 3.956v83.928a3.961 3.961 0 0 0 3.956 3.956h146.476a3.961 3.961 0 0 0 3.956-3.956v-83.928a3.961 3.961 0 0 0 -3.956-3.956z"/><path d="m162.754 72.5h-59.554a2.5 2.5 0 0 1 0-5h59.55a2.5 2.5 0 0 1 0 5z"/><path d="m162.754 86.75h-59.554a2.5 2.5 0 0 1 0-5h59.55a2.5 2.5 0 0 1 0 5z"/><path d="m149.283 106.082h-46.083a2.5 2.5 0 0 1 0-5h46.079a2.5 2.5 0 0 1 0 5z"/><path d="m149.283 120.332h-46.083a2.5 2.5 0 0 1 0-5h46.079a2.5 2.5 0 1 1 0 5z"/><path d="m149.283 134.582h-46.083a2.5 2.5 0 0 1 0-5h46.079a2.5 2.5 0 1 1 0 5z"/></g><path d="m37.246 68.017h50.923v64.065h-50.923z" fill="#9ccc83"/><path d="m88.169 134.343h-50.923a2.261 2.261 0 0 1 -2.261-2.261v-64.065a2.261 2.261 0 0 1 2.261-2.261h50.923a2.261 2.261 0 0 1 2.262 2.261v64.065a2.261 2.261 0 0 1 -2.262 2.261zm-48.662-4.523h46.4v-59.542h-46.4z" fill="#231815"/><path d="m79.955 131.082c0-10.46-4.659-18.338-11.158-21.673a15.554 15.554 0 1 0 -11.327 0c-6.5 3.335-11.159 11.213-11.159 21.673z" fill="#fff"/><path d="m79.955 133.582h-33.643a2.5 2.5 0 0 1 -2.5-2.5c0-8.948 3.305-16.777 8.844-21.445a18.054 18.054 0 1 1 20.955 0c5.539 4.668 8.844 12.5 8.844 21.445a2.5 2.5 0 0 1 -2.5 2.5zm-31.042-5h28.441c-.635-7.775-4.229-14.143-9.7-16.948a2.5 2.5 0 0 1 .229-4.552 13.054 13.054 0 1 0 -9.5 0 2.5 2.5 0 0 1 .229 4.552c-5.47 2.805-9.064 9.173-9.699 16.948z" fill="#231815"/></svg>