<svg viewBox="0 0 200 200" xmlns="http://www.w3.org/2000/svg"><circle cx="99.642" cy="100" fill="#ffec8d" r="100"/><path d="m119.116 75.187c0-11.886-5.294-20.838-12.68-24.628a17.675 17.675 0 1 0 -12.872 0c-7.386 3.79-12.68 12.742-12.68 24.628z" fill="#fff"/><path d="m119.116 77.688h-38.232a2.5 2.5 0 0 1 -2.5-2.5c0-10.251 3.848-19.193 10.274-24.4a20.174 20.174 0 1 1 22.684 0c6.426 5.2 10.274 14.144 10.274 24.4a2.5 2.5 0 0 1 -2.5 2.5zm-35.644-5h33.056c-.646-9.121-4.826-16.618-11.233-19.9a2.5 2.5 0 0 1 .229-4.553 15.174 15.174 0 1 0 -11.048 0 2.5 2.5 0 0 1 .229 4.553c-6.405 3.282-10.587 10.779-11.233 19.9z" fill="#231815"/><path d="m66.4 155.712c0-11.886-5.294-20.839-12.68-24.628a17.674 17.674 0 1 0 -12.872 0c-7.386 3.789-12.68 12.742-12.68 24.628z" fill="#fff"/><path d="m66.4 158.212h-38.232a2.5 2.5 0 0 1 -2.5-2.5c0-10.251 3.848-19.192 10.274-24.395a20.174 20.174 0 1 1 22.684 0c6.426 5.2 10.274 14.144 10.274 24.395a2.5 2.5 0 0 1 -2.5 2.5zm-35.644-5h33.056c-.646-9.12-4.826-16.617-11.233-19.9a2.5 2.5 0 0 1 .23-4.553 15.176 15.176 0 1 0 -11.049 0 2.5 2.5 0 0 1 .229 4.553c-6.406 3.288-10.589 10.78-11.233 19.9z" fill="#231815"/><path d="m171.832 155.712c0-11.886-5.294-20.839-12.68-24.628a17.675 17.675 0 1 0 -12.872 0c-7.386 3.789-12.68 12.742-12.68 24.628z" fill="#fff"/><g fill="#231815"><path d="m171.832 158.212h-38.232a2.5 2.5 0 0 1 -2.5-2.5c0-10.251 3.848-19.192 10.274-24.395a20.175 20.175 0 1 1 22.684 0c6.426 5.2 10.274 14.144 10.274 24.395a2.5 2.5 0 0 1 -2.5 2.5zm-35.644-5h33.056c-.646-9.12-4.827-16.617-11.233-19.9a2.5 2.5 0 0 1 .229-4.553 15.174 15.174 0 1 0 -11.049 0 2.5 2.5 0 0 1 .23 4.553c-6.407 3.288-10.587 10.78-11.233 19.9z"/><path d="m53.3 90.877a2 2 0 0 1 -1.634-3.151l1.734-2.454a2 2 0 0 1 3.27 2.3l-1.73 2.456a2 2 0 0 1 -1.64.849zm6.334-8.993a2 2 0 0 1 -1.634-3.152l1.727-2.453a2 2 0 0 1 3.273 2.303l-1.728 2.453a2 2 0 0 1 -1.635.849zm6.334-8.993a2 2 0 0 1 -1.633-3.152l1.727-2.453a2 2 0 0 1 3.271 2.3l-1.728 2.453a2 2 0 0 1 -1.634.852zm6.338-8.991a2 2 0 0 1 -1.634-3.151l1.728-2.456a2 2 0 0 1 3.27 2.3l-1.727 2.453a2 2 0 0 1 -1.637.854z"/><path d="m145.989 90.877a2 2 0 0 1 -1.637-.849l-1.727-2.453a2 2 0 0 1 3.27-2.3l1.728 2.454a2 2 0 0 1 -1.634 3.151zm-6.334-8.993a1.994 1.994 0 0 1 -1.637-.849l-1.728-2.453a2 2 0 0 1 3.271-2.3l1.727 2.453a2 2 0 0 1 -1.633 3.152zm-6.334-8.993a1.994 1.994 0 0 1 -1.637-.849l-1.728-2.453a2 2 0 0 1 3.271-2.3l1.727 2.453a2 2 0 0 1 -1.633 3.152zm-6.335-8.991a2 2 0 0 1 -1.637-.848l-1.727-2.452a2 2 0 0 1 3.27-2.3l1.728 2.453a2 2 0 0 1 -1.634 3.151z"/><path d="m72.541 141.729h-1.5a2 2 0 0 1 0-4h1.5a2 2 0 0 1 0 4z"/><path d="m118.411 141.729h-3.128a2 2 0 1 1 0-4h3.128a2 2 0 0 1 0 4zm-11.468 0h-3.128a2 2 0 0 1 0-4h3.128a2 2 0 1 1 0 4zm-11.467 0h-3.128a2 2 0 1 1 0-4h3.128a2 2 0 0 1 0 4zm-11.468 0h-3.127a2 2 0 0 1 0-4h3.127a2 2 0 1 1 0 4z"/><path d="m128.25 141.729h-1.5a2 2 0 0 1 0-4h1.5a2 2 0 0 1 0 4z"/></g></svg>